<?xml version="1.0" encoding="utf-8"?>
<!-- Generator: Adobe Illustrator 18.0.0, SVG Export Plug-In . SVG Version: 6.00 Build 0)  -->
<!DOCTYPE svg PUBLIC "-//W3C//DTD SVG 1.1//EN" "http://www.w3.org/Graphics/SVG/1.1/DTD/svg11.dtd">
<svg version="1.1" id="Layer_1" xmlns="http://www.w3.org/2000/svg" xmlns:xlink="http://www.w3.org/1999/xlink" x="0px" y="0px"
	 viewBox="0 0 800 800" enable-background="new 0 0 800 800" xml:space="preserve">
<g id="Cabinet_Office">
	<path fill="#1D1D1B" d="M520.1,365.9c0.5-6.8,5.1-12.5,12.7-12.5c7.2,0,12.4,5.6,12.7,12.5H520.1z M545.3,378.2
		c-1.3,5.7-5.5,8.6-11.5,8.6c-9.7,0-14-6.8-13.8-14.5h33.1c0.4-10.7-4.4-25.3-20-25.3c-12.1,0-20.8,9.7-20.8,23
		c0.4,13.5,7.1,23.3,21.2,23.3c9.9,0,16.9-5.3,18.9-15L545.3,378.2L545.3,378.2z M508.4,362.2c-1-10.5-9.1-15.2-19.1-15.2
		c-14,0-20.9,10.4-20.9,23.7c0,13.2,7.2,22.6,20.7,22.6c11.1,0,17.9-6.4,19.5-17.2h-7.4c-0.9,6.7-5.1,10.8-12.1,10.8
		c-9.2,0-12.9-8-12.9-16.2c0-9,3.2-17.3,13.8-17.3c6,0,9.8,3.3,11,8.8H508.4L508.4,362.2z M461.8,348h-7.3v44.2h7.3V348z
		 M461.8,331.2h-7.3v8.9h7.3V331.2z M431.8,392.2h7.3v-37.8h8.6V348H439v-6.2c0-3.8,2.1-5,5.6-5c1.3,0,2.8,0.2,4.1,0.6v-6.3
		c-1.4-0.4-3.3-0.7-4.7-0.7c-8,0-12.2,3.8-12.2,11v6.6h-7.5v6.4h7.5V392.2z M406.4,392.2h7.3v-37.8h8.6V348h-8.6v-6.2
		c0-3.8,2-5,5.6-5c1.3,0,2.8,0.2,4.1,0.6v-6.3c-1.4-0.4-3.3-0.7-4.7-0.7c-8,0-12.2,3.8-12.2,11v6.6h-7.4v6.4h7.4L406.4,392.2
		L406.4,392.2z M345.4,361.7c0-12.3,6.2-25.2,21.1-25.2s21.1,12.8,21.1,25.2c0,12.3-6.2,25.1-21.1,25.1
		C351.7,386.8,345.4,374,345.4,361.7 M337.3,361.7c0,16.6,9.8,32,29.3,32c19.4,0,29.3-15.4,29.3-32c0-16.6-9.8-32-29.3-32
		C347.2,329.7,337.3,345.1,337.3,361.7 M302.3,334.8H295V348h-7.5v6.4h7.5v28.1c0,8.1,3,9.7,10.5,9.7h5.6v-6.4h-3.3
		c-4.5,0-5.5-0.6-5.5-3.9v-27.5h8.8V348h-8.8L302.3,334.8L302.3,334.8z M253.9,365.9c0.5-6.8,5-12.5,12.6-12.5
		c7.2,0,12.4,5.6,12.8,12.5H253.9z M279.2,378.2c-1.3,5.7-5.5,8.6-11.5,8.6c-9.7,0-14-6.8-13.8-14.5H287c0.4-10.7-4.4-25.3-20-25.3
		c-12.1,0-20.8,9.7-20.8,23c0.4,13.5,7.1,23.3,21.2,23.3c9.9,0,16.9-5.3,18.9-15L279.2,378.2L279.2,378.2z M203.5,392.2h7.3v-25
		c0-8,4.3-13.9,13.1-13.9c5.6,0,9,3.5,9,8.9v29.9h7.3V363c0-9.5-3.6-16.2-15.2-16.2c-6.3,0-11.3,2.6-14.4,8h-0.2v-7h-6.8v44.4H203.5
		z M194.8,331.2h-7.3v8.9h7.3V331.2z M187.5,392.2h7.3V348h-7.3V392.2z M138.9,392.2h7.3v-5.9h0.2c3.3,5.2,9.7,6.9,14.3,6.9
		c13.5,0,20.2-10.5,20.2-23s-6.7-23.3-20.3-23.3c-6.1,0-11.7,2.1-14.1,7h-0.2v-22.8H139L138.9,392.2L138.9,392.2z M173.1,369.8
		c0,8.6-3.3,17.1-13.3,17.1s-13.9-8-13.9-16.8c0-8.3,3.8-16.7,13.5-16.7C168.8,353.4,173.1,361.5,173.1,369.8 M133.9,386.4
		c-0.9,0.3-1.6,0.4-2.2,0.4c-2.3,0-2.3-1.5-2.3-5V359c0-10.3-8.6-12.1-16.6-12.1c-9.8,0-18.3,3.8-18.7,14.8h7.3
		c0.3-6.5,4.9-8.4,11-8.4c4.6,0,9.8,1,9.8,7.4c0,5.5-6.8,5-14.9,6.5c-7.5,1.5-15,3.6-15,13.6c0,8.8,6.6,12.4,14.6,12.4
		c6.2,0,11.6-2.1,15.6-6.8c0,4.8,2.4,6.8,6.2,6.8c2.3,0,3.9-0.4,5.2-1.2V386.4z M122.1,376.8c0,4-3.9,10-13.5,10
		c-4.4,0-8.6-1.7-8.6-6.5c0-5.4,4.1-7.1,8.9-8c4.9-0.9,10.4-0.9,13.2-3V376.8z M88.1,349.6c-1.9-13-12.4-19.8-25.1-19.8
		c-18.8,0-28.9,14.5-28.9,32.2c0,17.8,9.2,31.8,28.2,31.8c15.4,0,24.9-9.2,26.4-24.5h-8.1c-0.8,10.1-6.9,17.6-17.6,17.6
		c-14.6,0-20.8-11.6-20.8-25.6c0-12.8,6.2-24.7,20.7-24.7c8.5,0,15.4,4.4,17.1,13H88.1z"/>
	<rect y="179" fill="#0055B8" width="7.2" height="213.7"/>
	<path fill="#1D1D1B" d="M100.2,199c-0.7,1.3-1.3,2.1-1.2,3.1c0.1,1,1.2,1.8,1.7,2.8c0.5-1.2,1.2-2.1,1.2-3.1
		C101.8,200.9,100.5,199.6,100.2,199"/>
	<path fill="#1D1D1B" d="M118.2,199c0.7,1.3,1.3,2.1,1.2,3.1c-0.1,1-1.2,1.8-1.7,2.8c-0.5-1.2-1.2-2.1-1.1-3.1
		C116.6,200.9,117.9,199.6,118.2,199"/>
	<path fill="#1D1D1B" d="M89.9,198.2c0.7,0,1.2-0.5,1.2-1.2s-0.5-1.2-1.2-1.2s-1.2,0.5-1.2,1.2C88.7,197.6,89.2,198.2,89.9,198.2"/>
	<path fill="#1D1D1B" d="M90.7,199.9c0-0.7-0.5-1.2-1.2-1.2s-1.2,0.5-1.2,1.2c0,0.7,0.5,1.2,1.2,1.2S90.7,200.6,90.7,199.9"/>
	<path fill="#1D1D1B" d="M91.3,202.8c0-0.7-0.5-1.2-1.2-1.2s-1.2,0.5-1.2,1.2s0.5,1.2,1.2,1.2S91.3,203.5,91.3,202.8"/>
	<path fill="#1D1D1B" d="M96.6,192.4c0.7,0,1.2-0.5,1.2-1.2s-0.5-1.2-1.2-1.2s-1.2,0.5-1.2,1.2S95.9,192.4,96.6,192.4"/>
	<path fill="#1D1D1B" d="M93.6,193.3c0.7,0,1.2-0.5,1.2-1.2c0-0.7-0.5-1.2-1.2-1.2s-1.2,0.5-1.2,1.2
		C92.4,192.8,92.9,193.3,93.6,193.3"/>
	<path fill="#1D1D1B" d="M91.2,195.4c0.7,0,1.2-0.5,1.2-1.2s-0.5-1.2-1.2-1.2s-1.2,0.5-1.2,1.2S90.6,195.4,91.2,195.4"/>
	<path fill="#1D1D1B" d="M99.8,192.7c0.7,0,1.2-0.5,1.2-1.2s-0.5-1.2-1.2-1.2s-1.2,0.5-1.2,1.2C98.6,192.2,99.1,192.7,99.8,192.7"/>
	<path fill="#1D1D1B" d="M102.8,193.6c0.7,0,1.2-0.5,1.2-1.2c0-0.7-0.5-1.2-1.2-1.2s-1.2,0.5-1.2,1.2
		C101.6,193,102.1,193.6,102.8,193.6"/>
	<path fill="#1D1D1B" d="M105.6,194.9c0.7,0,1.2-0.5,1.2-1.2s-0.5-1.2-1.2-1.2s-1.2,0.5-1.2,1.2S104.9,194.9,105.6,194.9"/>
	<path fill="#1D1D1B" d="M127.2,197c0,0.7,0.5,1.2,1.2,1.2s1.2-0.5,1.2-1.2s-0.5-1.2-1.2-1.2C127.8,195.8,127.2,196.3,127.2,197"/>
	<path fill="#1D1D1B" d="M128.8,198.7c-0.7,0-1.2,0.5-1.2,1.2c0,0.7,0.5,1.2,1.2,1.2s1.2-0.5,1.2-1.2
		C130,199.2,129.5,198.7,128.8,198.7"/>
	<path fill="#1D1D1B" d="M128.2,201.6c-0.7,0-1.2,0.5-1.2,1.2s0.5,1.2,1.2,1.2s1.2-0.5,1.2-1.2C129.5,202.2,128.9,201.6,128.2,201.6
		"/>
	<path fill="#1D1D1B" d="M121.7,192.4c0.7,0,1.2-0.5,1.2-1.2s-0.5-1.2-1.2-1.2s-1.2,0.5-1.2,1.2S121.1,192.4,121.7,192.4"/>
	<path fill="#1D1D1B" d="M124.7,193.3c0.7,0,1.2-0.5,1.2-1.2c0-0.7-0.5-1.2-1.2-1.2s-1.2,0.5-1.2,1.2
		C123.5,192.8,124.1,193.3,124.7,193.3"/>
	<path fill="#1D1D1B" d="M127.1,195.4c0.7,0,1.2-0.5,1.2-1.2s-0.5-1.2-1.2-1.2s-1.2,0.5-1.2,1.2
		C125.9,194.9,126.4,195.4,127.1,195.4"/>
	<path fill="#1D1D1B" d="M118.6,192.7c0.7,0,1.2-0.5,1.2-1.2s-0.5-1.2-1.2-1.2s-1.2,0.5-1.2,1.2
		C117.3,192.2,117.9,192.7,118.6,192.7"/>
	<path fill="#1D1D1B" d="M115.6,193.6c0.7,0,1.2-0.5,1.2-1.2c0-0.7-0.5-1.2-1.2-1.2s-1.2,0.5-1.2,1.2
		C114.3,193,114.9,193.6,115.6,193.6"/>
	<path fill="#1D1D1B" d="M111.5,193.7c0,0.7,0.5,1.2,1.2,1.2s1.2-0.5,1.2-1.2s-0.5-1.2-1.2-1.2C112.1,192.5,111.5,193,111.5,193.7"
		/>
	<path fill="#1D1D1B" d="M107.1,200.2h1.4V195c-0.5-0.1-0.9-0.2-1.4-0.4V200.2z"/>
	<path fill="#1D1D1B" d="M111.2,194.6c-0.4,0.2-0.9,0.3-1.4,0.4v5.2h1.4V194.6z"/>
	<path fill="#1D1D1B" d="M108.4,188.9v-3.1c-1.5,0.3-2.7,1.5-3,3.1H108.4z"/>
	<path fill="#1D1D1B" d="M110,188.9h3c-0.3-1.5-1.4-2.7-3-3.1V188.9z"/>
	<path fill="#1D1D1B" d="M105.5,190.4c0.4,1.7,1.9,3,3.7,3c1.8,0,3.3-1.3,3.7-3H105.5z"/>
	<path fill="#1D1D1B" d="M111.3,185.3c-0.9-0.7-1.5-1.7-1.7-2.7c1,0.2,2.1,0.9,2.7,1.7v-4.1c-0.6,0.9-1.8,1.6-2.7,1.8
		c0.1-1,0.7-1.9,1.6-3h-4c0.8,1.1,1.5,2,1.6,3c-1-0.2-2.1-0.9-2.7-1.8v4.2c0.6-0.8,1.8-1.6,2.7-1.7c-0.1,1-0.8,2-1.7,2.7
		L111.3,185.3L111.3,185.3z"/>
	<path fill="#1D1D1B" d="M111.4,272.3c-0.8,0-1.5-0.7-1.5-1.5c0-0.8,0.7-1.5,1.5-1.5s1.5,0.7,1.5,1.5
		C112.9,271.6,112.2,272.3,111.4,272.3 M104.2,270.1c-0.9,0-1.6-0.7-1.6-1.6s0.7-1.6,1.6-1.6s1.6,0.7,1.6,1.6
		C105.8,269.3,105.1,270.1,104.2,270.1 M101.8,262.8l-0.4-0.3c-0.7-0.6-1.4-0.6-2,0c-0.3,0.3-0.6,0.6-0.9,0.9l-0.5,0.5l0.3,0.2
		c0.8,0.6,0.9,1.3,0.7,1.7c-0.1,0.2-0.2,0.3-0.4,0.3c-0.4,0.1-0.9,0-1.5-0.4l-0.3-0.2l-0.2,0.3c0,0.1-0.1,0.1-0.1,0.2
		c-0.1,0.1-0.1,0.2-0.2,0.3c-0.3,0.6-0.5,1-0.5,1.4c0,0.1,0,0.2,0,0.3c0.1,0.4,0.5,0.6,0.8,0.8l0.2,0.1c0.4,0.2,0.8,0.5,1.2,0.7
		c-0.7,0.4-1.4,0.4-2.1,0.1c-1.1-0.5-1.7-1.7-1.7-2.3c0-0.9,0.4-2,1.1-3.2l0.1-0.2h-0.1c-0.2-0.4-0.4-0.7-0.5-1
		c0.4,0.1,0.8,0.1,1.2,0.2h0.2l0.1-0.1c0.5-0.5,2.1-2.1,3.5-2.1c0.7,0,1.4,0.3,1.9,0.9c0.4,0.4,0.6,1,0.7,1.5
		C102.2,263.2,102,263,101.8,262.8 M115.7,268.5c-3.8-1-8.3-2.6-12.6-4.5l0,0c0.1-0.9-0.2-1.8-0.9-2.6c-0.7-0.8-1.5-1.2-2.4-1.2
		c-0.4,0-0.8,0.1-1.2,0.2c-0.6-0.5-1.2-1.2-1.8-1.8c-1.6-1.9-2.9-4.1-3.7-6.5c-0.5-1.4-0.9-2.8-1.1-4.3c-0.2,1.2-1.6,2.9-4,2.9
		c0-0.3,0-0.9-0.2-0.9c-0.6,0.7-1.6,1.4-3.7,0.7c0.3,1.7,0.8,3.3,1.4,4.9c1.3,3.4,3.1,6.5,5.5,9.2c0.8,0.9,1.6,1.7,2.4,2.4
		c0,0.2,0,0.3,0,0.5c0,0.9,0.9,2.3,2.1,2.9c1,0.5,2.1,0.4,3.1-0.3c1.9,1,4.2,1.9,6.8,2.6c2.9,0.8,5.6,1.2,7.8,1.2
		c1.9,0,4.3-0.9,6.7-2.4c1-0.6,1.9-1.3,2.6-1.9c0.1-0.1,0.2-0.2,0.3-0.2C120.9,269.7,118,269.1,115.7,268.5"/>
	<path fill="#1D1D1B" d="M114.6,284c-0.3-0.5-0.7-0.8-1-0.8c-1.6,0-1,4.1-2.8,4.1c-0.8,0-1.2-0.5-1.2-1.1c0-0.6,0.4-0.8,0.4-1.2
		c0-0.5-0.4-0.6-0.8-0.6s-0.8,0.2-0.8,0.6c0,0.5,0.4,0.6,0.4,1.2c0,0.6-0.4,1.1-1.2,1.1c-1.9,0-1.2-4.1-2.8-4.1
		c-0.3,0-0.7,0.3-1,0.8c-0.3-0.6-0.5-1.2-0.5-1.6c0-0.8,0.6-1.8,1.8-1.8c2.1,0,1.6,2.8,2.6,2.8c0.4,0,0.8-0.3,0.8-0.7
		c0-0.8-1.4-1.6-1.4-2.7c0-1.2,1.1-2.1,2.2-3.1c1.2,0.9,2.2,1.9,2.2,3.1c0,1.1-1.4,1.9-1.4,2.7c0,0.4,0.3,0.7,0.8,0.7
		c1,0,0.5-2.8,2.6-2.8c1.2,0,1.8,1,1.8,1.8C115.1,282.8,114.9,283.4,114.6,284 M109.2,289.8c-0.6,0-1-0.5-1-1c0-0.6,0.5-1,1-1
		c0.6,0,1,0.4,1,1C110.2,289.3,109.8,289.8,109.2,289.8 M113.3,279.8c-0.3,0-0.5,0-0.8,0.1v-4.6c-2-0.1-4.3-0.4-6.7-1v5.6
		c-0.3-0.1-0.5-0.1-0.8-0.1c-1.6,0-2.6,1.3-2.6,2.6c0,1.2,0.7,2.3,1.3,2.9c0.3-0.7,0.6-1.3,1-1.3c0.8,0,0.4,3.9,2.8,4.1
		c-0.1,0.2-0.1,0.4-0.1,0.6c0,1,0.8,1.8,1.8,1.8s1.8-0.8,1.8-1.8c0-0.2,0-0.4-0.1-0.6c2.3-0.1,1.9-4.1,2.7-4.1c0.4,0,0.6,0.5,1,1.3
		c0.6-0.7,1.3-1.8,1.3-2.9C115.9,281.1,114.9,279.8,113.3,279.8"/>
	<path fill="#1D1D1B" d="M166.9,285.3c-0.1-0.2-0.3-0.4-0.6-0.3c-5.3,1.6-12-2.9-18.4-7.1c-5.4-3.6-10.5-7-14.8-7
		c-1.6,0-3.1,0.3-4.3,1c-1.5,0.8-2.7,2.2-3.4,3.9c-0.7,1.8-1.5,3-2.1,4c-0.7,1.2-1.3,2-1.3,3.1c0,0.9,0.4,1.6,1.1,2.4
		c0.6,0.6,1.5,1.2,2.8,1.9c0.3,0.1,0.5,0.3,0.8,0.4c1.1,0.5,1.7,0.9,1.8,1.5c-2.1,0.9-4.9,1.7-8,2.3c-3.5,0.6-7.3,0.9-11.4,0.9
		s-7.9-0.3-11.4-0.9c-3.1-0.5-5.9-1.3-8-2.3c0.1-0.9,0.7-1.2,1.9-1.8c0.3-0.1,0.5-0.3,0.8-0.4c1.1-0.6,2.1-1.1,2.7-1.7
		c0.8-0.7,1.1-1.4,1.1-2.2c0-1.1-0.5-1.9-1.3-3.1c-0.6-1-1.4-2.2-2.1-4c-0.7-1.8-1.9-3.1-3.4-3.9c-1.2-0.7-2.7-1-4.3-1
		c-4.4,0-9.5,3.4-14.9,7c-6.4,4.3-13,8.7-18.4,7.1c-0.3-0.1-0.5,0.1-0.6,0.3c-0.1,0.2,0,0.5,0.3,0.6c1.6,0.7,3.1,1.8,4.4,2.9
		c1.9,1.5,3.7,2.9,5.8,2.9c1.9,0,3.9-0.6,6.4-1.9c2.2-1.1,4.4-2.6,6.5-4.1c4.2-2.9,8.6-5.9,12.7-6.2c-0.4,0.4-0.8,0.8-1.2,1.2
		c-1.2,1.1-2.3,2-2.3,4c0,1.5,0.5,2.6,1.2,4.1c0.2,0.4,0.4,0.9,0.7,1.5c0.5,1,0.7,1.9,0.9,3c0.1,0.5,0.3,1,0.4,1.7
		c0.3,1,0.8,2.8,3.8,4.4c3.5,1.8,9.6,2.7,18,2.7s14.5-0.9,18-2.7c3-1.5,3.5-3.4,3.8-4.4c0.2-0.6,0.3-1.2,0.4-1.7
		c0.3-1.1,0.5-1.9,0.9-3c0.3-0.7,0.7-1.4,1-1.9c0.6-1.2,1.1-2.1,1.1-3.5c0-1.9-1.1-2.9-2.4-4.1c-0.4-0.4-0.8-0.8-1.3-1.2
		c4.1,0.3,8.5,3.3,12.7,6.2c2.2,1.5,4.4,3,6.5,4.1c2.5,1.3,4.5,1.9,6.4,1.9c2,0,3.8-1.4,5.7-2.9c1.4-1.1,2.8-2.2,4.4-2.9
		C166.9,285.8,167,285.5,166.9,285.3"/>
	<path fill="#1D1D1B" d="M109.9,243.8v-20c2.1,0.1,4.1,0.6,6,1.6c2.1,1,3.9,2.5,5.5,4.4s2.9,4.1,3.7,6.5c0.9,2.4,1.3,5,1.4,7.6
		L109.9,243.8L109.9,243.8z M109.2,215.4c-5.7,0-9.6,1.7-11.9,3.2c-1.3-0.8-1.9-1.5-1.9-2.4c0-3.2,9.1-3.5,13.8-3.5
		c4.6,0,13.8,0.3,13.8,3.5c0,0.9-0.6,1.7-1.9,2.4C118.8,217.1,114.9,215.4,109.2,215.4 M108.9,243.8H91.8c0-2.6,0.5-5.2,1.4-7.6
		c0.9-2.4,2.1-4.6,3.7-6.5c1.6-1.9,3.5-3.3,5.5-4.4c2-1,4.2-1.5,6.4-1.6L108.9,243.8L108.9,243.8z M134.8,242.5
		c-0.6-0.4-1.6-1.3-2.1-2.4c-0.6-1.3-3.3-6.5-3.7-7.2c-0.3-0.6-0.5-1.1-0.5-1.6c0-0.6,0.3-1,0.6-1.4c0.2-0.3,0.8-0.8,1-1.2
		c0.2-0.3,0.3-0.5,0.5-0.6c-1-1.7-1.9-2.9-3.2-4.4c-1.6-1.7-3.3-3.3-5.2-4.5c1-0.7,2-1.6,2-3.2c0-0.9-0.4-1.7-1.1-2.3
		c1.1-3.4,3-7.5,4.6-9.3l-3.4-1.4c0.9,1.4,0.9,2.9,0.7,3.9c-0.9-0.6-1.7-1.5-1.9-2.6c-0.2,1-0.7,2.7-1.3,3.7c1-0.5,1.8-0.7,2.8-0.3
		c-0.6,0.8-2.1,2-4.3,1.4c-1.2-0.3-2.4-0.9-2.4-1.9c0-0.6,0.4-1.2,1.2-1.2c0.7,0.1,0.8,1.2,0.6,1.7c1-0.6,2-3.4,0.5-3.9
		c-1.2-0.3-2.3,1.3-2.7,2.6c-0.2-1.5-0.9-3-2.1-2.9c-1.6,0.1-1.1,3-0.5,3.8c0.1-1,0.7-1.6,1.1-1.5c0.4,0,1,0.3,0.9,1.3
		c-0.1,0.9-1.4,1.5-3,1.5c-1.4,0-4-0.4-4.2-3.2c0.9,0.2,2.4,0.9,3,1.8c-0.2-1.7-0.2-2.9,0-4.6c-0.8,1.1-2.1,1.7-3,1.8
		c0.3-1.2,1.3-2.5,2.5-3.2H106c1.2,0.8,2.2,2,2.5,3.2c-0.9-0.2-2.2-0.7-3-1.8c0.2,1.8,0.2,3,0,4.6c0.6-0.9,2.1-1.6,3-1.8
		c-0.2,2.8-2.8,3.2-4.2,3.2c-1.5,0-2.8-0.6-2.9-1.5c-0.1-0.9,0.5-1.2,0.9-1.3c0.5,0,1,0.5,1.1,1.5c0.6-0.7,1.1-3.7-0.5-3.8
		c-1.2-0.1-1.9,1.4-2.1,2.9c-0.4-1.3-1.5-2.9-2.7-2.6c-1.5,0.4-0.5,3.3,0.5,3.9c-0.2-0.5-0.2-1.6,0.6-1.7c0.8-0.1,1.2,0.6,1.2,1.2
		c0.1,1-1.2,1.6-2.4,1.9c-2.2,0.5-3.7-0.6-4.3-1.4c1-0.4,1.8-0.2,2.8,0.3c-0.5-1-1.1-2.7-1.3-3.7c-0.3,1.1-1,2-2,2.6
		c-0.2-0.9-0.1-2.5,0.8-3.9l-3.4,1.4c1.6,1.8,3.6,6,4.6,9.4c-0.7,0.6-1,1.3-1,2.2c0,1.6,1,2.5,2,3.2c-1.9,1.2-3.6,2.7-5.2,4.5
		c-2.4,2.6-4.2,5.7-5.5,9.1c0.5,0.5,2.5,2.7,3,3.3c0.8,1.1,1.4,2.2,1.4,3c0.1,1.5,0.4,2.2,1.2,3.2c0.3,0.3,0.6,1.5,0.7,2.3h17v18.6
		c-0.7,0-1.4,0.2-2,0.9c2,0.8,3.8,1.5,5.7,2.1c0.2-1.2,0.4-2,1-2.7c0,0-2.5-0.2-3.8-0.3v-18.4h16.7c-0.1,2.5-0.5,5-1.4,7.3
		c-0.9,2.4-2.1,4.6-3.7,6.5s-3.5,3.3-5.5,4.4c-0.3,0.2-0.3,0.4-0.7,0.5c-0.3,0.3-0.6,0.9-0.8,1.5c-0.2,0.6-0.3,1-0.4,1.7
		c0.8,0.2,1.2,0.4,1.9,0.5c5.9,1.5,7.3,1,7.6,0.8l0,0c1.3-1,2.5-2.2,3.7-3.5c2.3-2.6,4.2-5.7,5.5-9.2c1.3-3.6,2-7.3,2-11.2
		C134.8,243.5,134.8,243.2,134.8,242.5"/>
	<path fill="#1D1D1B" d="M119.2,231.9c-0.2,0.1-0.2,0.3-0.2,0.5c0.1,0.2,0.2,0.3,0.5,0.3c-0.2,0.2-0.3,0.4-0.4,0.7
		c0.3,0,0.6,0,0.8-0.2c-0.1,0.3,0,0.5,0.2,0.6c0.1,0.1,0.3,0.1,0.4,0c1.3,2,2.1,4.4,2.5,6.8c-0.2-0.1-0.4-0.2-0.6-0.2
		c0,0.3,0.2,0.6,0.3,0.8h-4.2c0-0.3-0.1-0.5-0.3-0.6c-0.2-0.1-0.4,0-0.6,0.2c0-0.2-0.1-0.5-0.3-0.7c-0.2,0.2-0.3,0.5-0.3,0.7
		c-0.2-0.2-0.4-0.3-0.6-0.2s-0.3,0.3-0.3,0.6h-3.6c0.1-0.2,0.2-0.4,0.3-0.7c-0.3,0-0.5,0.1-0.7,0.3V235c0.3,0,0.5-0.1,0.6-0.3
		s0-0.4-0.2-0.6c0.2,0,0.5-0.1,0.7-0.3c-0.2-0.2-0.5-0.3-0.7-0.3c0.2-0.2,0.3-0.4,0.2-0.6c-0.1-0.2-0.3-0.3-0.6-0.3v-4.9
		c0.2,0.1,0.4,0.2,0.6,0.3c0-0.3,0-0.5-0.2-0.7c1.1,0.4,2.2,0.9,3.2,1.6C117.1,229.7,118.2,230.7,119.2,231.9 M123.9,240.5
		c0.3,0.2,0.2,0.7-0.2,0.6c-0.4-3-1.5-6-3.2-8.4l0,0c0.3-0.1,0.6-0.4,0.7-0.9c-0.5-0.1-0.9,0.2-1.1,0.5c-0.1-0.2-0.2-0.3-0.4-0.5
		c-1.1-1.4-2.3-2.5-3.6-3.4c-1.3-0.9-2.6-1.5-4-1.8c0-0.3,0.4-0.4,0.6-0.1c0-0.5-0.4-0.8-0.7-0.7c-0.1,0.1-0.3,0.2-0.3,0.4
		c-0.2-0.2-0.4-0.4-0.7-0.4c0,0.3,0.1,0.6,0.2,0.8c-0.2,0-0.4,0.1-0.4,0.2c-0.1,0.2,0,0.7,0.6,0.8c-0.3-0.2-0.1-0.6,0.2-0.6v6.5
		c-0.3-0.1-0.7-0.1-1.1,0.3c0.4,0.3,0.8,0.4,1.1,0.3v7.1c-0.4,0-0.4-0.4-0.2-0.6c-0.5,0-0.8,0.5-0.6,0.7c0.1,0.2,0.2,0.3,0.5,0.3
		c-0.2,0.2-0.3,0.4-0.3,0.7c0.3,0,0.6-0.1,0.7-0.3c0,0.3,0.1,0.5,0.3,0.5c0.2,0.1,0.7-0.1,0.7-0.6c-0.2,0.3-0.6,0.2-0.6-0.1h4.9
		c-0.1,0.3,0,0.7,0.3,1.1c0.3-0.4,0.4-0.8,0.3-1.1h5.5c0,0.3-0.4,0.4-0.6,0.2c0,0.5,0.5,0.7,0.7,0.6s0.3-0.3,0.3-0.5
		c0.2,0.2,0.4,0.3,0.7,0.3c0-0.3-0.1-0.6-0.3-0.7c0.3,0,0.5-0.1,0.5-0.3C124.7,241,124.5,240.5,123.9,240.5"/>
	<path fill="#1D1D1B" d="M121,238.7c0.2-0.1,0.4-0.3,0.5-0.4c-0.2,0.1-0.4,0-0.5,0c0.2-0.1,0.4,0,0.2-0.3c-0.2-0.3-0.3-0.3-0.5-0.1
		c-0.2,0.2-1.5-0.1-1.5-1.1c0.1,0.2,0.3,0.3,0.5,0.4c0.1,0,0.1,0,0.2,0.1c0,0,0.1,0,0.2,0s0.3,0.1,0.4,0h0.1l0,0
		c0.3-0.1,0.5-0.2,0.5-0.5c0-0.5-0.5-0.8-1-1.3c-0.2-0.2-0.4-0.4-0.5-0.5c-0.2-0.4-0.1-0.8-0.6-1.5c0-0.2-0.1-0.4-0.2-0.6
		c-0.3,0.5-0.4,1.4,0.3,2.1c0.5,0.6,1.7,1.2,1.7,1.7c0,0.1-0.1,0.2-0.3,0.3c-0.1,0-0.1,0-0.2,0h-0.1c-0.1,0-0.2-0.1-0.3-0.1
		c-0.1-0.1-0.3-0.2-0.4-0.3c-0.5-0.5-0.9-1.1-1.2-1.5c-0.6-0.7-0.3-1.4-0.2-2c0.4-0.5-0.2-1.6-0.6-1.9c0,0,0.1-0.3,0-0.6
		c-0.1,0.1-0.2,0-0.3,0c-0.1-0.2-0.1-0.2-0.3-0.3c-0.2,0-0.2-0.2-0.3-0.3c-0.1,0.1-0.2,0.2-0.3,0.3c-0.2,0-0.3,0-0.4,0.1
		c-0.1,0.1-0.2,0.2-0.4,0.2c-0.2,0-0.2,0.1-0.2,0.3c0,0.1,0,0.3,0.2,0.3c0,0,0,0,0.1,0l0.2,0.2l0.1-0.2c0.1-0.1,0.4-0.1,0.4,0.1
		c0,0.1,0.1,0.2-0.1,0.2s-0.3,0-0.5,0c-0.1,0-0.1,0.2-0.1,0.3s0.2,0.2,0.4,0.1c0.3-0.1,0.7-0.1,0.7,0.1c0,0.6-0.7,0.6-0.8,1.3
		c-0.2-0.1-0.3-0.2-0.4-0.4c-0.1-0.2-0.3-0.4-0.5-0.6c-0.1-0.1-0.3-0.3-0.5-0.4c-0.2-0.1-0.2-0.3-0.2-0.5c0-0.2,0.1-0.4,0.1-0.6
		c0,0,0-0.1-0.1-0.2c0-0.1-0.2-0.2-0.3-0.2c0,0,0.1,0.1,0.1,0.2l-0.1,0.1c0,0.1-0.1,0.1,0,0.2l0,0v0.1l0,0c-0.1-0.2-0.1-0.4-0.3-0.4
		h-0.1l0,0c0-0.1-0.2-0.3-0.4-0.1c0,0,0.1,0,0.1,0.1c0,0,0,0.1,0,0.2c0,0.2,0.1,0.2,0.3,0.2l0,0c0,0,0,0,0,0.1l0,0
		c-0.3-0.1-0.4,0-0.4,0.1v0.1c-0.1,0.1-0.1,0.2,0,0.3c0,0,0-0.2,0.1-0.2l0,0l0.1,0.1c0,0,0.1,0,0.1-0.1h0.1c0,0,0,0,0.1,0.1l0,0
		c-0.2,0.2-0.1,0.3,0.1,0.4c-0.1,0.2-0.4,0.1-0.4-0.2c-0.2,0.4,0.2,0.6,0.5,0.5c0,0.1,0,0.4,0.1,0.4c0,0,0-0.1,0.1-0.1l0,0
		c0,0.1,0,0.2,0.2,0.2c0-0.1,0-0.1,0-0.1c0,0.1,0.1,0.2,0.2,0.3c0.2,0.3,0.5,1,1.2,1.3c-0.4,0.2-0.6,0.5-0.8,0.8
		c-0.2,0.2-0.5,0.4-0.7,0.3c-0.1,0-0.1-0.1-0.2-0.2c-0.1-0.1-0.2-0.1-0.2-0.1s-0.1,0-0.1,0.1c-0.1-0.1-0.3,0-0.4,0.1
		c0.1,0,0.2,0,0.3,0.1v0.1c0,0.1,0.1,0.2,0.4,0.2c0,0,0.1,0,0,0c0,0-0.1,0.1-0.2,0.1c-0.2,0-0.2-0.2-0.4,0c0,0,0,0.1-0.1,0.1l0,0
		c-0.1,0-0.3,0.3-0.1,0.4c0-0.1,0-0.2,0.1-0.2l0.1,0.1c0.1,0.2,0.2,0.2,0.5-0.1l0,0c0,0.2-0.2,0.4,0,0.4h0.1l0,0
		c0,0.2,0.3,0.3,0.4,0.2c-0.1,0-0.2-0.1-0.2-0.2h0.1c0.1-0.1,0-0.3,0-0.4c0,0,0,0,0.1,0c0,0.1,0.1,0.2,0.3,0.1
		c0.1-0.1,0.1-0.1,0.2-0.2c0.2-0.1,0.5-0.2,0.6-0.1c0-0.1,0.1-0.3,0.4-0.4c0.3-0.1,0.4,0,0.5,0.1c0-0.1,0.1-0.3,0.3-0.5
		c0,1,1.4,1,1.7,1.6c-0.4-0.2-0.9-0.3-1.2-0.2c-0.3,0.1-0.9,0.4-1,0.8c-0.1,0.3,0.3,0.9,0.6,1.1c-0.4,0.1-0.6,0-0.9,0l0,0
		c-0.3,0-0.4-0.5-0.7-0.4c0,0-0.1,0-0.1,0.1l0,0c-0.1,0-0.3,0.2-0.3,0.3c0,0,0.1-0.1,0.2-0.1v0.1c0,0.1,0,0.1,0.1,0.1s0.1,0,0.1,0
		l0,0c0,0.1-0.5-0.1-0.4,0.3c0,0,0,0.1,0.1,0.1c0,0.1,0.1,0.2,0.3,0.2l-0.1-0.1h0.1c0,0,0.1,0,0.1-0.1l0,0l0,0c0,0,0,0,0,0.1v0.1
		c0,0.1,0.2,0.3,0.4,0.1c-0.1,0-0.2,0-0.2-0.1h0.1v-0.1l0,0h0.1h0.1c0,0.1,0.2,0.2,0.3,0.1c0.1,0,0.1-0.1,0.1-0.1s0.1,0.1,0.2,0.1
		c0-0.1,0.1-0.3,0.4-0.1l0.2-0.2c0,0,0.3,0.1,0.4,0c0.2-0.2,0.1-0.2,0.1-0.3c-0.1-0.3-0.2-0.3-0.3-0.6c-0.1-0.5,0.6-0.8,1-0.7
		c0.1,0.3,0.5,1.2,1.3,1.4c0.5,0.2,0.7-0.4,0.8-0.3l0.1,0.1c0,0.2,0,0.4,0,0.6c0,0.1-0.3,0-0.5,0c-0.1,0-0.2,0.1-0.2,0.1
		c-0.2,0-0.3,0.1-0.3,0.3c0,0,0.2-0.1,0.3-0.1v0.1c0,0.2,0.3,0.3,0.4,0.1c0,0,0.1,0,0,0c-0.1,0.1-0.3,0.3-0.1,0.4c0,0,0.1,0,0.1,0.1
		c0,0.1,0.1,0.3,0.2,0.3c0-0.1,0-0.1,0-0.2h0.1c0.1,0,0.1-0.3,0.2-0.3l0,0c0,0.2-0.1,0.3,0.1,0.4h0.1c0,0.1,0.2,0.2,0.4,0.1
		c0,0-0.1-0.1-0.2-0.1l0.1-0.1c0.1-0.3-0.2-0.3-0.2-0.4c0-0.2,0.3,0,0.3-0.4l0,0c0.1-0.1,0.3-0.2,0.3-0.3
		C121.2,238.8,121,238.8,121,238.7L121,238.7z"/>
	<path fill="#1D1D1B" d="M105.5,248h-0.2c-0.3,0-0.6,0.1-0.6,0.5s0.2,0.6,0.6,0.6h0.2c0,0.1,0,0.2,0,0.2c-0.1,0.5-0.2,1.4-0.4,2.3
		l-2.5-3.6c1.2-0.5,2.2-1,2.7-1C105.5,247,105.6,247.2,105.5,248 M104.5,254.3l-4-5.7c0.4-0.1,0.9-0.2,1.3-0.4l3,4.3
		C104.7,253.1,104.6,253.8,104.5,254.3 M104.1,256.9l-5.7-8.2c0.2,0,0.4,0,0.5,0c0.3,0,0.6,0,0.9-0.1l4.6,6.5
		C104.3,255.9,104.2,256.5,104.1,256.9 M97.7,248.8l6.2,9C100.6,256.5,97.3,253.5,97.7,248.8 M107,248.1h-0.3v-0.3
		c0-1-0.6-1.7-1.6-1.7s-2.8,1.2-5.4,1.2c-1.1,0-2.4-0.5-3.2-1l-0.3,0.8c0,0,0,0,0-0.1c0-0.4-0.3-0.6-0.6-0.6c-0.4,0-0.6,0.3-0.6,0.6
		c0,0.3,0.3,0.6,0.6,0.6c0.2,0,0.4-0.1,0.5-0.2l-0.3,0.8c0.1,0,0.2,0.1,0.3,0.1c-0.4,3.9,2.5,8.9,7.7,10.4c0.8-0.2,1.5-0.1,1.5,0.7
		c0,0.5-0.3,0.7-0.7,0.7c-0.3,0-0.5-0.2-0.5-0.4c0-0.3,0.6-0.1,0.7-0.4c0.1-0.3-0.1-0.5-0.5-0.5s-0.9,0.2-0.9,0.8
		c0,0.7,0.6,1.1,1.2,1.1s1.8-0.3,1.6-1.7c0.3,0,0.6,0,0.6-0.3l0.1-0.8h-0.3l0.2-9h0.2c0.3,0,0.6-0.1,0.6-0.5
		C107.5,248.3,107.2,248.2,107,248.1"/>
	<path fill="#1D1D1B" d="M102.4,229.1c0-0.1,0.1-0.1,0.1-0.1c0.1,0,0.1,0,0.1-0.1c0-0.1,0-0.1-0.1-0.2c0.1,0,0.1,0,0.1-0.1
		c0-0.1-0.1,0-0.1,0s0-0.1,0.1-0.1h0.1l0.3,0.2c0,0,0.1,0,0.1,0.1v0.1c0,0,0-0.1-0.1-0.1s-0.1,0,0,0.1c-0.1,0-0.2-0.1-0.2,0
		c0,0.1,0,0.1,0,0.2c0,0,0,0.1,0,0.2c0,0.1-0.1,0.2-0.2,0.1C102.4,229.3,102.4,229.2,102.4,229.1 M102.8,228.3
		c0,0.1-0.2,0.2-0.3,0.1c-0.1-0.1,0-0.1-0.1-0.3C102.6,228.2,102.7,228.3,102.8,228.3 M103,228.5c0,0,0.3,0.1,0.4,0.1
		c-0.2,0-0.1,0.1-0.3,0.1C103.1,228.7,103,228.6,103,228.5 M102.2,228.7L102.2,228.7L102.2,228.7 M105.9,230c1.2,0,1.8-0.4,1.8-0.8
		c0-1.4-3.3-0.5-3.3-1.3c0-0.1,0.1-0.3,0.2-0.4l0,0c1.7-0.1,1.7-1.3,2.9-1.5c-1.4-0.2-1.6,0.9-2.3,1c0.3-0.2,0.5-0.6,0.4-0.7
		c-0.3,0.4-0.9,0.4-1.3,0.9c-0.1,0.1-0.1,0.2-0.1,0.2c-0.2,0.1-0.4,0.3-0.4,0.5c0,1.3,3.4,0.4,3.4,1.3c0,0.3-0.6,0.5-1.5,0.5
		c-0.7,0-1.2-0.5-2.5-0.2c0-0.2,0.4-0.6,0.3-0.8c0.1,0,0.2-0.2,0.2-0.3c-0.1-0.1-0.2-0.1-0.3-0.1c0-0.1,0-0.1-0.1-0.2
		c0,0,0-0.2-0.1-0.2c0,0-0.1-0.1-0.3-0.2c-0.2-0.1-0.2-0.1-0.3-0.1h-0.2c-0.1,0-0.2,0-0.2,0.1c-0.1-0.1-0.1-0.1-0.2-0.1
		c-0.1,0.1-0.1,0.2,0,0.4c-0.1,0-0.2,0.3-0.4,0.3c0,0.1,0.1,0.1,0.1,0.1c-0.1,0.2-0.1,0.4-0.3,0.4l0.1,0.1c-0.1,0.3-0.2,0.6-0.2,0.8
		c-0.1-0.1-0.2-0.2-0.3-0.2c-0.2-0.1-0.2-0.2-0.1-0.4c0-0.2,0.1-0.3,0.1-0.5c0,0,0-0.1,0-0.2c0-0.1-0.2-0.2-0.3-0.2
		c0,0,0.1,0.1,0.1,0.2l-0.1,0.1c0,0.1-0.1,0.1,0,0.2l0,0c0,0,0,0,0,0.1l0,0c0-0.1-0.1-0.3-0.2-0.3h-0.1l0,0c0-0.1-0.1-0.2-0.3-0.1
		h0.1c0,0,0,0.1-0.1,0.1c0,0.1,0.1,0.2,0.2,0.2l0,0l0,0l0,0c-0.2-0.1-0.4,0-0.4,0.1v0.1c-0.1,0-0.1,0.2,0,0.3c0,0,0-0.1,0.1-0.1l0,0
		c0,0,0,0,0,0.1c0,0,0.1,0,0.2,0c0,0,0,0,0.1,0c0,0,0,0,0.1,0l0,0c-0.2,0.1-0.2,0.3,0,0.3l0,0c0,0.3-0.4,0.2-0.4-0.1
		c-0.3,0.3,0.1,0.5,0.4,0.4l0,0c0,0.1,0,0.1,0.1,0.1c0,0,0-0.1,0.1-0.1l0,0c0,0.1,0,0.2,0.1,0.2c0-0.1,0-0.1,0-0.1s0.1,0.2,0.3,0.4
		c-0.3,0.1-0.7,0.2-0.7,0.2c-0.1,0-0.5,0-0.6,0c-0.2,0.1-0.7,0.3-0.8,0.1c0-0.1,0-0.1-0.1-0.2c-0.1-0.1-0.1-0.1-0.2-0.1h-0.1
		c-0.1-0.1-0.3-0.1-0.3,0c0.1,0,0.1,0,0.2,0.1v0.1c0,0,0,0.2,0.3,0.3l0,0c0,0-0.1,0-0.2,0c-0.1-0.1-0.1-0.2-0.3-0.1c0,0,0,0-0.1,0
		l0,0c-0.1,0-0.3,0.1-0.2,0.3c0,0,0.1-0.1,0.2-0.1v0.1c0,0.2,0.1,0.3,0.4,0.1l0,0c-0.1,0.1-0.3,0.3-0.1,0.4c0,0,0,0,0.1,0l0,0
		c0,0.2,0.1,0.3,0.3,0.3c0,0-0.1-0.1-0.1-0.3h0.1c0.2-0.1,0.1-0.2,0.2-0.3l0,0c0,0.1,0,0.2,0.2,0.2s0.2-0.2,0.2-0.3l0,0
		c0.1,0,0.1,0.1,0.1,0.2l0.1-0.1c0,0.1,0,0.2-0.1,0.3c0.1,0,0.2-0.1,0.3-0.3c0,0,0,0.1,0.1,0.1l0,0c0.1,0,0.2,0,0.4,0l0,0
		c0,0.1,0,0.1,0,0.2c0,0,0-0.1,0.1-0.1c0,0,0,0.2,0.1,0.3c0-0.4,0.3-0.3,0.6-0.5l0,0l-0.1,0.1c0.1,0,0.3-0.1,0.3-0.3
		c0,0,0.1-0.1,0.2-0.2c0.1,0,0.3,0,0.3-0.1c0,0,0.1,0.2,0,0.2c0.3,0,0.6-0.3,0.7-0.4c0.6-0.1-0.4-0.6,0.9-0.5c0.1,0,0.3-0.1,0.4-0.1
		c-0.1,0.2-0.1,0.6,0.1,0.6c0.1,0,0.3,0.1,0.3,0.1l0,0c-0.1,0-0.2,0-0.3,0.1c-0.3,0.2-0.3-0.5-0.6-0.3c0,0-0.1,0-0.1,0.1
		c-0.1,0-0.3,0.2-0.3,0.3c0,0,0.1-0.1,0.2-0.1v0.1c0,0,0,0.1,0.1,0.1s0.1,0,0.1,0l0,0c0,0.1-0.4-0.1-0.3,0.3c0,0,0,0.1,0.1,0.1
		c0,0.1,0.1,0.2,0.3,0.1l-0.1-0.1h0.1c0,0,0,0,0-0.1l0,0l0,0c0,0,0,0,0,0.1v0.1c0,0.1,0.2,0.3,0.3,0.1c0,0-0.2,0-0.2-0.1h0.1v-0.1
		l0,0h0.1c0,0,0,0,0.1,0c0,0.1,0.1,0.2,0.3,0.1c0.2-0.1,0-0.3,0.2-0.3h0.1c0.2,0,0.4,0,0.5,0c0-0.1,0-0.4-0.2-0.5
		c-0.1,0,0-0.2-0.1-0.3c0.2,0.1,0.4,0.2,0.6,0.2c0.5,0,0-0.1,0.2-0.2c0.2-0.2,0.5-0.1,0.6-0.1s0.1,0,0.1,0.1c0,0.3,0,0.3,0,0.4
		c0,0.1-0.2,0-0.4,0c-0.1,0-0.2,0-0.2,0.1c-0.1,0-0.3,0.1-0.2,0.3c0,0,0.1-0.1,0.2-0.1l0,0c0,0.2,0.2,0.2,0.3,0.1c0,0,0.1,0,0,0
		c-0.1,0.1-0.3,0.2-0.1,0.3c0,0,0,0,0.1,0c0,0.1,0.1,0.2,0.1,0.2c0-0.1,0-0.1,0-0.2h0.1c0.1,0,0.1-0.2,0.2-0.3l0,0
		c0,0.1-0.1,0.3,0,0.3c0,0,0,0,0.1,0c0,0.1,0.1,0.2,0.3,0.1c0,0-0.1,0-0.1-0.1l0.1-0.1c0.1-0.3-0.1-0.3-0.1-0.4s0.2,0,0.2-0.3
		c0,0,0-0.1-0.1-0.1l0,0l0,0c0.1,0,0.1,0,0.2-0.1c-0.2,0-0.1-0.1-0.1-0.2l0,0c0.1,0,0.1-0.1,0.1-0.3c-0.1,0.1-0.3,0.2-0.3,0
		c0,0,0-0.1-0.2-0.1C106.6,230.3,106.5,230.1,105.9,230C105.9,230.1,105.8,230,105.9,230"/>
	<path fill="#1D1D1B" d="M100.4,236.4L100.4,236.4L100.4,236.4 M99.4,234.4c0-0.1,0.1-0.2,0.1-0.2c0.1,0,0.1,0,0.2-0.1
		c0-0.1-0.1-0.1-0.1-0.2c0.1,0,0.1-0.1,0.1-0.1c0-0.1-0.1,0-0.1,0s0-0.1,0.1-0.1h0.1l0.4,0.2c0,0,0.1,0,0.1,0.1c0,0.1,0,0.1,0,0.1
		s0-0.1-0.1-0.1s-0.1,0.1,0,0.1c-0.1,0-0.2-0.1-0.2,0c0,0.1,0,0.1,0,0.2c0,0,0,0.1,0,0.2s-0.1,0.2-0.3,0.1
		C99.4,234.6,99.4,234.4,99.4,234.4 M99.9,233.4c-0.1,0.1-0.2,0.2-0.3,0.1c-0.1-0.1,0-0.1-0.1-0.3C99.6,233.3,99.8,233.4,99.9,233.4
		 M100.1,233.5c0,0,0.3,0.2,0.5,0.2c-0.2,0-0.2,0.1-0.3,0.1C100.2,233.9,100.1,233.7,100.1,233.5 M98.3,235.3
		C98.2,235.2,98.2,235.2,98.3,235.3C98.3,235.2,98.3,235.2,98.3,235.3 M107.6,234.6c0-0.4-0.4-0.6-1.6-0.6s-3.9,0.4-3.9-0.2
		c0-0.3,0.5-0.3,1.1-0.3c0.1,0,0.1,0.1,0.3,0.1c1.5,0.5,3.3-0.4,4.3-0.1c-1.1-0.8-2,0-3.2-0.2c0.7,0,0.9-0.2,0.9-0.4
		c-0.5,0.3-1.5-0.2-2.2,0.2c0,0-0.1,0-0.1,0.1c-0.9,0-1.5,0-1.5,0.5c0,1.2,3.2,0.5,4.2,0.5s1.2,0.1,1.2,0.3c0,0.3-1,0.4-1.6,0.4
		c-0.9,0-3.5-0.5-5.1-0.1c0.1-0.3,0.4-0.6,0.3-0.8c0.1-0.1,0.2-0.2,0.2-0.3c-0.1-0.1-0.2-0.1-0.3-0.1c0-0.1,0-0.2-0.1-0.2
		c0,0,0-0.2-0.1-0.2s-0.2-0.2-0.3-0.2c-0.2-0.1-0.3-0.1-0.4-0.1h-0.2c-0.1,0-0.2,0-0.2,0.1c-0.1-0.1-0.2-0.1-0.3-0.1
		c-0.1,0.1-0.1,0.2,0,0.4c-0.1,0-0.3,0.4-0.4,0.3c0,0.1,0.1,0.2,0.1,0.2c-0.1,0.2-0.2,0.5-0.3,0.5c0.1,0.1,0.1,0.2,0.2,0.2
		c0,0.2,0,0.3,0,0.5l-0.3-0.1c0,0,0,0-0.1,0h-0.1h0.1l-0.1-0.1c-0.1-0.1-0.3-0.3-0.5-0.4c-0.2-0.1-0.2-0.3-0.2-0.5s0.1-0.4,0.1-0.6
		c0,0,0-0.1,0-0.2s-0.2-0.2-0.3-0.2c0,0,0.1,0.1,0.1,0.2l-0.1,0.1c0,0-0.1,0.1,0,0.2l0,0c0,0,0,0,0,0.1l0,0c0-0.1-0.1-0.4-0.2-0.4
		h-0.1l0,0c0-0.2-0.2-0.3-0.3-0.1c0,0,0.1,0,0.1,0.1c0,0-0.1,0.1-0.1,0.2c0,0.2,0.1,0.2,0.3,0.2c0,0,0,0,0.1,0c0,0,0,0,0,0.1l0,0
		c-0.3-0.1-0.4,0-0.4,0.1v0.1c-0.1,0.1-0.1,0.2,0,0.3c0-0.1,0-0.1,0.1-0.2l0,0c0,0,0,0.1,0.1,0.1c0,0,0.1,0,0.2-0.1c0,0,0,0,0.1,0
		c0,0,0,0,0.1,0.1l0,0c-0.2,0.2-0.2,0.4,0.1,0.4l0,0c0,0.3-0.5,0.3-0.4-0.1c-0.3,0.4,0.2,0.7,0.5,0.5l0,0c0,0.1,0,0.1,0.1,0.1
		c0,0,0-0.1,0.1-0.1l0,0c0,0.1,0,0.2,0.2,0.2c0-0.1,0-0.1,0-0.1c0.1,0,0.2,0.3,0.5,0.4c0.2,0.1,0.4,0.3,0.5,0.2
		c0,0.2,0.2,0.5,0.1,0.5s-0.7,0-0.8,0c-0.2,0.1-0.8,0.3-0.9,0.1c-0.2,0-0.2-0.1-0.2-0.2c-0.1-0.1-0.1-0.1-0.2-0.1h-0.1
		c-0.1-0.1-0.3-0.1-0.4,0c0.1,0,0.1,0,0.2,0.1v0.1c0,0.1,0,0.2,0.3,0.3l0,0c-0.1,0-0.1,0-0.2,0c-0.1-0.1-0.2-0.3-0.3-0.2h-0.1l0,0
		c-0.2,0-0.4,0.2-0.3,0.4c0,0,0.1-0.1,0.2-0.1v0.1c0,0.2,0.1,0.3,0.5,0.1l0,0c-0.1,0.1-0.3,0.3-0.1,0.4c0,0,0,0,0.1,0.1l0,0
		c0,0.2,0.2,0.4,0.3,0.4c0,0-0.1-0.2-0.1-0.3h0.1c0.2-0.1,0.1-0.3,0.2-0.3l0,0c0,0.1,0.1,0.3,0.3,0.3c0.2,0,0.3-0.2,0.3-0.3l0,0
		c0.1,0,0.1,0.1,0.1,0.2c0,0,0.1-0.1,0.2-0.1c0,0.1,0.1,0.2-0.1,0.4c0.1,0,0.3-0.1,0.3-0.4l0.1,0.1l0,0c0.1,0,0.2,0,0.4,0l0,0
		c0,0.1,0,0.2,0,0.2l0.1-0.1c0,0,0,0.2,0.1,0.3c0-0.5,0.3-0.3,0.7-0.5l0,0c0,0.1-0.1,0.1-0.1,0.2c0.4,0.1,1-0.5,1-0.7
		c0.2,0,0.3,0,0.3,0c1.1,0.1,0.3-0.9,2-0.6c0.1,0,0.3-0.1,0.4-0.2c-0.1,0.2-0.1,0.7,0.1,0.7c0.1,0,0.3,0.1,0.4,0.2l0,0
		c-0.1,0-0.3,0-0.3,0.1c-0.4,0.2-0.4-0.5-0.7-0.4c0,0-0.1,0-0.1,0.1c-0.1,0-0.4,0.2-0.3,0.3c0,0,0.1-0.1,0.2-0.1v0.1
		c0,0.1,0,0.1,0.1,0.1s0.1,0,0.1,0l0,0c0,0.1-0.5-0.1-0.4,0.3c0,0,0,0.1,0.1,0.1c0,0.1,0.1,0.2,0.3,0.2l-0.1-0.1h0.1c0,0,0,0,0-0.1
		l0,0l0,0c0,0,0,0,0,0.1v0.1c0,0.2,0.2,0.3,0.4,0.2c0,0-0.2,0-0.2-0.1h0.1c0,0,0-0.1,0-0.2l0,0h0.1h0.1c0,0.1,0.2,0.2,0.3,0.1
		c0.3-0.1,0-0.3,0.2-0.4h0.1c0.2,0,0.5,0,0.6,0c0-0.1,0-0.5-0.2-0.6c-0.1-0.1,0-0.2-0.1-0.4c0.2,0.1,0.4,0.2,0.7,0.2
		c0.6,0,0.7-0.1,0.9-0.2c0.3-0.2,0.6-0.1,0.7-0.1s0.1,0,0.1,0.1c-0.1,0.3,0,0.3,0,0.4s-0.3,0-0.5,0c-0.1,0-0.2,0-0.2,0.1
		c-0.1,0-0.3,0.1-0.3,0.3c0,0,0.1-0.1,0.3-0.1v0.1c0,0.2,0.2,0.3,0.4,0.1c0,0,0.1,0,0,0c-0.1,0.1-0.3,0.3-0.1,0.3c0,0,0,0,0.1,0.1
		c0,0.1,0.1,0.2,0.2,0.3c0-0.1,0-0.1,0-0.2h0.1c0.1,0,0.1-0.2,0.2-0.3l0,0c0,0.1-0.1,0.3,0,0.4h0.1c0,0.1,0.2,0.2,0.3,0.1l-0.1-0.1
		l0.1-0.1c0.1-0.3-0.2-0.3-0.2-0.4c0-0.1,0.3,0,0.3-0.3c0-0.1,0-0.1-0.1-0.2l0,0c0.1,0,0.2,0,0.2-0.1c-0.2,0-0.2-0.2-0.2-0.3l0,0
		c0.1,0,0.1-0.1,0.1-0.3c-0.1,0.1-0.3,0.2-0.3,0c0,0,0-0.2-0.2-0.1c-0.4,0-0.6,0-1.3-0.1C106.4,235.2,107.6,235,107.6,234.6"/>
	<path fill="#1D1D1B" d="M98.1,239.6c0-0.1,0.1-0.1,0.1-0.1c0.1,0,0.1,0,0.1-0.1c0-0.1,0-0.1-0.1-0.2c0.1,0,0.1-0.1,0.1-0.1
		s-0.1,0-0.2,0c0,0,0-0.1,0.1-0.1h0.1l0.4,0.2l0.1,0.1v0.1c0,0,0-0.1-0.1-0.1s-0.1,0,0,0.1c-0.1,0-0.2-0.1-0.2,0c0,0.1,0,0.1,0,0.2
		c0,0,0,0.1,0,0.2c0,0.1-0.1,0.2-0.3,0.1C98,239.9,98,239.7,98.1,239.6 M98.5,238.7c-0.1,0.1-0.2,0.2-0.3,0.1
		c-0.1-0.1,0-0.1-0.1-0.3C98.2,238.6,98.4,238.7,98.5,238.7 M98.7,238.9c0,0,0.3,0.1,0.4,0.2c-0.2,0-0.1,0.1-0.3,0.1
		C98.8,239.2,98.7,239,98.7,238.9 M107,239.8c0-0.3-0.4-0.6-1.5-0.6s-4.6,0.4-4.6-0.2c0-0.4,1.2-0.2,2.1-0.2c0,0.1,0.1,0.1,0.3,0.2
		c1.5,0.4,3-0.6,4-0.2c-0.8-0.7-1.9,0.1-3-0.1c0.6,0,1.3-0.1,1.4-0.3c-0.5,0.3-1.9-0.2-2.5,0.2c0,0-0.1,0-0.1,0.1
		c-1.1,0-2.4-0.1-2.4,0.5c0,1.1,4,0.5,4.9,0.5c1,0,1.2,0.1,1.2,0.3c0,0.3-1,0.3-1.5,0.3c-0.9,0-4.6-0.5-6.1,0
		c0.1-0.3,0.4-0.6,0.3-0.8c0.1-0.1,0.2-0.2,0.2-0.3c-0.1-0.1-0.2-0.1-0.3-0.1c0-0.1,0-0.1-0.1-0.2c0,0,0-0.2-0.1-0.2
		s-0.2-0.2-0.3-0.2c-0.2-0.1-0.3-0.1-0.3-0.1h-0.2c-0.1,0-0.2,0-0.2,0.1c-0.1-0.1-0.1-0.1-0.3-0.1c-0.1,0.1-0.1,0.2,0,0.4
		c-0.1,0-0.3,0.3-0.4,0.3c0,0.1,0.1,0.1,0.1,0.1c-0.1,0.2-0.2,0.4-0.3,0.5c0,0.1,0.1,0.1,0.1,0.1c0,0.1,0,0.2,0,0.4l-0.1-0.1
		c-0.1,0-0.2,0-0.2,0s-0.1,0-0.2,0c-0.2,0-0.3-0.3-0.6-0.5c-0.3-0.4-0.3-0.5-0.3-0.8c0-0.2,0.1-0.4,0.1-0.6c0,0,0-0.1-0.1-0.2
		c0-0.1-0.2-0.2-0.3-0.2c0.1,0,0.1,0.1,0.1,0.2l-0.1,0.1c0,0-0.1,0.1,0,0.2l0,0c0,0,0,0,0,0.1l0,0c0-0.1-0.1-0.3-0.2-0.3h-0.1l0,0
		c0-0.1-0.2-0.3-0.3-0.1c0,0,0.1,0,0.1,0.1c0,0.1,0,0.1,0,0.2c0,0.2,0.1,0.2,0.3,0.2l0,0c0,0,0,0,0,0.1l0,0c-0.3-0.1-0.4,0-0.4,0.1
		v0.1c-0.1,0.1-0.1,0.2,0,0.3c0,0,0-0.1,0.1-0.2l0,0l0.1,0.1c0,0,0.1,0,0.1-0.1c0,0,0,0,0.1,0c0,0,0,0,0.1,0l0,0
		c-0.2,0.2-0.1,0.3,0.1,0.4l0,0c0,0.3-0.4,0.3-0.4-0.1c-0.2,0.4,0.2,0.6,0.5,0.5l0,0c0,0.1,0,0.1,0.1,0.1c0,0,0-0.1,0.1-0.1l0,0
		c0,0.1,0,0.2,0.2,0.2c0-0.1,0-0.1,0-0.1c0.1,0,0.3,0.4,0.7,0.7c0.1,0,0.2,0,0.3-0.1c0,0,0,0.1,0.1,0.1c0,0.2,0.1,0.5,0.1,0.5
		c-0.1,0-0.8,0-0.9,0c-0.2,0.1-0.7,0.3-0.9,0.1c0-0.1,0-0.1-0.1-0.3c0-0.1-0.1-0.1-0.2-0.1h-0.1c-0.1-0.1-0.3-0.1-0.4,0
		c0.1,0,0.1,0,0.2,0.1c0,0,0,0.1-0.1,0.1c0,0.1,0,0.2,0.3,0.3l0,0c0,0-0.1,0-0.2,0c-0.1-0.1-0.1-0.2-0.3-0.2h-0.1l0,0
		c-0.1,0-0.4,0.2-0.3,0.3c0,0,0.1-0.1,0.2-0.2v0.1c0,0.2,0.1,0.3,0.5,0.1l0,0c-0.1,0.1-0.3,0.3-0.1,0.4c0,0,0,0,0.1,0.1l0,0
		c0,0.2,0.2,0.3,0.3,0.3c0,0-0.1-0.1-0.1-0.3h0.1c0.2-0.1,0.1-0.3,0.2-0.3l0,0c0,0.1,0.1,0.3,0.3,0.2c0.2,0,0.3-0.2,0.3-0.3l0,0
		c0.1,0,0.1,0.1,0.1,0.2l0.1-0.1c0,0.1,0,0.2-0.1,0.3c0.1,0,0.3-0.1,0.3-0.3l0.1,0.1l0,0c0.1,0,0.2,0,0.4,0l0,0c0,0.1,0,0.2,0,0.2
		s0-0.1,0.1-0.1c0,0,0,0.2,0.1,0.3c0.1-0.5,0.6-0.2,1-0.5l0,0c0,0-0.1,0.1-0.1,0.2c0.1,0,0.3-0.1,0.4-0.2l0,0l0.5-0.2v-0.1
		c0.1,0,0.1,0,0.2,0l0,0c0.3,0,0.3-0.2,0.4-0.2c1.8,0.3,0.8-0.8,3-0.6c0.1,0,0.1,0,0.2-0.1c-0.1,0.2-0.1,0.6,0.1,0.6
		c0.1,0,0.3,0.1,0.4,0.2l0,0c-0.1,0-0.3,0-0.3,0.1c-0.3,0.2-0.4-0.5-0.7-0.4l-0.1,0.1c-0.1,0-0.3,0.2-0.3,0.3c0,0,0.1-0.1,0.2-0.1
		v0.1c0,0.1,0,0.1,0.1,0.1s0.1,0,0.1,0l0,0c0,0.1-0.4-0.1-0.4,0.3c0,0,0,0.1,0.1,0.1c0,0.1,0.1,0.2,0.3,0.2l-0.1-0.1h0.1
		c0,0,0,0,0-0.1l0,0l0,0c0,0,0,0,0,0.1v0.1c0,0.1,0.2,0.3,0.4,0.1c0,0-0.2,0-0.2-0.1h0.1v-0.1l0,0h0.1h0.1c0,0.1,0.1,0.2,0.3,0.1
		c0.2-0.1,0-0.3,0.2-0.3h0.1c0.2,0,0.5,0,0.5-0.1c0.1-0.1,0-0.4-0.2-0.5c-0.1-0.1,0-0.2-0.1-0.4c0.2,0.1,0.4,0.2,0.7,0.2
		c0.5,0,0.7-0.1,0.9-0.2c0.3-0.2,0.5-0.1,0.6-0.1s0.1,0,0.1,0.1c-0.1,0.3,0,0.3,0,0.4s-0.3,0-0.4,0s-0.2,0.1-0.2,0.1
		c-0.1,0-0.3,0.1-0.3,0.3c0,0,0.1-0.1,0.2-0.1c0,0,0,0,0,0.1c0,0.2,0.2,0.3,0.3,0.1c0,0,0.1,0,0,0c-0.1,0.1-0.3,0.3-0.1,0.3
		c0,0,0,0,0.1,0c0,0.1,0.1,0.2,0.2,0.2c0,0,0-0.1,0-0.2h0.1c0.1,0,0.1-0.2,0.2-0.3l0,0c0,0.1-0.1,0.3,0,0.3h0.1
		c0,0.1,0.1,0.2,0.3,0.1c0,0-0.1,0-0.1-0.1l0.1-0.1c0.1-0.3-0.2-0.3-0.2-0.4s0.3,0,0.3-0.3c0,0,0-0.1-0.1-0.2l0,0l0,0
		c0.1,0,0.2,0,0.2-0.1c-0.2,0-0.1-0.2-0.2-0.3l0,0c0.1,0,0.1-0.1,0.1-0.3c-0.1,0.1-0.3,0.2-0.3,0c0,0,0-0.2-0.2-0.1
		c-0.3,0-0.6,0-1.2-0.1C105.9,240.4,107,240.2,107,239.8"/>
	<path fill="#1D1D1B" d="M115.8,248.9L115.8,248.9L115.8,248.9 M114.1,246.3L114.1,246.3L114.1,246.3 M114,246.7L114,246.7
		L114,246.7z M114.3,247.2C114.3,247.1,114.4,247.1,114.3,247.2c0.2-0.1,0.2-0.1,0.2-0.2s0-0.1-0.1-0.2c0.1,0,0.1-0.1,0.1-0.1h-0.1
		c0,0,0-0.1,0.1-0.1h0.1l0.4,0.2c0,0,0.1,0,0.1,0.1v0.1c0,0,0-0.1-0.1-0.1c0,0,0,0,0,0.1c-0.1,0-0.2-0.1-0.2,0s0,0.1,0,0.2
		c0,0,0,0.1,0,0.2s-0.1,0.2-0.3,0.1C114.3,247.4,114.3,247.3,114.3,247.2 M114.7,246.3c-0.1,0.1-0.2,0.2-0.3,0.1
		c-0.1-0.1,0-0.1-0.1-0.3C114.4,246.1,114.7,246.3,114.7,246.3 M115,246.4c0,0,0.3,0.1,0.4,0.2c-0.2,0.1-0.2,0.1-0.3,0.1
		C115,246.7,115,246.5,115,246.4 M123.2,248.5L123.2,248.5c0.1-0.1,0.2-0.2,0.1-0.3c-0.1,0.1-0.3,0.2-0.3,0c0,0,0-0.1-0.2-0.1
		c-0.3,0-0.7,0-1.3-0.1c0,0-0.1,0,0,0c0.6,0,1.8-0.2,1.8-0.6c0-0.3-0.4-0.6-1.5-0.6s-4.6,0.4-4.6-0.2c0-0.4,1.2-0.2,2-0.2
		c0,0.1,0.1,0.1,0.3,0.2c1.5,0.4,3.1-0.7,4-0.4c-1.1-0.4-1.9,0.3-3,0.1c0.6,0,1.3-0.1,1.4-0.3c-0.5,0.3-1.9-0.2-2.5,0.2
		c0,0-0.1,0-0.1,0.1c-1.1,0-2.4-0.1-2.4,0.5c0,1.1,4,0.5,4.9,0.5c1,0,1.2,0.1,1.2,0.3c0,0.3-0.9,0.3-1.5,0.3c-0.9,0-4.6-0.5-6.1-0.1
		c0.1-0.3,0.4-0.6,0.3-0.8c0.1-0.1,0.2-0.2,0.2-0.3c-0.1-0.1-0.2-0.1-0.3-0.1c0-0.1,0-0.1-0.1-0.2c0,0,0-0.2-0.1-0.2
		c0-0.1-0.2-0.2-0.3-0.2c-0.2-0.1-0.3-0.1-0.3-0.1h-0.2c-0.1,0-0.2,0-0.2,0.1c-0.1-0.1-0.2-0.1-0.3-0.1c0,0.1-0.1,0.2,0,0.4
		c-0.1,0-0.3,0.3-0.4,0.3c0,0.1,0.1,0.1,0.1,0.2c-0.1,0.2-0.2,0.4-0.3,0.4c0.1,0.1,0.1,0.2,0.2,0.2c0,0.1,0,0.2,0,0.3l-0.2-0.1
		c-0.1,0-0.2,0-0.2,0s-0.1,0-0.2,0c-0.2,0-0.3-0.3-0.6-0.5c-0.2-0.1-0.2-0.2-0.2-0.5c0-0.2,0.1-0.4,0.1-0.6c0,0,0-0.1-0.1-0.2
		c0-0.1-0.2-0.2-0.3-0.2c0,0,0.1,0.1,0.1,0.2l-0.1,0.1c0,0.1,0,0.1,0,0.2l0,0c0,0,0,0,0,0.1l0,0c0-0.1-0.1-0.3-0.2-0.4h-0.1l0,0
		c0-0.1-0.2-0.3-0.3-0.1c0,0,0.1,0,0.1,0.1c0,0.1,0,0.1,0,0.2c0,0.1,0.1,0.2,0.3,0.2h0.1c0,0,0,0,0,0.1l0,0c-0.3-0.1-0.4,0-0.4,0.1
		v0.1c-0.1,0.1-0.1,0.2,0.1,0.3c0,0,0-0.1,0.1-0.2l0,0h0.1c0,0,0.1,0,0.2,0c0,0,0,0,0.1,0c0,0,0,0,0.1,0l0,0
		c-0.2,0.2-0.1,0.3,0.1,0.4c0,0,0,0,0,0.1c0,0.3-0.4,0.3-0.4-0.1c-0.2,0.4,0.2,0.6,0.5,0.5l0,0l0.1,0.1c0,0,0-0.1,0.1-0.1l0,0
		c0,0.1,0,0.2,0.2,0.2c0-0.1,0-0.1,0-0.1c0.1,0,0.3,0.5,0.7,0.7c0,0,0.2-0.1,0.3-0.2c0,0.1,0.1,0.2,0.2,0.2h0.1
		c0,0.2,0.2,0.4,0.2,0.4c-0.1,0-0.5-0.1-0.6,0c-0.2,0.1-0.7,0.3-0.9,0.1c-0.1-0.1,0-0.1-0.1-0.3c0-0.1-0.1-0.1-0.2-0.1h-0.1
		c-0.1-0.1-0.3-0.1-0.4,0c0.1,0,0.1,0,0.2,0.1v0.1c0,0.1,0,0.2,0.3,0.3c0,0,0.1,0,0,0c0,0-0.1,0-0.2,0c-0.1-0.1-0.2-0.2-0.3-0.2
		c0,0-0.1,0-0.1,0.1l0,0c-0.1,0-0.4,0.2-0.3,0.3c0,0,0.1-0.1,0.2-0.2v0.1c0,0.2,0.1,0.3,0.5,0.1l0,0c-0.1,0.1-0.3,0.3-0.1,0.4
		c0,0,0,0,0.1,0.1l0,0c0,0.2,0.2,0.3,0.3,0.3c0,0-0.1-0.1-0.1-0.3h0.1c0.2-0.1,0.1-0.3,0.2-0.3l0,0c0,0.1,0.1,0.3,0.3,0.2
		c0.2,0,0.3-0.2,0.3-0.3l0,0c0.1,0,0.1,0.1,0.1,0.2c0,0,0.1-0.1,0.2-0.1c0,0.1,0,0.2-0.1,0.3c0.1,0,0.3-0.1,0.3-0.3l0.1,0.1l0,0
		c0.1,0,0.2,0,0.4,0l0,0c0,0.1,0,0.2,0,0.2s0-0.1,0.1-0.1c0,0,0,0.2,0.1,0.3c0-0.5,0.3-0.3,0.6-0.5l0,0c0,0-0.1,0.1-0.1,0.2
		c0.1,0.1,0.6-0.2,0.6-0.4c0,0,0.2-0.1,0.3-0.1c0.3,0,0.3-0.2,0.4-0.2c1.9,0.3,0.8-0.8,3-0.6c0.1,0,0.1-0.1,0.2-0.2
		c-0.1,0.2-0.1,0.6,0.1,0.7c0.1,0,0.3,0.1,0.4,0.1l0,0c-0.1,0-0.3,0-0.3,0.1c-0.3,0.2-0.3-0.5-0.7-0.4c0,0-0.1,0-0.1,0.1
		c-0.2,0-0.3,0.2-0.3,0.3c0,0,0.1-0.1,0.2-0.1v0.1c0,0.1,0,0.1,0.1,0.1s0.1,0,0.1,0l0,0c0,0.1-0.4-0.1-0.4,0.3c0,0,0,0.1,0.1,0.1
		c0,0.1,0.1,0.2,0.3,0.2l-0.1-0.1h0.1c0,0,0,0,0-0.1l0,0l0,0v0.1v0.1c0,0.1,0.2,0.3,0.4,0.1c-0.1,0-0.2,0-0.2-0.1h0.1v-0.1l0,0h0.1
		h0.1c0,0.1,0.1,0.2,0.3,0.1c0.2-0.1,0-0.3,0.2-0.3c0,0,0.1,0,0.2,0c0.2,0,0.5,0,0.5-0.1c0-0.1,0-0.4-0.2-0.6
		c-0.1-0.1,0-0.2-0.1-0.4c0.2,0.1,0.4,0.2,0.7,0.2c0.5,0,0.7-0.1,0.9-0.2c0.3-0.2,0.6-0.1,0.6-0.1c0.1,0,0.1,0,0.1,0.1
		c-0.1,0.3,0,0.3-0.1,0.4s-0.3,0-0.4,0s-0.2,0.1-0.2,0.1c-0.1,0-0.3,0.2-0.3,0.3c0,0,0.1-0.1,0.3-0.1l0,0c0,0.2,0.2,0.3,0.3,0.1
		c0,0,0.1,0,0,0c-0.1,0.1-0.3,0.3-0.2,0.3c0,0,0,0,0.1,0c0,0.1,0,0.2,0.2,0.2c0-0.1,0-0.1,0-0.2h0.1c0.1,0,0.1-0.2,0.2-0.3l0,0
		c0,0.1-0.1,0.3,0,0.3h0.1c0,0.1,0.2,0.2,0.3,0.1l-0.1-0.1l0.1-0.1c0.1-0.3-0.1-0.3-0.1-0.4c0-0.1,0.3,0,0.3-0.3c0,0,0-0.1-0.1-0.2
		l0,0c0.1,0,0.2,0,0.2-0.1C123.1,248.8,123.2,248.6,123.2,248.5"/>
	<path fill="#1D1D1B" d="M115,251.7c-0.1,0-0.2-0.2-0.1-0.3c0,0.1,0.3,0.1,0.4,0.2C115.1,251.7,115.1,251.7,115,251.7 M114.8,252
		c0,0,0-0.1-0.1-0.1S114.7,252,114.8,252c-0.2,0-0.3-0.1-0.3,0s0,0.1,0,0.2c0,0,0,0.1,0,0.2s-0.1,0.2-0.2,0.1
		c-0.1-0.1-0.1-0.2-0.1-0.3c0-0.1,0.1-0.1,0.1-0.1c0.1,0,0.1,0,0.1-0.1c0-0.1,0-0.1-0.1-0.2c0.1,0,0.1-0.1,0.1-0.1h-0.1
		c0,0,0-0.1,0.1-0.1h0.1l0.3,0.2c0,0,0.1,0,0.1,0.1C114.8,251.9,114.8,252,114.8,252 M114.6,251.3c-0.1,0.1-0.2,0.2-0.3,0.1
		c-0.1-0.1,0-0.1-0.1-0.3C114.3,251.2,114.5,251.3,114.6,251.3 M118.1,251.4c0,0.1,0.1,0.1,0.3,0.2c1.4,0.4,3-0.6,3.8-0.4
		c-1.1-0.4-1.8,0.3-2.8,0.1c0.6,0,1.3-0.1,1.3-0.3c-0.5,0.3-1.8-0.2-2.4,0.2c0,0-0.1,0-0.1,0.1c-0.8,0-1.4,0-1.4,0.5
		c0,1.1,2.9,0.4,3.8,0.4s0.8,0.1,0.8,0.3c0,0.3-1,0.3-1.6,0.3c-0.8,0-3.1-0.4-4.6-0.1c0.1-0.2,0.4-0.5,0.2-0.7
		c0.1,0,0.2-0.2,0.2-0.3c-0.1-0.1-0.2-0.1-0.3-0.1c0-0.1,0-0.1-0.1-0.2c0,0,0-0.2-0.1-0.2c-0.1-0.1-0.2-0.1-0.3-0.2
		c-0.2-0.1-0.3-0.1-0.3-0.1h-0.2c-0.1,0-0.2,0-0.2,0.1c-0.1-0.1-0.2-0.1-0.3-0.1c-0.1,0.1-0.1,0.2,0,0.4c-0.1,0-0.3,0.3-0.4,0.3
		c0,0.1,0.1,0.1,0.1,0.1c-0.1,0.2-0.2,0.4-0.3,0.4c0,0.1,0.1,0.1,0.1,0.1c0,0.1-0.1,0.3-0.1,0.4h-0.1l0,0c-0.2,0-0.3,0-0.6-0.2
		c-0.2-0.1-0.2-0.2-0.2-0.4s0.1-0.4,0.1-0.5c0,0,0-0.1,0-0.2s-0.2-0.2-0.3-0.2c0,0,0.1,0.1,0.1,0.2l-0.1,0.1c0,0.1-0.1,0.1,0,0.2
		l0,0c0,0,0,0,0,0.1l0,0c0-0.1-0.1-0.3-0.2-0.3h-0.1l0,0c0-0.1-0.1-0.3-0.3-0.1c0,0,0.1,0,0.1,0.1s0,0.1,0,0.1
		c0,0.1,0.1,0.2,0.3,0.2l0,0l0,0l0,0c-0.3-0.1-0.3,0-0.4,0.1v0.1c-0.1,0.1-0.1,0.2,0,0.3v-0.1l0,0c0,0,0.1,0,0.1,0.1h0.1l0,0h0.1
		l0,0c-0.2,0.2-0.1,0.3,0.1,0.4c0,0,0,0,0,0.1c0,0.3-0.4,0.2-0.4-0.1c-0.2,0.4,0.2,0.6,0.5,0.4l0,0c0,0.1,0,0.1,0.1,0.1
		c0,0,0-0.1,0.1-0.1l0,0c0,0.1,0,0.2,0.1,0.2c0-0.1,0-0.1,0-0.1c0.1,0,0.1-0.1,0.4,0.1c0,0.1,0.1,0.1,0.1,0.1h0.3c0,0.2,0,0.5,0,0.5
		c-0.1,0-0.5,0-0.6,0c-0.2,0.1-0.7,0.3-0.8,0.1c0-0.1,0-0.2-0.1-0.3c0-0.1-0.1-0.1-0.2-0.1h-0.1c-0.1-0.1-0.3-0.1-0.3,0
		c0.1,0,0.1,0,0.2,0.1v0.1c0,0.1,0,0.2,0.3,0.3l0,0c0,0-0.1,0-0.2,0c-0.1-0.1-0.1-0.2-0.3-0.1h-0.1l0,0c-0.1,0-0.3,0.2-0.3,0.3
		c0,0,0.1-0.1,0.2-0.1v0.1c0,0.2,0.1,0.3,0.4,0.1l0,0c-0.1,0.1-0.3,0.3-0.1,0.4c0,0,0,0,0.1,0.1l0,0c0,0.2,0.2,0.3,0.3,0.3
		c0,0-0.1-0.1-0.1-0.3h0.1c0.2-0.1,0.1-0.3,0.2-0.3l0,0c0,0.1,0,0.3,0.2,0.2c0.2,0,0.3-0.2,0.2-0.3l0,0c0.1,0,0.1,0.1,0.1,0.2
		l0.1-0.1c0,0.1,0,0.2-0.1,0.3c0.1,0,0.3-0.1,0.3-0.3l0.1,0.1l0,0c0,0,0.2,0,0.4,0l0,0c0,0.1,0,0.2,0,0.2s0-0.1,0.1-0.1
		c0,0,0,0.2,0.1,0.3c0-0.5,0.4-0.4,0.7-0.6l0,0l-0.1,0.1c0.3,0.2,0.7-0.2,0.8-0.5l0.1-0.1v0.1c0.3,0,0.3-0.2,0.4-0.2
		c0.9,0.1,0.2-0.8,1.7-0.5c0.1,0,0.3-0.1,0.4-0.2c-0.1,0.2-0.1,0.6,0.1,0.6c0.1,0,0.3,0.1,0.4,0.2l0,0c-0.1,0-0.3,0-0.3,0.1
		c-0.3,0.2-0.3-0.5-0.7-0.3c0,0-0.1,0-0.1,0.1c-0.1,0-0.3,0.2-0.3,0.3c0,0,0.1-0.1,0.2-0.1v0.1c0,0,0,0.1,0.1,0.1s0.1,0,0.1,0l0,0
		c0,0.1-0.4-0.1-0.3,0.3c0,0,0,0.1,0.1,0.1c0,0.1,0.1,0.2,0.3,0.1l-0.1-0.1h0.1c0,0,0,0,0-0.1l0,0l0,0c0,0,0,0,0,0.1v0.1
		c0,0.1,0.2,0.3,0.4,0.1c0,0-0.2,0-0.2-0.1h0.1v-0.1l0,0h0.1h0.1c0,0.1,0.1,0.1,0.3,0.1c0.2-0.1,0-0.3,0.2-0.3h0.1
		c0.2,0,0.4,0,0.5-0.1s0-0.4-0.2-0.5c-0.1,0,0-0.2-0.1-0.4c0.2,0.1,0.4,0.2,0.7,0.2c0.5,0,0.7-0.1,1-0.2c0.3-0.2,0.5-0.1,0.6-0.1
		s0.1,0,0.1,0.1c-0.1,0.3,0,0.3-0.1,0.4s-0.3,0-0.4,0s-0.2,0.1-0.2,0.1c-0.1,0-0.3,0.1-0.3,0.3c0,0,0.1-0.1,0.3-0.1v0.1
		c0,0.2,0.2,0.2,0.3,0.1c0,0,0.1,0,0,0c-0.1,0.1-0.3,0.2-0.2,0.3h0.1c0,0.1,0,0.2,0.1,0.2c0,0,0-0.1,0.1-0.2h0.1
		c0.1,0,0.1-0.2,0.3-0.3l0,0c-0.1,0.1-0.1,0.3,0,0.3c0,0,0,0,0.1,0c0,0.1,0.1,0.2,0.3,0.1l-0.1-0.1l0.1-0.1c0.1-0.3-0.1-0.3-0.1-0.4
		s0.3,0,0.3-0.3c0-0.1,0-0.1-0.1-0.2l0,0l0,0c0.1,0,0.1,0,0.2-0.1c-0.2,0-0.1-0.2-0.1-0.3l0,0c0.1,0,0.2-0.1,0.2-0.3
		c-0.1,0.1-0.3,0.2-0.3,0c0,0,0-0.1-0.2-0.1c-0.3,0-0.8,0-1.4-0.1c0,0-0.1,0,0-0.1c0.6,0,1.9-0.1,1.9-0.5c0-0.3-0.1-0.5-1.1-0.5
		c-1.1,0-3.5,0.4-3.5-0.2C117,251.3,117.5,251.4,118.1,251.4"/>
	<path fill="#1D1D1B" d="M113.7,257.2c0-0.1,0.1-0.1,0.1-0.1c0.1,0,0.1,0,0.1-0.1s0-0.1-0.1-0.2c0.1,0,0.1-0.1,0.1-0.1h-0.1
		c0,0,0-0.1,0.1-0.1h0.1l0.3,0.2c0,0,0.1,0,0.1,0.1v0.1c0,0,0-0.1-0.1-0.1s-0.1,0,0,0.1c-0.1,0-0.2-0.1-0.2,0s0,0.1,0,0.2
		c0,0,0,0.1,0,0.2s-0.1,0.2-0.2,0.1C113.7,257.4,113.7,257.3,113.7,257.2 M114.1,256.4c-0.1,0.1-0.2,0.2-0.3,0.1
		c-0.1-0.1,0-0.1-0.1-0.3C113.8,256.3,114,256.4,114.1,256.4 M114.3,256.5c0,0,0.3,0.1,0.4,0.2c-0.2,0-0.1,0.1-0.3,0.1
		C114.4,256.8,114.3,256.6,114.3,256.5 M116.9,256.4c0,0.1,0.1,0.1,0.3,0.2c1.4,0.4,3-0.6,3.8-0.4c-1.1-0.4-1.8,0.3-2.8,0.1
		c0.6,0,1.3-0.1,1.3-0.3c-0.5,0.3-1.8-0.2-2.4,0.1l-0.1,0.1c-0.4,0.1-0.8,0.3-0.8,0.6c0,0.9,3.6,0.2,3.6,0.5s-0.7,0.5-1.6,0.5
		c-0.7,0-1.9-0.5-3.5-0.1l0,0c0.1-0.3,0.4-0.7,0.3-0.8c0.1,0,0.2-0.1,0.2-0.3c-0.1-0.1-0.2-0.1-0.2-0.1c0-0.1,0-0.1-0.1-0.2
		c0,0,0-0.2-0.1-0.2c0,0-0.1-0.1-0.3-0.2c-0.2-0.1-0.3-0.1-0.3-0.1H114c-0.1,0-0.2,0-0.2,0.1c-0.1,0-0.1-0.1-0.2-0.1
		c-0.1,0.1-0.1,0.2,0,0.4c-0.1,0-0.3,0.3-0.4,0.3c0,0.1,0.1,0.1,0.1,0.1c-0.1,0.2-0.1,0.4-0.3,0.4c0,0.1,0.1,0.1,0.1,0.1
		c-0.1,0.3-0.1,0.6-0.1,0.9c-0.2-0.2-0.5-0.7-0.8-0.9c-0.2-0.1-0.2-0.2-0.2-0.4c0-0.2,0.1-0.3,0.1-0.5c0,0,0-0.1,0-0.2
		s-0.2-0.2-0.3-0.2c0,0,0.1,0.1,0.1,0.2l-0.1,0.1c0,0-0.1,0.1,0,0.2l0,0c0,0,0,0,0,0.1l0,0c0-0.1-0.1-0.3-0.2-0.3h-0.1l0,0
		c0-0.1-0.1-0.2-0.3-0.1c0,0,0.1,0,0.1,0.1v0.1c0,0.1,0.1,0.2,0.2,0.2l0,0l0,0l0,0c-0.2-0.1-0.3,0-0.3,0.1v0.1c-0.1,0-0.1,0.2,0,0.3
		v-0.1l0,0l0.1,0.1c0,0,0,0,0.1,0l0,0c0,0,0,0,0.1,0l0,0c-0.2,0.2-0.1,0.3,0.1,0.3l0,0c0,0.3-0.4,0.2-0.4,0
		c-0.2,0.3,0.2,0.6,0.4,0.4l0,0c0,0,0,0.1,0.1,0.1c0,0,0-0.1,0.1-0.1l0,0c0,0.1,0,0.2,0.1,0.2c0-0.1,0-0.1,0-0.1
		c0.1,0,0,0.4,0.4,0.7c0.1,0.2,0.3,0.4,0.5,0.4c0.1,0.2,0.2,0.3,0.1,0.3s-0.6-0.1-0.7,0c-0.1,0.1-0.3,0.1-0.5,0.2l0,0l0,0
		c-0.1,0-0.3,0-0.3-0.1s0-0.1-0.1-0.2c0-0.1-0.1-0.1-0.2-0.1H111c-0.1-0.1-0.3-0.1-0.3,0c0.1,0,0.1,0,0.2,0.1v0.1
		c0,0.1,0,0.2,0.3,0.3c0,0,0.1,0,0,0c0,0-0.1,0-0.2,0c-0.1-0.1-0.1-0.2-0.3-0.1c0,0,0,0-0.1,0l0,0c-0.1,0-0.3,0.1-0.2,0.3
		c0,0,0.1-0.1,0.2-0.1v0.1c0,0.2,0.1,0.3,0.4,0.1l0,0c-0.1,0.1-0.3,0.3-0.1,0.4c0,0,0,0,0.1,0l0,0c0,0.2,0.2,0.3,0.3,0.3
		c0,0-0.1-0.1-0.1-0.3h0.1c0.1,0,0.1-0.2,0.2-0.3l0,0c0,0.1,0.1,0.2,0.2,0.2c0.2,0,0.2-0.2,0.2-0.3l0,0c0.1,0,0.1,0.1,0.1,0.2
		l0.1-0.1c0,0.1,0,0.2-0.1,0.3c0.1,0,0.2-0.1,0.3-0.3l0.1,0.1l0,0c0.1,0,0.2,0,0.4,0l0,0c0,0.1,0,0.1,0,0.2c0,0,0-0.1,0.1-0.1
		s0,0.2,0.1,0.3c0-0.4,0.3-0.3,0.6-0.5l0,0c0,0-0.1,0.1-0.1,0.2c0.1,0,0.4-0.1,0.4-0.3c0-0.1,0.2-0.3,0.3-0.8h0.1
		c0.4,0,0.5-0.3,0.9-0.3c-0.1,0.1-0.1,0.4-0.1,0.5c0,0.2,0.3,0.4,0.3,0.5l0,0c-0.1,0-0.2,0-0.3,0.1c-0.3,0.2-0.3-0.5-0.6-0.3
		c0,0-0.1,0-0.1,0.1c-0.1,0-0.3,0.2-0.3,0.3c0,0,0.1-0.1,0.2-0.1v0.1c0,0.1,0,0.1,0.1,0.1s0.1,0,0.1,0l0,0c0,0.1-0.4-0.1-0.3,0.3
		v0.1c0,0.1,0.1,0.2,0.3,0.1l-0.1-0.1h0.1c0,0,0,0,0-0.1l0,0l0,0c0,0,0,0,0,0.1v0.1c0,0.1,0.2,0.3,0.3,0.1c0,0-0.2,0-0.2-0.1h0.1
		v-0.1l0,0h0.1c0,0,0,0,0.1,0c0,0.1,0.1,0.1,0.3,0.1c0.2-0.1,0-0.3,0.2-0.3h0.1c0.2,0,0.3,0.1,0.4,0c0-0.1,0-0.4-0.2-0.5
		c-0.1,0,0.2-0.7-0.4-1.1c0.2,0.1,1,0.2,1.2,0c0.2,0,0.5,0.2,0.5,0.3c0,0.1,0.1,0.1,0,0.1c-0.2,0.1-0.2,0.2-0.3,0.2l0,0
		c-0.1-0.1-0.1-0.2-0.2-0.2s-0.2,0-0.2,0c-0.1,0-0.3,0-0.3,0.1c0.1,0,0.2,0,0.2,0l0,0c0,0,0,0.1,0.1,0.1l0,0l0,0
		c-0.1,0-0.4,0-0.3,0.1c0,0,0,0,0,0.1c-0.1,0.1-0.1,0.2,0,0.3c0,0,0-0.1,0.2-0.1v0.1c0.1,0.1,0.2-0.1,0.3-0.1l0,0
		c-0.1,0.1-0.2,0.1-0.2,0.2v0.1c0,0.1,0,0.2,0.1,0.3c0,0,0-0.1,0-0.2h0.1c0.2-0.1,0.1-0.3,0.2-0.4s0.2,0.1,0.4,0c0,0,0.1-0.1,0-0.2
		l0,0c0,0,0.1,0.1,0.2,0.1c-0.1-0.1,0-0.2,0.1-0.3l0,0c0.1,0,0.2,0,0.2-0.1c-0.1,0-0.4-0.1-0.2-0.2c0.2-0.1,0.3-0.2,0.2-0.3
		c-0.2-0.2-0.6-0.3-0.6-0.5c0.1,0,0.3,0,0.3,0c1.2,0,2-0.3,2-0.7c0-0.8-3.6,0.1-3.6-0.5C116.4,256.6,116.7,256.5,116.9,256.4"/>
	<path fill="#1D1D1B" d="M58.7,193.8c0-0.5-0.4-0.9-0.9-0.9s-0.9,0.4-0.9,0.9s0.4,0.9,0.9,0.9C58.3,194.6,58.7,194.2,58.7,193.8"/>
	<path fill="#1D1D1B" d="M58.4,191.4c0-0.5-0.4-0.9-0.9-0.9s-0.9,0.4-0.9,0.9s0.4,0.9,0.9,0.9S58.4,191.9,58.4,191.4"/>
	<path fill="#1D1D1B" d="M58.9,190.4c0.5,0,0.9-0.4,0.9-0.9s-0.4-0.9-0.9-0.9S58,189,58,189.5C58.1,190,58.5,190.4,58.9,190.4"/>
	<path fill="#1D1D1B" d="M61.2,190.3c0.5,0,0.9-0.4,0.9-0.9s-0.4-0.9-0.9-0.9s-0.9,0.4-0.9,0.9C60.4,189.9,60.8,190.3,61.2,190.3"/>
	<path fill="#1D1D1B" d="M71.1,188.7c0.3,0.3,0.9,0.3,1.2,0c0.3-0.3,0.3-0.9,0-1.2s-0.9-0.3-1.2,0S70.8,188.3,71.1,188.7"/>
	<path fill="#1D1D1B" d="M71,186.8c0.3-0.3,0.3-0.9,0-1.2c-0.3-0.3-0.9-0.3-1.2,0c-0.3,0.3-0.3,0.9,0,1.2
		C70.1,187.1,70.6,187.1,71,186.8"/>
	<path fill="#1D1D1B" d="M68.6,186.4c0.3-0.3,0.3-0.9,0-1.2s-0.9-0.3-1.2,0c-0.3,0.3-0.3,0.9,0,1.2
		C67.8,186.8,68.3,186.8,68.6,186.4"/>
	<path fill="#1D1D1B" d="M66.7,187.9c0.3-0.3,0.3-0.9,0-1.2s-0.9-0.3-1.2,0c-0.3,0.3-0.3,0.9,0,1.2
		C65.8,188.2,66.3,188.2,66.7,187.9"/>
	<path fill="#1D1D1B" d="M61.1,186.7l0.7,1.5l0.9-1.1h0.1c0.1,0.5,0.1,1.4,0.1,1.9c0,0.6,0.5,1.1,1.1,1.1c0.6,0,1.1-0.5,1.1-1.1
		c0-0.4-0.2-0.8-0.6-1c-0.4-0.3-0.9-0.8-1.2-1.1v-0.1l1.5,0.1l-0.6-1.6l-1.1,0.9c0,0,0,0-0.1,0l0-1.5l-1.5,0.6l1,1.2
		c0,0,0,0.1-0.1,0.1L61.1,186.7z"/>
	<path fill="#1D1D1B" d="M71.2,189.4c0.3,0.5,0.5,0.8,0.5,1.2c-0.3-0.1-0.6-0.4-0.9-0.8l0.2,2c0.2-0.4,0.4-0.6,0.7-0.7
		c-0.1,1.3-0.6,1.9-1.1,2c-0.5,0.1-1-0.3-1-0.7c-0.1-0.6,0.4-1,0.9-0.4c0.1-1.2-0.9-1.2-1.3-0.7c0.5-1.2,0.3-1.9-0.7-2.6
		c-0.7,1.1-0.4,1.8,0.5,2.7c-0.8-0.4-1.5,0.3-0.8,1.2c0.2-0.8,0.8-0.6,1,0c0.1,0.5-0.4,1.2-1.2,1.5c-1.3,0.4-1.7-0.4-2-1.1
		c0.3-0.2,0.9-0.1,1.6,0.3l-0.6-2c-0.3,0.7-0.7,1-1.2,1.2c0-0.6,0.4-1.7,0.4-1.7l-2.4,1c0,0,1.1,0.5,1.5,1c-0.5,0.2-1,0.3-1.7,0
		l1,1.8c0.2-0.8,0.6-1.3,0.9-1.4c0.3,0.7,0.5,1.6-0.6,2.2c-0.8,0.4-1.6,0.3-1.9-0.2c-0.3-0.6,0-1.1,0.7-0.7
		c-0.1-1.1-1.1-1.1-1.4-0.3c0-1.2-0.3-1.9-1.5-2.2c-0.3,1.2,0.1,1.9,1.3,2.4c-0.7-0.1-1.4,0.6-0.5,1.4c0-0.7,0.6-0.8,1-0.3
		c0.2,0.4,0.2,0.9-0.3,1.2c-0.4,0.2-1.1,0.2-2.1-0.7c0.3-0.1,0.6-0.1,1,0l-1.3-1.6c0.1,0.6,0,1-0.1,1.2c-0.3-0.3-0.4-0.6-0.5-1.2
		l-1,0.9c0.9,0.6,2,1.5,3.3,3.2c1.4-0.8,3.8-2,5.3-2.6c1.5-0.6,4.1-1.5,5.6-1.8c-0.3-2.2-0.2-3.6,0.1-4.6L71.2,189.4z"/>
	<path fill="#1D1D1B" d="M74,200.9c-1.2,1-2.8,0.1-3.6-1.2c1.7-0.7,3.6-1.5,4.9-2.3C74.1,199.3,74.9,200.2,74,200.9 M73.7,213.6
		c-1.6,0.7-2.8-0.7-3.1-1.6c-0.3-0.9-0.6-1.7-0.2-2.1c0.7-0.7,0.9-1.2,0.5-2c-0.5-1-1.5-0.5-2.6-0.2c0.5-0.9,0.6-1.6-0.1-1.5
		c-0.8,0.1-0.8,1.4-1.3,1.3c-0.5-0.2-0.2-0.9-0.2-1.4c0-0.6,0.4-0.8,0.9-1l4.5-1.7c0.6-0.2,1-0.3,1.4,0.1c0.3,0.3,1,0.7,0.8,1.1
		c-0.2,0.4-1.2-0.5-1.8,0c-0.6,0.4-0.1,0.9,0.9,1.2c-1,0.6-2,1-1.7,2c0.3,0.9,0.8,1.1,1.7,1.1c0.5,0,0.9,0.7,1.3,1.6
		C75.2,211.2,75.4,212.9,73.7,213.6 M65,204.4c-1.2,0.1-1.2-1.1-3.3-1.6c1.5-0.3,3.4-1.1,5.1-1.7C67.2,202.5,66.6,204.3,65,204.4
		 M90.3,244.8c0.3-0.9-1.4-2-1.6-3.3s0-2.6-1.6-4.4c-1.5-1.8-6.7-7.3-8.3-9.1c0.4,0,1.3-0.3,2.3,0.7c0.6,0.5,1.7,1.6,2.7,2.6
		c1.4-3.5,3.1-6.1,5.5-8.9c0.3-0.4,0.6-0.7,1-1c-0.9,0.3-2.3,0.5-3.1,1c-0.1-1.5,0-2.8-1-3.7c0.4-2.1,0.1-4.7-4.7-7.9
		c2.4,0.6,3.9,2.8,5.8,1.1c-1.7,0-1.7-3.7-7.8-6.8c2.3,0,4.1,3.7,6.8,1.6c-2.5-0.3-3.4-4.8-8-6.2c1.6,0.2,3.2,1,4.6-0.9
		c-1.6,0.4-2.5-1.1-4.2-1.2c0.6-2,0.5-3.2-0.2-4.7c-1.2,0.1-2.4,0.4-3.3,1.2c-0.1-1.1-1.3-1.1-2.3-1.1c0,0.5,0.3,1.1-0.2,1.2
		c-0.8,0.1-3.5,0.9-5.6,1.7c-2.1,0.8-4.5,2.3-5.1,2.8c-0.4,0.3-0.8-0.4-1.1-0.7c-0.8,0.6-1.5,1.4-0.9,2.3c-1.2,0.1-2.5,0.4-3.5,1.3
		c0,1.4,1.1,2.7,2.8,3.4c-2.8,2.8-0.3,5.4-2.7,7.8c3.5,0.1,2.9-4.7,4.6-5.4c-0.2,3.4-2.1,4-2.1,7.7c0,2,1.2,4.1,0.1,5.4
		c2.9-0.8,2.2-7.3,4-9.2c0.3,1.1,0.1,2.2-0.2,3.3c-1,3,0.1,7.1-1.5,8.5c3-0.3,3.3-5.1,5.8-6.8c-2.1,4.3-4.3,13.5-7.4,18.1
		c-5.1,6.9-8.1,15.2-12.7,15.2c-2.1,0-3.6-1.3-3.6-3.9c0-7.8,13.4-13.2,13.4-21.5c0-3.7-3-5.1-4.9-5.1c-1.3,0-2.8,0.6-4.1,1.7
		c-0.6-0.2-1.1-0.3-1.6-0.3c-4.7,0-3.5,8.5-7.6,8.4c1.6,0.9,4.5-0.9,6.1-3.3c-0.7,5.5-8.6,4.1-8,10.7c1.1-5.2,13.8-4.4,13.8-12.3
		c0-0.9-0.5-1.6-1.1-2.2c1-0.6,1.8-0.8,2.7-0.8c1.5,0,2.9,1.1,2.9,3.4c0,7-13.3,12.8-13.3,21.4c0,1.4,0.4,2.6,1.1,3.6
		c-0.9,0.4-1.9,0.2-2.7-0.7c-0.1,2.2,3.1,3.6,5.1,2.5c0.4,0.2,0.9,0.2,1.4,0.3c-0.6,1.6-2.6,2.1-3.7,2c3.3,2.6,8.9-0.8,8.6-3.7
		c2.6-2.1,4.2-5.6,6.1-8c-0.1,0.5-0.2,1.1-0.3,1.6c-1.9,3.5-3.7,6.6-4.2,11.1c-0.4,3.8-2.3,7.3-5,7.3c-0.6,0-1.6-0.8-2-0.4
		c-0.8,0.7,0,1.5,0,2.2c0,1.1-2.1,2.2-2.1,5.5c0,1.5,0.9,3.3,0.5,4.3c0.9-0.4,2-1.9,2.5-3.7c0.9,4.4-1.9,4.2,0.1,8.2
		c0.3-1.3,1.6-1.8,2.3-1.3c0.8,0.5,0.4,0.9-0.2,1.5c-0.6,0.6-1.1,3.5,1.6,3.4c-0.5-0.3-0.5-1.1,0.8-1.4c1.9-0.4,2.4,0.5,4.4,0.5
		c1.2,0,1.6-1.6,2.5-1.6c1,0,1,0.7,0.6,1.3c1.6-0.4,1.9-1.3,1.9-2.1c0-0.9-0.7-1.4-0.2-1.8c0.5-0.3,2.4,0,1.6,1.5
		c0.9-0.2,1.4-0.8,1.4-2c0-1.1-1.3-1.8-2.5-1.6c-0.2-0.7-1.3-1.1-2.2-1.1c-2.2,0-1.8,1.7-3.3,1.7c-2.4,0-4.7-3.1-4.7-8.4
		c0-2.8,3-3.5,5.2-4.4c2.1-0.9,5.9-3.2,8.1-7c1.8-2.9,1.8-6.2,1.6-10c3,1.7,3.4,4.2,3.4,6c0,2.3-1.2,3.3-2.2,3.7
		c-0.8,0.4-1.1,0.2-1.2,0.7c-0.1,0.6,0.3,0.9,0.6,1.1c1.1,0.6,0.9,1.6,1.2,2.7c0.3,1.1,1.3,2.9,3,4.2c0.2-0.7,0.1-1.8,0-3.3
		c2.3,1.1,0.5,5.8,5,5.8c-0.8-0.5-0.6-1.7-0.1-1.9c0.5-0.2,1.1,0.3,2,1.5c0.9,1.2,0.6,1.1,2.8,1.1c2.1,0,1.2-0.7,2.3-0.7
		c1.1,0,1,1.3,0.4,2.3c1.9-0.6,2.5-2,1.8-3.5c1.7-0.9,2.6,0.4,2.8,1.3c1.6-1.6,0-3.6-1.3-3.8c0-0.6-0.5-1.3-1.2-1.3s-1.4-0.1-2.1,0
		c-0.8,0-1.2,1.2-2.1,1.2c-2.8,0-8.4-5.1-8.4-7.3c0-2.2,5.3-3.6,5.3-7c0-4.5-4.4-6-8.1-8.9c1.3-1.5,5.2-1.8,7.4-0.8
		c0.3-1.2,1-0.9,1.3-3.1c0.8,1.9,0,3.5,0.8,4.3c0.6-0.9,2.2-0.8,2.1-3.1c0.5,1.5-0.6,3.7,0.5,4.7c0.2-1.2,0.9-1.4,1.4-1.4
		s0.9,0.3,0.9,1c0,1.8-2.2,1-2.2,3c0,0.8,1.1,1.1,1.1,1.7c0,0.5-0.9,1.4-1.9,0.7c0.4,0.8,1.1,1.5,2,1.5c1,0,2-0.8,2.4-1.8
		c0.5,1.3,0.1,2.7-0.8,2.9c1,0.5,3.3,0,3-2.9c1.3,0.2,2,1.1,1.2,2.7c1.1-0.3,2.1-0.8,2.1-1.9C90.8,246.2,89.9,246,90.3,244.8"/>
	<path fill="#1D1D1B" d="M176.5,266.3c0-1.5,1.3-2.8,2.8-2.8s2.8,1.3,2.8,2.8s-1.3,2.8-2.8,2.8C177.7,269.1,176.5,267.8,176.5,266.3
		 M175.5,266.3c0,2.1,1.7,3.7,3.8,3.7s3.7-1.7,3.7-3.7c0-2.1-1.7-3.8-3.7-3.8C177.2,262.5,175.5,264.2,175.5,266.3"/>
	<path fill="#1D1D1B" d="M163.2,273.1c-1.1-0.2-1.8-1-1.7-1.8c0.1-0.4,0.3-0.6,0.5-0.8c0.4-0.3,1.1-0.4,1.7-0.3
		c1,0.2,1.7,0.9,1.7,1.6c0,0.1,0,0.1,0,0.2C165.3,272.8,164.3,273.3,163.2,273.1 M161.5,269.8c-0.5,0.3-0.8,0.8-0.9,1.4
		c-0.1,0.7,0.1,1.3,0.6,1.9c0.5,0.5,1.1,0.9,1.9,1c0.7,0.1,1.5,0,2.1-0.3c0.7-0.3,1.1-0.9,1.2-1.6c0.2-1.3-0.9-2.6-2.5-2.9
		C163,269.2,162.2,269.3,161.5,269.8"/>
	<path fill="#1D1D1B" d="M140.6,219.2c0-0.5,0.3-1.1,0.8-1.4c0.4-0.3,1-0.5,1.4-0.4c0.2,0,0.5,0.1,0.7,0.4s0.2,0.6,0.2,0.8
		c-0.1,0.5-0.3,0.9-0.8,1.3c-0.7,0.6-1.7,0.6-2.1,0.1C140.7,219.7,140.6,219.5,140.6,219.2 M140.8,217c-1.2,0.9-1.5,2.4-0.8,3.4l0,0
		c0.7,1,2.3,1,3.5,0.1c0.6-0.5,1.1-1.2,1.1-1.9c0.1-0.5-0.1-1.1-0.4-1.5c-0.3-0.4-0.8-0.7-1.3-0.7
		C142.2,216.3,141.5,216.5,140.8,217"/>
	<path fill="#1D1D1B" d="M158.6,267.8L158.6,267.8c-0.4,0-0.7-0.2-0.8-0.4c-0.4-0.4-0.6-1-0.6-1.6c0-0.6,0.2-1.2,0.6-1.6
		c0.2-0.2,0.5-0.4,0.9-0.4c0.8,0,1.4,0.9,1.4,2c0,0.6-0.2,1.2-0.6,1.6C159.2,267.6,158.9,267.8,158.6,267.8 M157.1,263.5
		c-0.6,0.5-0.9,1.4-0.9,2.3v0.1c0,0.9,0.3,1.7,0.8,2.2c0.4,0.4,1,0.7,1.5,0.7c0.6,0,1.1-0.2,1.6-0.6c0.6-0.5,0.9-1.4,0.9-2.3
		c0-0.8-0.2-1.5-0.6-2c-0.4-0.6-1.1-0.9-1.7-0.9C158.1,262.9,157.5,263.1,157.1,263.5"/>
	<path fill="#1D1D1B" d="M139.4,236.8c-1-0.5-1.5-1.4-1.1-2.2c0.2-0.4,0.5-0.5,0.7-0.6c0.5-0.2,1.1-0.1,1.7,0.2
		c0.6,0.3,1,0.7,1.2,1.2c0.1,0.2,0.2,0.6,0,0.9c-0.2,0.4-0.5,0.5-0.7,0.6C140.6,237.2,140,237.1,139.4,236.8 M138.7,233.2
		c-0.6,0.2-1,0.6-1.3,1.1c-0.6,1.2,0.1,2.7,1.6,3.4c0.8,0.4,1.7,0.5,2.4,0.2c0.6-0.2,1-0.6,1.3-1.1c0.2-0.5,0.3-1.1,0.1-1.7
		c-0.3-0.7-0.9-1.4-1.7-1.8C140.3,233,139.4,232.9,138.7,233.2"/>
	<path fill="#1D1D1B" d="M165.9,250.3c-0.6,0.9-1.7,1.2-2.4,0.7s-0.7-1.6-0.1-2.5c0.6-0.9,1.7-1.2,2.4-0.7
		C166.5,248.3,166.5,249.4,165.9,250.3 M161.5,257.3c-0.6,0.9-1.7,1.2-2.4,0.7s-0.7-1.6-0.1-2.4c0.6-0.9,1.7-1.2,2.3-0.7
		C162.1,255.3,162.1,256.4,161.5,257.3 M146.3,219c0.5-1.6,1.5-4.9,1.5-4.9l1.7,0.7c-0.5,0.2-1.1,0.7-1.6,1.2
		c0.4,0.2,1.1,0.2,1.5-0.1l-0.7,1.7c-0.1-0.3-0.6-0.9-1.1-1c-0.3,1.4,0.5,1.9,1.1,2.2c1,0.5,1.7,0.6,2,0.1c0.3-0.6-0.4-1.4-1.2-1
		c-0.1-0.9,0.4-1.4,1-1.4c0.5,0,0.8,0.4,1,1c-0.1-1.5,0.6-2.6,1.9-3c0.5,1.4,0.1,2.4-1,3.4c0.6-0.2,1.2-0.2,1.5,0.2
		c0.3,0.5,0.2,1.2-0.6,1.6c-0.2-0.9-1.3-1-1.6-0.4c-0.3,0.6,0.2,1.2,1.1,1.7c1.1,0.6,2,0.3,2.6-0.7c-0.4-0.1-1,0-1.6,0.3l1.1-2.1
		c0,0.3,0.2,0.8,0.7,1.3c0.2-0.5,0.4-1.3,0.1-2.1l2.5,1.4c-0.8,0.1-1.4,0.7-1.8,1.1c0.6,0.2,1.1,0.1,1.4,0l-1.3,2.1
		c0-0.7-0.2-1.3-0.5-1.5c-0.5,1-0.4,1.9,0.7,2.6c0.9,0.6,1.7,0.7,2,0.1c0.4-0.6-0.2-1.5-1.1-1.2c0-0.9,0.5-1.3,1.1-1.3
		c0.5,0,0.8,0.6,0.9,1.1c0.3-1.4,1-2.2,2.4-2.5c0.3,1.4-0.3,2.5-1.6,3.2c0.6-0.2,1.1-0.1,1.4,0.3c0.3,0.5,0.1,1.2-0.7,1.5
		c-0.1-0.9-1.2-1.1-1.5-0.5c-0.3,0.5,0.1,1,1.1,1.7c0.6,0.4,1.5,0.9,2.5-0.1c-0.3-0.4-1.1-0.5-1.4-0.5l1.1-1.4
		c0,0.6,0.3,1.2,0.7,1.4c0.2-0.7,0.3-1.5,0.2-2l1.4,1.1c0,0-2.3,2.5-3.5,3.7L146.3,219z M164.7,239.9c0-0.3,0.1-0.6,0.4-0.9
		c0.3-0.3,0.6-0.3,0.9-0.3c0.5,0,1.1,0.3,1.5,0.7c0.4,0.5,0.7,1.1,0.7,1.6c0,0.2-0.1,0.6-0.4,0.9l0,0c-0.3,0.3-0.6,0.3-0.9,0.3
		c-0.5,0-1.1-0.3-1.5-0.8C164.9,241,164.7,240.4,164.7,239.9 M171.5,270.8c0.1-0.5,0.5-1,1-1.4s1.1-0.5,1.7-0.4
		c0.2,0.1,0.6,0.2,0.8,0.5s0.2,0.7,0.2,0.9c-0.1,0.5-0.5,1-1,1.4c-0.9,0.6-2,0.5-2.4-0.1C171.4,271.4,171.4,271.1,171.5,270.8
		 M139.4,224.2c0,0.5-0.3,1-0.6,1.3c-0.2,0.1-0.4,0.3-0.7,0.3c-0.6,0-1.1-0.8-1.1-1.6v-0.1c0-0.5,0.2-1,0.6-1.3
		c0.2-0.1,0.4-0.3,0.7-0.3s0.6,0.2,0.7,0.4C139.3,223.1,139.5,223.6,139.4,224.2 M149.3,203.8c0.5-1,0-2.5,1.8-2.5
		c0.9,0,1.7,0.9,2.8,1.3C152.2,202.7,150.6,203.1,149.3,203.8 M178.2,229.3c1.2,3.4,3.6,4.6,5.5,3.7c-4.1-0.5-0.8-7.6-6.1-7.6
		c-0.3,0-0.6,0-0.9,0.1c-0.9-1-1.9-1.4-3.5-1.4c-2.3,0-6.1,2.2-6.1,6.7c0,9.7,11.3,10.5,11.3,19.1c0,2.5-1.9,4.1-4,4.1
		c-1.9,0-3.4-2.1-5-5.4c-0.8-1.6-2.4-3.8-4.1-6c0.5,0.4,1.1,0.6,1.7,0.6c0.6,0,1.2-0.2,1.6-0.6c0.4-0.4,0.6-0.9,0.7-1.5V241
		c0-0.8-0.3-1.6-0.9-2.2c-0.6-0.6-1.4-1-2.2-1c-0.6,0-1.2,0.2-1.6,0.6c-0.4,0.4-0.6,0.9-0.7,1.5v0.1c0,0.3,0.1,0.7,0.2,1
		c-2.4-3.2-4.7-6.3-4.7-8c0-1.5,1-2.8,2.3-4.4l0.4,0.3l0.3-0.4c0.4-0.5,1.4-1.5,3.3-3.6l0.1-0.1l0,0l0.5-0.5l-1.2-1
		c0.3-0.7,0.6-1.5,0.8-2.4c0.4,1.5,1.2,2.6,2.3,2.2c-0.7-1.6,0.8-3.8-0.2-7.7c0.9,1.5,2.2,2.3,3.2,2c-2.5-2.2,0.7-5.3-2.5-10.1
		c1.1,0.4,1.8,0.2,2.2-0.4c-3-0.4-1.6-4.2-6.8-5.5c1.3-0.2,2.1-1,1.9-1.7c-1.4,1-2.6-1.9-7.1-1.8c-0.3-1.7-1.8-3.5-3.6-4.3
		c0.3,1.3,0,2.5-0.3,3.5l-14.8-14.4c-0.4-0.4-0.7-0.5-0.8-0.4c-0.1,0.1-0.1,0.4,0.2,0.7l12.6,15.8c-0.9,0.3-1.9,0.7-2.9,1.1
		c-0.6,0.2-1.1,0.8-1.1,1.6c-2.3,1.2-4.4,2.6-5.4,3.5c-0.8,0.7-1.4,0.9-0.7,2.5c0.3,0.6-0.5,2.1,1.3,1c1.2-0.7,3.9-2.2,4.3-1.3
		c0.2,0.5-1.1,1.1-2.1,1.5c-0.9,0.4-1.9,1.1-1.8,1.4c0.1,0.3,0.9,0,0.9,0.3c0.1,0.4,0.4,0.8,0.7,0.8s0.8-0.8,1.1-0.5s-0.1,2-0.4,2.4
		c1.4-0.2,2.3-1.5,2.4-2.6c0-1.1,0.3-1.3,0.5-1.5c0.2-0.2,0.5,1.1,0.2,1.9c0.8-0.2,1.5-1.1,1.4-3c0.4-0.3,0.8-0.5,1.1-0.5
		c0.5,0,1.4,1.3,2.8,1.3c2.5,0,3.9-2,4-3c0.1-0.8,0.1-1.5-0.4-2.1c0.9,0.7,1.2,1.8,1.2,2.7c0,3.5-6.2,5.2-8.8,7.6
		c-0.1,0.1-0.2,0.2-0.3,0.3l-2.9-1.1l-0.2,0.6c0,0,0,0.1-0.2,0.6c-0.3,1-0.9,3.1-1.3,4.3l-0.2,0.5l0.3,0.2c-1.7,2.3-3.1,4.9-3.5,7.6
		c-0.7-0.7-1.4-1.3-2.1-1.9c0.1-0.3,0.1-0.5,0.1-0.8c0-0.8-0.2-1.5-0.7-2.1c-0.4-0.4-0.8-0.7-1.4-0.7c-0.5,0-1,0.2-1.4,0.5
		c-0.1,0.1-0.2,0.2-0.3,0.3c-0.1-0.1-0.2-0.2-0.3-0.3c-1-0.7-2.2-1.6-2.9-2.4c-0.3-0.3-0.6-0.5-1.3-0.5c-0.2,0-0.9,0-1.3,0
		c-0.4,0-0.7,0.3-1.2,0.8c-0.2,0.2-0.9,0.7-1.7,1.3c0.4,0.4,0.7,0.7,1.1,1.1c0.2,0.2,0.4,0.4,0.6,0.7c0.2-0.2,0.4-0.3,0.5-0.4
		c0.3-0.3,0.7-0.3,1.1-0.3c0.4,0,0.9,0.3,1.3,0.8c0.3,0.4,2.6,3.5,4.6,5.7c-0.2,0.1-0.4,0.1-0.6,0.2c-0.8,0.4-2.7,0.3-3.6,0.2
		c-0.8-0.1-1-0.3-1.6,0.6c-0.2,0.3-0.5,0.7-0.8,1.1c-0.3,0.3-0.5,0.7,0.1,1.7c0.9,1.5,3,5.3,3.7,7.1c0.7,1.7,1.5,2,2.9,2.6
		s3.7,1.9,4,2.2l0.1-1.3c-0.4-0.4-1.7-0.9-2.2-1.1c-0.5-0.2-0.6-0.4,0-0.4s2.2,0.6,3.4,1.1c-0.3-1.3-1.6-2.7-2.3-3.5
		c-1-0.3-2-0.3-2.4,0c0.1,0.3-0.2,0.6-0.6,0.6c-0.4,0-0.6-0.3-0.5-0.7c0.1-0.4,0.7-0.5,0.6-1.3c-0.1-0.8-1.1-0.9-1.6-0.9
		c-0.8-1.2-1.8-3-2.2-3.7c-0.4-0.7-0.2-1.1,0.1-1.4c0.7-0.6,2.2,0.3,5.2,0.5c1,0.1,2.4,0.1,3.7,0.2c0.4,3.5,1.8,6.8,6.6,8
		c2.4,0.6,4.8,2.3,5.6,4.6c-9.6-0.2-11.2,3.6-11.2,7.1c0,4,3.4,3.8,3.4,6.8c0,2.6-8.1,3.7-10.6,4.1c-2.1,0.3-3.3,0.8-4.3,1.8
		s-2,1.9-3.8,3.8c0,0,0.8,0.2,1.5,0.1l1.4-1.8c0.4-0.6,0.7-1.1,1-1c0.3,0.1,0.1,0.5-0.2,1.1l-1.1,1.9c4.8,0.3,5.1-1.4,5.1-2.2
		c0-0.7-1.2-1.2-0.5-1.7s1.3-0.1,1.8,0.5c0.5,0.6,0.7,1.2,2,0.7c0,0,10.4-4.3,11.7-4.9c1.2-0.5,0.8-1.1,0.1-1.6
		c-0.8-0.6-0.9-1.7-0.9-2.8c0-3.1,1.9-4.1,5.3-4c-0.1,0.5-0.1,1.1-0.1,1.5c0,4.9,7.4,9.7,9.4,9.7c0.9,0,2.1-0.7,2.2,2.3
		c0.1,2.2,0.5,3.7,0.1,6.2s-1.1,2.9-2.6,4s-2.9,4.4-3.6,5.1c0.7,0.4,1.4,0.5,2-1.1c0.5-1.3,1-2.3,1.6-2.6c-0.6,1.5-1,3.6-1.3,4.3
		c1.9,0.3,5-1.4,5-2.7c0-1.3-1.1-1.2-1.1-2.1c0-0.4,0.5-0.8,1.1-0.8c0.8,0,1.3,0.6,1.4,0.9c0.8-0.4,1.4-1.3,1.3-3.2
		c0-0.8,0-1.6-0.1-2.4c0,0.1,0.1,0.2,0.2,0.3c0.4,0.6,1,0.9,1.7,1c0.7,0,1.4-0.1,2.1-0.6c0.7-0.5,1.3-1.2,1.4-2c0-0.2,0-0.3,0-0.5
		c0-0.4-0.1-0.8-0.3-1.2c-0.3-0.5-0.8-0.8-1.4-0.9c-0.8-0.2-1.6,0-2.4,0.5c-0.7,0.5-1.2,1.1-1.4,1.8c-0.2-2.7-0.3-5.2-0.3-6.2
		c0.1-1.5,0.2-2.2-0.3-2.4c-0.5-0.2-1.1,0.6-1.8,0.6s-2.9-2-2.9-4.1s2.3-4.8,2.2-7.8c0-0.9,0.5-1.4,0.9-0.5c0.4,1,1.1,2.3,2.1,3.4
		c-0.6,3.6,3.4,7.2,6.7,4.6c-1.6,0.2-2.7-1.2-3.5-2.7c0.3,0,0.6,0.1,0.9,0.1c0.2,0,0.3,0,0.5,0c1.1,1.4,4.8,1.3,5.8-2.2
		c-0.6,0.7-2,1.3-2.9,1.2c1.4-1.1,2.1-2.8,2.1-4.7c0-9.2-11.2-10.3-11.2-18.7c0-3.1,2.7-5.1,4.6-5.1c0.7,0,1.3,0.2,1.7,0.6
		c-0.7,0.7-1.1,1.9-1.1,3.2c0.3,6.6,11.1,6.3,11.3,9.5C186.6,234.3,178.5,235.8,178.2,229.3"/>
</g>
</svg>
