<?xml version="1.0" encoding="utf-8"?>
<!-- Generator: Adobe Illustrator 18.0.0, SVG Export Plug-In . SVG Version: 6.00 Build 0)  -->
<!DOCTYPE svg PUBLIC "-//W3C//DTD SVG 1.1//EN" "http://www.w3.org/Graphics/SVG/1.1/DTD/svg11.dtd">
<svg version="1.1" id="Layer_1" xmlns="http://www.w3.org/2000/svg" xmlns:xlink="http://www.w3.org/1999/xlink" x="0px" y="0px"
	 viewBox="0 0 800 800" enable-background="new 0 0 800 800" xml:space="preserve">
<g id="Cabinet_Office">
	<path fill="#1D1D1B" d="M520.1,366.6c0.5-6.8,5.1-12.5,12.7-12.5c7.2,0,12.4,5.6,12.7,12.5H520.1z M545.3,378.9
		c-1.3,5.7-5.5,8.6-11.5,8.6c-9.7,0-14-6.8-13.8-14.5h33.1c0.4-10.7-4.4-25.3-20-25.3c-12.1,0-20.8,9.7-20.8,23
		c0.4,13.5,7.1,23.3,21.2,23.3c9.9,0,16.9-5.3,18.9-15h-7.1V378.9z M508.4,362.9c-1-10.5-9.1-15.2-19.1-15.2
		c-14,0-20.9,10.4-20.9,23.7c0,13.2,7.2,22.6,20.7,22.6c11.1,0,17.9-6.4,19.5-17.2h-7.4c-0.9,6.7-5.1,10.8-12.1,10.8
		c-9.2,0-12.9-8-12.9-16.2c0-9,3.2-17.3,13.8-17.3c6,0,9.8,3.3,11,8.8L508.4,362.9L508.4,362.9z M461.8,348.7h-7.3v44.2h7.3V348.7z
		 M461.8,331.9h-7.3v8.9h7.3V331.9z M431.8,392.9h7.3v-37.8h8.6v-6.4H439v-6.2c0-3.8,2.1-5,5.6-5c1.3,0,2.8,0.2,4.1,0.6v-6.3
		c-1.4-0.4-3.3-0.7-4.7-0.7c-8,0-12.2,3.8-12.2,11v6.6h-7.5v6.4h7.5V392.9z M406.4,392.9h7.3v-37.8h8.6v-6.4h-8.6v-6.2
		c0-3.8,2-5,5.6-5c1.3,0,2.8,0.2,4.1,0.6v-6.3c-1.4-0.4-3.3-0.7-4.7-0.7c-8,0-12.2,3.8-12.2,11v6.6h-7.4v6.4h7.4L406.4,392.9
		L406.4,392.9z M345.4,362.4c0-12.3,6.2-25.2,21.1-25.2s21.1,12.8,21.1,25.2c0,12.3-6.2,25.1-21.1,25.1
		C351.7,387.5,345.4,374.7,345.4,362.4 M337.3,362.4c0,16.6,9.8,32,29.3,32c19.4,0,29.3-15.4,29.3-32s-9.8-32-29.3-32
		C347.2,330.4,337.3,345.8,337.3,362.4 M302.3,335.5H295v13.3h-7.5v6.4h7.5v28.1c0,8.1,3,9.7,10.5,9.7h5.6v-6.4h-3.3
		c-4.5,0-5.5-0.6-5.5-3.9v-27.5h8.8v-6.4h-8.8L302.3,335.5L302.3,335.5z M253.9,366.6c0.5-6.8,5-12.5,12.6-12.5
		c7.2,0,12.4,5.6,12.8,12.5H253.9z M279.2,378.9c-1.3,5.7-5.5,8.6-11.5,8.6c-9.7,0-14-6.8-13.8-14.5H287c0.4-10.7-4.4-25.3-20-25.3
		c-12.1,0-20.8,9.7-20.8,23c0.4,13.5,7.1,23.3,21.2,23.3c9.9,0,16.9-5.3,18.9-15h-7.1V378.9z M203.5,392.9h7.3v-25
		c0-8,4.3-13.9,13.1-13.9c5.6,0,9,3.5,9,8.9v29.9h7.3v-29.1c0-9.5-3.6-16.2-15.2-16.2c-6.3,0-11.3,2.6-14.4,8h-0.2v-7h-6.8v44.4
		H203.5z M194.8,331.9h-7.3v8.9h7.3V331.9z M187.5,392.9h7.3v-44.2h-7.3V392.9z M138.9,392.9h7.3V387h0.2c3.3,5.2,9.7,6.9,14.3,6.9
		c13.5,0,20.2-10.5,20.2-23s-6.7-23.3-20.3-23.3c-6.1,0-11.7,2.1-14.1,7h-0.2v-22.8H139L138.9,392.9L138.9,392.9z M173.1,370.5
		c0,8.6-3.3,17.1-13.3,17.1s-13.9-8-13.9-16.8c0-8.3,3.8-16.7,13.5-16.7C168.8,354.1,173.1,362.2,173.1,370.5 M133.9,387.1
		c-0.9,0.3-1.6,0.4-2.2,0.4c-2.3,0-2.3-1.5-2.3-5v-22.8c0-10.3-8.6-12.1-16.6-12.1c-9.8,0-18.3,3.8-18.7,14.8h7.3
		c0.3-6.5,4.9-8.4,11-8.4c4.6,0,9.8,1,9.8,7.4c0,5.5-6.8,5-14.9,6.5c-7.5,1.5-15,3.6-15,13.6c0,8.8,6.6,12.4,14.6,12.4
		c6.2,0,11.6-2.1,15.6-6.8c0,4.8,2.4,6.8,6.2,6.8c2.3,0,3.9-0.4,5.2-1.2V387.1z M122.1,377.5c0,4-3.9,10-13.5,10
		c-4.4,0-8.6-1.7-8.6-6.5c0-5.4,4.1-7.1,8.9-8c4.9-0.9,10.4-0.9,13.2-3V377.5z M88.1,350.3c-1.9-13-12.4-19.8-25.1-19.8
		c-18.8,0-28.9,14.5-28.9,32.2c0,17.8,9.2,31.8,28.2,31.8c15.4,0,24.9-9.2,26.4-24.5h-8.1c-0.8,10.1-6.9,17.6-17.6,17.6
		c-14.6,0-20.8-11.6-20.8-25.6c0-12.8,6.2-24.7,20.7-24.7c8.5,0,15.4,4.4,17.1,13H88.1z"/>
	<rect y="179.7" fill="#0055B8" width="7.2" height="213.7"/>
	<path fill="#1D1D1B" d="M100.2,199.7c-0.7,1.3-1.3,2.1-1.2,3.1c0.1,1,1.2,1.8,1.7,2.8c0.5-1.2,1.2-2.1,1.2-3.1
		C101.8,201.6,100.5,200.3,100.2,199.7"/>
	<path fill="#1D1D1B" d="M118.2,199.7c0.7,1.3,1.3,2.1,1.2,3.1c-0.1,1-1.2,1.8-1.7,2.8c-0.5-1.2-1.2-2.1-1.1-3.1
		C116.6,201.6,117.9,200.3,118.2,199.7"/>
	<path fill="#1D1D1B" d="M89.9,198.9c0.7,0,1.2-0.5,1.2-1.2s-0.5-1.2-1.2-1.2s-1.2,0.5-1.2,1.2S89.2,198.9,89.9,198.9"/>
	<path fill="#1D1D1B" d="M90.7,200.6c0-0.7-0.5-1.2-1.2-1.2s-1.2,0.5-1.2,1.2s0.5,1.2,1.2,1.2S90.7,201.3,90.7,200.6"/>
	<path fill="#1D1D1B" d="M91.3,203.5c0-0.7-0.5-1.2-1.2-1.2s-1.2,0.5-1.2,1.2s0.5,1.2,1.2,1.2S91.3,204.2,91.3,203.5"/>
	<path fill="#1D1D1B" d="M96.6,193.1c0.7,0,1.2-0.5,1.2-1.2s-0.5-1.2-1.2-1.2s-1.2,0.5-1.2,1.2S95.9,193.1,96.6,193.1"/>
	<path fill="#1D1D1B" d="M93.6,194c0.7,0,1.2-0.5,1.2-1.2s-0.5-1.2-1.2-1.2s-1.2,0.5-1.2,1.2S92.9,194,93.6,194"/>
	<path fill="#1D1D1B" d="M91.2,196.1c0.7,0,1.2-0.5,1.2-1.2s-0.5-1.2-1.2-1.2s-1.2,0.5-1.2,1.2S90.6,196.1,91.2,196.1"/>
	<path fill="#1D1D1B" d="M99.8,193.4c0.7,0,1.2-0.5,1.2-1.2s-0.5-1.2-1.2-1.2s-1.2,0.5-1.2,1.2C98.6,192.9,99.1,193.4,99.8,193.4"/>
	<path fill="#1D1D1B" d="M102.8,194.3c0.7,0,1.2-0.5,1.2-1.2s-0.5-1.2-1.2-1.2s-1.2,0.5-1.2,1.2
		C101.6,193.7,102.1,194.3,102.8,194.3"/>
	<path fill="#1D1D1B" d="M105.6,195.6c0.7,0,1.2-0.5,1.2-1.2s-0.5-1.2-1.2-1.2s-1.2,0.5-1.2,1.2S104.9,195.6,105.6,195.6"/>
	<path fill="#1D1D1B" d="M127.2,197.7c0,0.7,0.5,1.2,1.2,1.2s1.2-0.5,1.2-1.2s-0.5-1.2-1.2-1.2C127.8,196.5,127.2,197,127.2,197.7"
		/>
	<path fill="#1D1D1B" d="M128.8,199.4c-0.7,0-1.2,0.5-1.2,1.2s0.5,1.2,1.2,1.2s1.2-0.5,1.2-1.2S129.5,199.4,128.8,199.4"/>
	<path fill="#1D1D1B" d="M128.2,202.3c-0.7,0-1.2,0.5-1.2,1.2s0.5,1.2,1.2,1.2s1.2-0.5,1.2-1.2C129.5,202.9,128.9,202.3,128.2,202.3
		"/>
	<path fill="#1D1D1B" d="M121.7,193.1c0.7,0,1.2-0.5,1.2-1.2s-0.5-1.2-1.2-1.2s-1.2,0.5-1.2,1.2S121.1,193.1,121.7,193.1"/>
	<path fill="#1D1D1B" d="M124.7,194c0.7,0,1.2-0.5,1.2-1.2s-0.5-1.2-1.2-1.2s-1.2,0.5-1.2,1.2S124.1,194,124.7,194"/>
	<path fill="#1D1D1B" d="M127.1,196.1c0.7,0,1.2-0.5,1.2-1.2s-0.5-1.2-1.2-1.2s-1.2,0.5-1.2,1.2
		C125.9,195.6,126.4,196.1,127.1,196.1"/>
	<path fill="#1D1D1B" d="M118.6,193.4c0.7,0,1.2-0.5,1.2-1.2s-0.5-1.2-1.2-1.2s-1.2,0.5-1.2,1.2
		C117.3,192.9,117.9,193.4,118.6,193.4"/>
	<path fill="#1D1D1B" d="M115.6,194.3c0.7,0,1.2-0.5,1.2-1.2s-0.5-1.2-1.2-1.2s-1.2,0.5-1.2,1.2
		C114.3,193.7,114.9,194.3,115.6,194.3"/>
	<path fill="#1D1D1B" d="M111.5,194.4c0,0.7,0.5,1.2,1.2,1.2s1.2-0.5,1.2-1.2s-0.5-1.2-1.2-1.2C112.1,193.2,111.5,193.7,111.5,194.4
		"/>
	<path fill="#1D1D1B" d="M107.1,200.9h1.4v-5.2c-0.5-0.1-0.9-0.2-1.4-0.4V200.9z"/>
	<path fill="#1D1D1B" d="M111.2,195.3c-0.4,0.2-0.9,0.3-1.4,0.4v5.2h1.4V195.3z"/>
	<path fill="#1D1D1B" d="M108.4,189.6v-3.1c-1.5,0.3-2.7,1.5-3,3.1H108.4z"/>
	<path fill="#1D1D1B" d="M110,189.6h3c-0.3-1.5-1.4-2.7-3-3.1V189.6z"/>
	<path fill="#1D1D1B" d="M105.5,191.1c0.4,1.7,1.9,3,3.7,3c1.8,0,3.3-1.3,3.7-3H105.5z"/>
	<path fill="#1D1D1B" d="M111.3,186c-0.9-0.7-1.5-1.7-1.7-2.7c1,0.2,2.1,0.9,2.7,1.7v-4.2c-0.6,0.9-1.8,1.6-2.7,1.8
		c0.1-1,0.7-1.9,1.6-3h-4c0.8,1.1,1.5,2,1.6,3c-1-0.2-2.1-0.9-2.7-1.8v4.2c0.6-0.8,1.8-1.6,2.7-1.7c-0.1,1-0.8,2-1.7,2.7H111.3z"/>
	<path fill="#1D1D1B" d="M111.4,273c-0.8,0-1.5-0.7-1.5-1.5s0.7-1.5,1.5-1.5s1.5,0.7,1.5,1.5S112.2,273,111.4,273 M104.2,270.8
		c-0.9,0-1.6-0.7-1.6-1.6s0.7-1.6,1.6-1.6s1.6,0.7,1.6,1.6C105.8,270,105.1,270.8,104.2,270.8 M101.8,263.5l-0.4-0.3
		c-0.7-0.6-1.4-0.6-2,0c-0.3,0.3-0.6,0.6-0.9,0.9l-0.4,0.5l0.3,0.2c0.8,0.6,0.9,1.3,0.7,1.7c-0.1,0.2-0.2,0.3-0.4,0.3
		c-0.4,0.1-0.9,0-1.5-0.4l-0.3-0.2l-0.2,0.3c0,0.1-0.1,0.1-0.1,0.2c-0.1,0.1-0.1,0.2-0.2,0.3c-0.3,0.6-0.5,1-0.5,1.4
		c0,0.1,0,0.2,0,0.3c0.1,0.4,0.5,0.6,0.8,0.8l0.2,0.1c0.4,0.2,0.8,0.5,1.2,0.7c-0.7,0.4-1.4,0.4-2.1,0.1c-1.1-0.5-1.7-1.7-1.7-2.3
		c0-0.9,0.4-2,1.1-3.2l0.1-0.2l-0.1-0.2c-0.2-0.4-0.4-0.7-0.5-1c0.4,0.1,0.8,0.1,1.2,0.2h0.2l0.1-0.1c0.5-0.5,2.1-2.1,3.5-2.1
		c0.7,0,1.4,0.3,1.9,0.9c0.4,0.4,0.6,1,0.7,1.5C102.2,263.9,102,263.7,101.8,263.5 M115.7,269.2c-3.8-1-8.3-2.6-12.6-4.5l0,0
		c0.1-0.9-0.2-1.8-0.9-2.6c-0.7-0.8-1.5-1.2-2.4-1.2c-0.4,0-0.8,0.1-1.2,0.2c-0.6-0.5-1.2-1.2-1.8-1.8c-1.6-1.9-2.9-4.1-3.7-6.5
		c-0.5-1.4-0.9-2.8-1.1-4.3c-0.2,1.2-1.6,2.9-4,2.9c0-0.3,0-0.9-0.2-0.9c-0.6,0.7-1.6,1.4-3.7,0.7c0.3,1.7,0.8,3.3,1.4,4.9
		c1.3,3.4,3.1,6.5,5.5,9.2c0.8,0.9,1.6,1.7,2.4,2.4c0,0.2,0,0.3,0,0.5c0,0.9,0.9,2.3,2.1,2.9c1,0.5,2.1,0.4,3.1-0.3
		c1.9,1,4.2,1.9,6.8,2.6c2.9,0.8,5.6,1.2,7.8,1.2c1.9,0,4.3-0.9,6.7-2.4c1-0.6,1.9-1.3,2.6-1.9c0.1-0.1,0.2-0.2,0.3-0.2
		C120.9,270.3,118,269.8,115.7,269.2"/>
	<path fill="#1D1D1B" d="M114.6,284.7c-0.3-0.5-0.7-0.8-1-0.8c-1.6,0-1,4.1-2.8,4.1c-0.8,0-1.2-0.5-1.2-1.1s0.4-0.8,0.4-1.2
		c0-0.5-0.4-0.6-0.8-0.6s-0.8,0.2-0.8,0.6c0,0.5,0.4,0.6,0.4,1.2s-0.4,1.1-1.2,1.1c-1.9,0-1.2-4.1-2.8-4.1c-0.3,0-0.7,0.3-1,0.8
		c-0.3-0.6-0.5-1.2-0.5-1.6c0-0.8,0.6-1.8,1.8-1.8c2.1,0,1.6,2.8,2.6,2.8c0.4,0,0.8-0.3,0.8-0.7c0-0.8-1.4-1.6-1.4-2.7
		c0-1.2,1.1-2.1,2.2-3.1c1.2,0.9,2.2,1.9,2.2,3.1c0,1.1-1.4,1.9-1.4,2.7c0,0.4,0.3,0.7,0.8,0.7c1,0,0.5-2.8,2.6-2.8
		c1.2,0,1.8,1,1.8,1.8C115.1,283.5,114.9,284.1,114.6,284.7 M109.2,290.5c-0.6,0-1-0.5-1-1c0-0.6,0.5-1,1-1c0.6,0,1,0.4,1,1
		C110.2,290,109.8,290.5,109.2,290.5 M113.3,280.5c-0.3,0-0.5,0-0.8,0.1V276c-2-0.1-4.3-0.4-6.7-1v5.6c-0.3-0.1-0.5-0.1-0.8-0.1
		c-1.6,0-2.6,1.3-2.6,2.6c0,1.2,0.7,2.3,1.3,2.9c0.3-0.7,0.6-1.3,1-1.3c0.8,0,0.4,3.9,2.8,4.1c-0.1,0.2-0.1,0.4-0.1,0.6
		c0,1,0.8,1.8,1.8,1.8s1.8-0.8,1.8-1.8c0-0.2,0-0.4-0.1-0.6c2.3-0.1,1.9-4.1,2.7-4.1c0.4,0,0.6,0.5,1,1.3c0.6-0.7,1.3-1.8,1.3-2.9
		C115.9,281.8,114.9,280.5,113.3,280.5"/>
	<path fill="#1D1D1B" d="M166.9,286c-0.1-0.2-0.3-0.4-0.6-0.3c-5.3,1.6-12-2.9-18.4-7.1c-5.4-3.6-10.5-7-14.8-7
		c-1.6,0-3.1,0.3-4.3,1c-1.5,0.8-2.7,2.2-3.4,3.9c-0.7,1.8-1.5,3-2.1,4c-0.7,1.2-1.3,2-1.3,3.1c0,0.9,0.4,1.6,1.1,2.4
		c0.6,0.6,1.5,1.2,2.8,1.9c0.3,0.1,0.5,0.3,0.8,0.4c1.1,0.5,1.7,0.9,1.8,1.5c-2.1,0.9-4.9,1.7-8,2.3c-3.5,0.6-7.3,0.9-11.4,0.9
		s-7.9-0.3-11.4-0.9c-3.1-0.5-5.9-1.3-8-2.3c0.1-0.9,0.7-1.2,1.9-1.8c0.3-0.1,0.5-0.3,0.8-0.4c1.1-0.6,2.1-1.1,2.7-1.7
		c0.8-0.7,1.1-1.4,1.1-2.2c0-1.1-0.5-1.9-1.3-3.1c-0.6-1-1.4-2.2-2.1-4s-1.9-3.1-3.4-3.9c-1.2-0.7-2.7-1-4.3-1
		c-4.4,0-9.5,3.4-14.9,7c-6.4,4.3-13,8.7-18.4,7.1c-0.3-0.1-0.5,0.1-0.6,0.3c-0.1,0.2,0,0.5,0.3,0.6c1.6,0.7,3.1,1.8,4.4,2.9
		c1.9,1.5,3.7,2.9,5.8,2.9c1.9,0,3.9-0.6,6.4-1.9c2.2-1.1,4.4-2.6,6.5-4.1c4.2-2.9,8.6-5.9,12.7-6.2c-0.4,0.4-0.8,0.8-1.2,1.2
		c-1.2,1.1-2.3,2-2.3,4c0,1.5,0.5,2.6,1.2,4.1c0.2,0.4,0.4,0.9,0.7,1.5c0.5,1,0.7,1.9,0.9,3c0.1,0.5,0.3,1,0.4,1.7
		c0.3,1,0.8,2.8,3.8,4.4c3.5,1.8,9.6,2.7,18,2.7s14.5-0.9,18-2.7c3-1.5,3.5-3.4,3.8-4.4c0.2-0.6,0.3-1.2,0.4-1.7
		c0.3-1.1,0.5-1.9,0.9-3c0.3-0.7,0.7-1.4,1-1.9c0.6-1.2,1.1-2.1,1.1-3.5c0-1.9-1.1-2.9-2.4-4.1c-0.4-0.4-0.8-0.8-1.3-1.2
		c4.1,0.3,8.5,3.3,12.7,6.2c2.2,1.5,4.4,3,6.5,4.1c2.5,1.3,4.5,1.9,6.4,1.9c2,0,3.8-1.4,5.7-2.9c1.4-1.1,2.8-2.2,4.4-2.9
		C166.9,286.5,167,286.2,166.9,286"/>
	<path fill="#1D1D1B" d="M109.9,244.5v-20c2.1,0.1,4.1,0.6,6,1.6c2.1,1,3.9,2.5,5.5,4.4s2.9,4.1,3.7,6.5c0.9,2.4,1.3,5,1.4,7.6
		h-16.6V244.5z M109.2,216.1c-5.7,0-9.6,1.7-11.9,3.2c-1.3-0.8-1.9-1.5-1.9-2.4c0-3.2,9.1-3.5,13.8-3.5c4.6,0,13.8,0.3,13.8,3.5
		c0,0.9-0.6,1.7-1.9,2.4C118.8,217.8,114.9,216.1,109.2,216.1 M108.9,244.5H91.8c0-2.6,0.5-5.2,1.4-7.6c0.9-2.4,2.1-4.6,3.7-6.5
		s3.5-3.3,5.5-4.4c2-1,4.2-1.5,6.4-1.6L108.9,244.5L108.9,244.5z M134.8,243.2c-0.6-0.4-1.6-1.3-2.1-2.4c-0.6-1.3-3.3-6.5-3.7-7.2
		c-0.3-0.6-0.5-1.1-0.5-1.6c0-0.6,0.3-1,0.6-1.4c0.2-0.3,0.8-0.8,1-1.2c0.2-0.3,0.3-0.5,0.5-0.6c-1-1.7-1.9-2.9-3.2-4.4
		c-1.6-1.7-3.3-3.3-5.2-4.5c1-0.7,2-1.6,2-3.2c0-0.9-0.4-1.7-1.1-2.3c1.1-3.4,3-7.5,4.6-9.3l-3.4-1.4c0.9,1.4,0.9,2.9,0.7,3.9
		c-0.9-0.6-1.7-1.5-1.9-2.6c-0.2,1-0.7,2.7-1.3,3.7c1-0.5,1.8-0.7,2.8-0.3c-0.6,0.8-2.1,2-4.3,1.4c-1.2-0.3-2.4-0.9-2.4-1.9
		c0-0.6,0.4-1.2,1.2-1.2c0.7,0.1,0.8,1.2,0.6,1.7c1-0.6,2-3.4,0.5-3.9c-1.2-0.3-2.3,1.3-2.7,2.6c-0.2-1.5-0.9-3-2.1-2.9
		c-1.6,0.1-1.1,3-0.5,3.8c0.1-1,0.7-1.6,1.1-1.5c0.4,0,1,0.3,0.9,1.3c-0.1,0.9-1.4,1.5-3,1.5c-1.4,0-4-0.4-4.2-3.2
		c0.9,0.2,2.4,0.9,3,1.8c-0.2-1.7-0.2-2.9,0-4.6c-0.8,1.1-2.1,1.7-3,1.8c0.3-1.2,1.3-2.5,2.5-3.2H106c1.2,0.8,2.2,2,2.5,3.2
		c-0.9-0.2-2.2-0.7-3-1.8c0.2,1.8,0.2,3,0,4.6c0.6-0.9,2.1-1.6,3-1.8c-0.2,2.8-2.8,3.2-4.2,3.2c-1.5,0-2.8-0.6-2.9-1.5
		s0.5-1.2,0.9-1.3c0.5,0,1,0.5,1.1,1.5c0.6-0.7,1.1-3.7-0.5-3.8c-1.2-0.1-1.9,1.4-2.1,2.9c-0.4-1.3-1.5-2.9-2.7-2.6
		c-1.5,0.4-0.5,3.3,0.5,3.9c-0.2-0.5-0.2-1.6,0.6-1.7c0.8-0.1,1.2,0.6,1.2,1.2c0.1,1-1.2,1.6-2.4,1.9c-2.2,0.5-3.7-0.6-4.3-1.4
		c1-0.4,1.8-0.2,2.8,0.3c-0.5-1-1.1-2.7-1.3-3.7c-0.3,1.1-1,2-2,2.6c-0.2-0.9-0.1-2.5,0.8-3.9l-3.4,1.4c1.6,1.8,3.6,6,4.6,9.4
		c-0.7,0.6-1,1.3-1,2.2c0,1.6,1,2.5,2,3.2c-1.9,1.2-3.6,2.7-5.2,4.5c-2.4,2.6-4.2,5.7-5.5,9.1c0.5,0.5,2.5,2.7,3,3.3
		c0.8,1.1,1.4,2.2,1.4,3c0.1,1.5,0.4,2.2,1.2,3.2c0.3,0.3,0.6,1.5,0.7,2.3h17v18.6c-0.7,0-1.4,0.2-2,0.9c2,0.8,3.8,1.5,5.7,2.1
		c0.2-1.2,0.4-2,1-2.7c0,0-2.5-0.2-3.8-0.3v-18.5h16.7c-0.1,2.5-0.5,5-1.4,7.3c-0.9,2.4-2.1,4.6-3.7,6.5c-1.6,1.9-3.5,3.3-5.5,4.4
		c-0.3,0.2-0.3,0.4-0.7,0.5c-0.3,0.3-0.6,0.9-0.8,1.5c-0.2,0.6-0.3,1-0.4,1.7c0.8,0.2,1.2,0.4,1.9,0.5c5.9,1.5,7.3,1,7.6,0.8l0,0
		c1.3-1,2.5-2.2,3.7-3.5c2.3-2.6,4.2-5.7,5.5-9.2c1.3-3.6,2-7.3,2-11.2C134.8,244.2,134.8,243.9,134.8,243.2"/>
	<path fill="#1D1D1B" d="M119.2,232.6c-0.2,0.1-0.2,0.3-0.2,0.5c0.1,0.2,0.2,0.3,0.5,0.3c-0.2,0.2-0.3,0.4-0.4,0.7
		c0.3,0,0.6,0,0.8-0.2c-0.1,0.3,0,0.5,0.2,0.6c0.1,0.1,0.3,0.1,0.4,0c1.3,2,2.1,4.4,2.5,6.8c-0.2-0.1-0.4-0.2-0.6-0.2
		c0,0.3,0.2,0.6,0.3,0.8h-4.2c0-0.3-0.1-0.5-0.3-0.6c-0.2-0.1-0.4,0-0.6,0.2c0-0.2-0.1-0.5-0.3-0.7c-0.2,0.2-0.3,0.5-0.3,0.7
		c-0.2-0.2-0.4-0.3-0.6-0.2s-0.3,0.3-0.3,0.6h-3.6c0.1-0.2,0.2-0.4,0.3-0.7c-0.3,0-0.5,0.1-0.7,0.3v-5.8c0.3,0,0.5-0.1,0.6-0.3
		s0-0.4-0.2-0.6c0.2,0,0.5-0.1,0.7-0.3c-0.2-0.2-0.5-0.3-0.7-0.3c0.2-0.2,0.3-0.4,0.2-0.6c-0.1-0.2-0.3-0.3-0.6-0.3v-4.9
		c0.2,0.1,0.4,0.2,0.6,0.3c0-0.3,0-0.5-0.2-0.7c1.1,0.4,2.2,0.9,3.2,1.6C117.1,230.4,118.2,231.4,119.2,232.6 M123.9,241.2
		c0.3,0.2,0.2,0.7-0.2,0.6c-0.4-3-1.5-6-3.2-8.4l0,0c0.3-0.1,0.6-0.4,0.7-0.9c-0.5-0.1-0.9,0.2-1.1,0.5c-0.1-0.2-0.2-0.3-0.4-0.5
		c-1.1-1.4-2.3-2.5-3.6-3.4c-1.3-0.9-2.6-1.5-4-1.8c0-0.3,0.4-0.4,0.6-0.1c0-0.5-0.4-0.8-0.7-0.7c-0.1,0.1-0.3,0.2-0.3,0.4
		c-0.2-0.2-0.4-0.4-0.7-0.4c0,0.3,0.1,0.6,0.2,0.8c-0.2,0-0.4,0.1-0.4,0.2c-0.1,0.2,0,0.7,0.6,0.8c-0.3-0.2-0.1-0.6,0.2-0.6v6.5
		c-0.3-0.1-0.7-0.1-1.1,0.3c0.4,0.3,0.8,0.4,1.1,0.3v7.1c-0.4,0-0.4-0.4-0.2-0.6c-0.5,0-0.8,0.5-0.6,0.7c0.1,0.2,0.2,0.3,0.5,0.3
		c-0.2,0.2-0.3,0.4-0.3,0.7c0.3,0,0.6-0.1,0.7-0.3c0,0.3,0.1,0.5,0.3,0.5c0.2,0.1,0.7-0.1,0.7-0.6c-0.2,0.3-0.6,0.2-0.6-0.1h4.9
		c-0.1,0.3,0,0.7,0.3,1.1c0.3-0.4,0.4-0.8,0.3-1.1h5.5c0,0.3-0.4,0.4-0.6,0.2c0,0.5,0.5,0.7,0.7,0.6c0.2-0.1,0.3-0.3,0.3-0.5
		c0.2,0.2,0.4,0.3,0.7,0.3c0-0.3-0.1-0.6-0.3-0.7c0.3,0,0.5-0.1,0.5-0.3C124.7,241.7,124.5,241.2,123.9,241.2"/>
	<path fill="#1D1D1B" d="M121,239.4c0.2-0.1,0.4-0.3,0.5-0.4c-0.2,0.1-0.4,0-0.5,0c0.2-0.1,0.4,0,0.2-0.3c-0.2-0.3-0.3-0.3-0.5-0.1
		s-1.5-0.1-1.5-1.1c0.1,0.2,0.3,0.3,0.5,0.4c0.1,0,0.1,0,0.2,0.1c0,0,0.1,0,0.2,0s0.3,0.1,0.4,0h0.1l0,0c0.3-0.1,0.5-0.2,0.5-0.5
		c0-0.5-0.5-0.8-1-1.3c-0.2-0.2-0.4-0.4-0.5-0.5c-0.2-0.4-0.1-0.8-0.6-1.5c0-0.2-0.1-0.4-0.2-0.6c-0.3,0.5-0.4,1.4,0.3,2.1
		c0.5,0.6,1.7,1.2,1.7,1.7c0,0.1-0.1,0.2-0.3,0.3c-0.1,0-0.1,0-0.2,0h-0.1c-0.1,0-0.2-0.1-0.3-0.1c-0.1-0.1-0.3-0.2-0.4-0.3
		c-0.5-0.5-0.9-1.1-1.2-1.5c-0.6-0.7-0.3-1.4-0.2-2c0.4-0.5-0.2-1.6-0.6-1.9c0,0,0.1-0.3,0-0.6c-0.1,0.1-0.2,0-0.3,0
		c-0.1-0.2-0.1-0.2-0.3-0.3c-0.2,0-0.2-0.2-0.3-0.3c-0.1,0.1-0.2,0.2-0.3,0.3c-0.2,0-0.3,0-0.4,0.1s-0.2,0.2-0.4,0.2
		c-0.2,0-0.2,0.1-0.2,0.3c0,0.1,0,0.3,0.2,0.3c0,0,0,0,0.1,0l0.2,0.2l0.1-0.2c0.1-0.1,0.4-0.1,0.4,0.1c0,0.1,0.1,0.2-0.1,0.2
		s-0.3,0-0.5,0c-0.1,0-0.1,0.2-0.1,0.3s0.2,0.2,0.4,0.1c0.3-0.1,0.7-0.1,0.7,0.1c0,0.6-0.7,0.6-0.8,1.3c-0.2-0.1-0.3-0.2-0.4-0.4
		s-0.3-0.4-0.5-0.6c-0.1-0.1-0.3-0.3-0.5-0.4c-0.2-0.1-0.2-0.3-0.2-0.5s0.1-0.4,0.1-0.6c0,0,0-0.1-0.1-0.2c0-0.1-0.2-0.2-0.3-0.2
		c0,0,0.1,0.1,0.1,0.2l-0.1,0.1c0,0.1-0.1,0.1,0,0.2l0,0v0.1l0,0c-0.1-0.2-0.1-0.4-0.3-0.4h-0.1l0,0c0-0.1-0.2-0.3-0.4-0.1
		c0,0,0.1,0,0.1,0.1c0,0,0,0.1,0,0.2c0,0.2,0.1,0.2,0.3,0.2l0,0c0,0,0,0,0,0.1l0,0c-0.3-0.1-0.4,0-0.4,0.1v0.1
		c-0.1,0.1-0.1,0.2,0,0.3c0,0,0-0.2,0.1-0.2l0,0l0.1,0.1c0,0,0.1,0,0.1-0.1h0.1c0,0,0,0,0.1,0.1l0,0c-0.2,0.2-0.1,0.3,0.1,0.4
		c-0.1,0.2-0.4,0.1-0.4-0.2c-0.2,0.4,0.2,0.6,0.5,0.5c0,0.1,0,0.4,0.1,0.4c0,0,0-0.1,0.1-0.1l0,0c0,0.1,0,0.2,0.2,0.2
		c0-0.1,0-0.1,0-0.1c0,0.1,0.1,0.2,0.2,0.3c0.2,0.3,0.5,1,1.2,1.3c-0.4,0.2-0.6,0.5-0.8,0.8c-0.2,0.2-0.5,0.4-0.7,0.3
		c-0.1,0-0.1-0.1-0.2-0.2c-0.1-0.1-0.2-0.1-0.2-0.1s-0.1,0-0.1,0.1c-0.1-0.1-0.3,0-0.4,0.1c0.1,0,0.2,0,0.3,0.1v0.1
		c0,0.1,0.1,0.2,0.4,0.2c0,0,0.1,0,0,0c0,0-0.1,0.1-0.2,0.1c-0.2,0-0.2-0.2-0.4,0c0,0,0,0.1-0.1,0.1l0,0c-0.1,0-0.3,0.3-0.1,0.4
		c0-0.1,0-0.2,0.1-0.2l0.1,0.1c0.1,0.2,0.2,0.2,0.5-0.1l0,0c0,0.2-0.2,0.4,0,0.4h0.1l0,0c0,0.2,0.3,0.3,0.4,0.2
		c-0.1,0-0.2-0.1-0.2-0.2h0.1c0.1-0.1,0-0.3,0-0.4c0,0,0,0,0.1,0c0,0.1,0.1,0.2,0.3,0.1c0.1-0.1,0.1-0.1,0.2-0.2
		c0.2-0.1,0.5-0.2,0.6-0.1c0-0.1,0.1-0.3,0.4-0.4c0.3-0.1,0.4,0,0.5,0.1c0-0.1,0.1-0.3,0.3-0.5c0,1,1.4,1,1.7,1.6
		c-0.4-0.2-0.9-0.3-1.2-0.2c-0.3,0.1-0.9,0.4-1,0.8c-0.1,0.3,0.3,0.9,0.6,1.1c-0.4,0.1-0.6,0-0.9,0l0,0c-0.3,0-0.4-0.5-0.7-0.4
		c0,0-0.1,0-0.1,0.1l0,0c-0.1,0-0.3,0.2-0.3,0.3c0,0,0.1-0.1,0.2-0.1v0.1c0,0.1,0,0.1,0.1,0.1s0.1,0,0.1,0l0,0
		c0,0.1-0.5-0.1-0.4,0.3c0,0,0,0.1,0.1,0.1c0,0.1,0.1,0.2,0.3,0.2l-0.1-0.1h0.1c0,0,0.1,0,0.1-0.1l0,0l0,0c0,0,0,0,0,0.1v0.1
		c0,0.1,0.2,0.3,0.4,0.1c-0.1,0-0.2,0-0.2-0.1h0.1v-0.1l0,0h0.1h0.1c0,0.1,0.2,0.2,0.3,0.1c0.1,0,0.1-0.1,0.1-0.1s0.1,0.1,0.2,0.1
		c0-0.1,0.1-0.3,0.4-0.1l0.2-0.2c0,0,0.3,0.1,0.4,0c0.2-0.2,0.1-0.2,0.1-0.3c-0.1-0.3-0.2-0.3-0.3-0.6c-0.1-0.5,0.6-0.8,1-0.7
		c0.1,0.3,0.5,1.2,1.3,1.4c0.5,0.2,0.7-0.4,0.8-0.3l0.1,0.1c0,0.2,0,0.4,0,0.6c0,0.1-0.3,0-0.5,0c-0.1,0-0.2,0.1-0.2,0.1
		c-0.2,0-0.3,0.1-0.3,0.3c0,0,0.2-0.1,0.3-0.1v0.1c0,0.2,0.3,0.3,0.4,0.1c0,0,0.1,0,0,0c-0.1,0.1-0.3,0.3-0.1,0.4c0,0,0.1,0,0.1,0.1
		s0.1,0.3,0.2,0.3c0-0.1,0-0.1,0-0.2h0.1c0.1,0,0.1-0.3,0.2-0.3l0,0c0,0.2-0.1,0.3,0.1,0.4h0.1c0,0.1,0.2,0.2,0.4,0.1
		c0,0-0.1-0.1-0.2-0.1l0.1-0.1c0.1-0.3-0.2-0.3-0.2-0.4c0-0.2,0.3,0,0.3-0.4l0,0c0.1-0.1,0.3-0.2,0.3-0.3
		C121.2,239.5,121,239.5,121,239.4L121,239.4z"/>
	<path fill="#1D1D1B" d="M105.5,248.7h-0.2c-0.3,0-0.6,0.1-0.6,0.5s0.2,0.6,0.6,0.6h0.2c0,0.1,0,0.2,0,0.2c-0.1,0.5-0.2,1.4-0.4,2.3
		l-2.5-3.6c1.2-0.5,2.2-1,2.7-1C105.5,247.7,105.6,247.9,105.5,248.7 M104.5,255l-4-5.7c0.4-0.1,0.9-0.2,1.3-0.4l3,4.3
		C104.7,253.8,104.6,254.5,104.5,255 M104.1,257.6l-5.7-8.2c0.2,0,0.4,0,0.5,0c0.3,0,0.6,0,0.9-0.1l4.6,6.5
		C104.3,256.6,104.2,257.2,104.1,257.6 M97.7,249.5l6.2,9C100.6,257.2,97.3,254.2,97.7,249.5 M107,248.8h-0.3v-0.3
		c0-1-0.6-1.7-1.6-1.7s-2.8,1.2-5.4,1.2c-1.1,0-2.4-0.5-3.2-1l-0.3,0.8c0,0,0,0,0-0.1c0-0.4-0.3-0.6-0.6-0.6c-0.4,0-0.6,0.3-0.6,0.6
		s0.3,0.6,0.6,0.6c0.2,0,0.4-0.1,0.5-0.2l-0.3,0.8c0.1,0,0.2,0.1,0.3,0.1c-0.4,3.9,2.5,8.9,7.7,10.4c0.8-0.2,1.5-0.1,1.5,0.7
		c0,0.5-0.3,0.7-0.7,0.7c-0.3,0-0.5-0.2-0.5-0.4c0-0.3,0.6-0.1,0.7-0.4s-0.1-0.5-0.5-0.5s-0.9,0.2-0.9,0.8c0,0.7,0.6,1.1,1.2,1.1
		s1.8-0.3,1.6-1.7c0.3,0,0.6,0,0.6-0.3l0.1-0.8h-0.3l0.2-9h0.2c0.3,0,0.6-0.1,0.6-0.5C107.5,249,107.2,248.9,107,248.8"/>
	<path fill="#1D1D1B" d="M102.4,229.8c0-0.1,0.1-0.1,0.1-0.1c0.1,0,0.1,0,0.1-0.1s0-0.1-0.1-0.2c0.1,0,0.1,0,0.1-0.1s-0.1,0-0.1,0
		s0-0.1,0.1-0.1h0.1l0.3,0.2c0,0,0.1,0,0.1,0.1v0.1c0,0,0-0.1-0.1-0.1s-0.1,0,0,0.1c-0.1,0-0.2-0.1-0.2,0s0,0.1,0,0.2
		c0,0,0,0.1,0,0.2c0,0.1-0.1,0.2-0.2,0.1C102.4,230,102.4,229.9,102.4,229.8 M102.8,229c0,0.1-0.2,0.2-0.3,0.1
		c-0.1-0.1,0-0.1-0.1-0.3C102.6,228.9,102.7,229,102.8,229 M103,229.2c0,0,0.3,0.1,0.4,0.1c-0.2,0-0.1,0.1-0.3,0.1
		C103.1,229.4,103,229.3,103,229.2 M102.2,229.4L102.2,229.4L102.2,229.4 M105.9,230.7c1.2,0,1.8-0.4,1.8-0.8c0-1.4-3.3-0.5-3.3-1.3
		c0-0.1,0.1-0.3,0.2-0.4l0,0c1.7-0.1,1.7-1.3,2.9-1.5c-1.4-0.2-1.6,0.9-2.3,1c0.3-0.2,0.5-0.6,0.4-0.7c-0.3,0.4-0.9,0.4-1.3,0.9
		c-0.1,0.1-0.1,0.2-0.1,0.2c-0.2,0.1-0.4,0.3-0.4,0.5c0,1.3,3.4,0.4,3.4,1.3c0,0.3-0.6,0.5-1.5,0.5c-0.7,0-1.2-0.5-2.5-0.2
		c0-0.2,0.4-0.6,0.3-0.8c0.1,0,0.2-0.2,0.2-0.3c-0.1-0.1-0.2-0.1-0.3-0.1c0-0.1,0-0.1-0.1-0.2c0,0,0-0.2-0.1-0.2
		c0,0-0.1-0.1-0.3-0.2c-0.2-0.1-0.2-0.1-0.3-0.1h-0.2c-0.1,0-0.2,0-0.2,0.1c-0.1-0.1-0.1-0.1-0.2-0.1c-0.1,0.1-0.1,0.2,0,0.4
		c-0.1,0-0.2,0.3-0.4,0.3c0,0.1,0.1,0.1,0.1,0.1c-0.1,0.2-0.1,0.4-0.3,0.4l0.1,0.1c-0.1,0.3-0.2,0.6-0.2,0.8
		c-0.1-0.1-0.2-0.2-0.3-0.2c-0.2-0.1-0.2-0.2-0.1-0.4c0-0.2,0.1-0.3,0.1-0.5c0,0,0-0.1,0-0.2c0-0.1-0.2-0.2-0.3-0.2
		c0,0,0.1,0.1,0.1,0.2l-0.1,0.1c0,0.1-0.1,0.1,0,0.2l0,0c0,0,0,0,0,0.1l0,0c0-0.1-0.1-0.3-0.2-0.3h-0.1l0,0c0-0.1-0.1-0.2-0.3-0.1
		h0.1c0,0,0,0.1-0.1,0.1c0,0.1,0.1,0.2,0.2,0.2l0,0l0,0l0,0c-0.2-0.1-0.4,0-0.4,0.1v0.1c-0.1,0-0.1,0.2,0,0.3c0,0,0-0.1,0.1-0.1l0,0
		c0,0,0,0,0,0.1c0,0,0.1,0,0.2,0c0,0,0,0,0.1,0c0,0,0,0,0.1,0l0,0c-0.2,0.1-0.2,0.3,0,0.3l0,0c0,0.3-0.4,0.2-0.4-0.1
		c-0.3,0.3,0.1,0.5,0.4,0.4l0,0c0,0.1,0,0.1,0.1,0.1c0,0,0-0.1,0.1-0.1l0,0c0,0.1,0,0.2,0.1,0.2c0-0.1,0-0.1,0-0.1s0.1,0.2,0.3,0.4
		c-0.3,0.1-0.7,0.2-0.7,0.2c-0.1,0-0.5,0-0.6,0c-0.2,0.1-0.7,0.3-0.8,0.1c0-0.1,0-0.1-0.1-0.2c-0.1-0.1-0.1-0.1-0.2-0.1h-0.1
		c-0.1-0.1-0.3-0.1-0.3,0c0.1,0,0.1,0,0.2,0.1v0.1c0,0,0,0.2,0.3,0.3l0,0c0,0-0.1,0-0.2,0c-0.1-0.1-0.1-0.2-0.3-0.1c0,0,0,0-0.1,0
		l0,0c-0.1,0-0.3,0.1-0.2,0.3c0,0,0.1-0.1,0.2-0.1v0.1c0,0.2,0.1,0.3,0.4,0.1l0,0c-0.1,0.1-0.3,0.3-0.1,0.4c0,0,0,0,0.1,0l0,0
		c0,0.2,0.1,0.3,0.3,0.3c0,0-0.1-0.1-0.1-0.3h0.1c0.2-0.1,0.1-0.2,0.2-0.3l0,0c0,0.1,0,0.2,0.2,0.2s0.2-0.2,0.2-0.3l0,0
		c0.1,0,0.1,0.1,0.1,0.2l0.1-0.1c0,0.1,0,0.2-0.1,0.3c0.1,0,0.2-0.1,0.3-0.3c0,0,0,0.1,0.1,0.1l0,0c0.1,0,0.2,0,0.4,0l0,0
		c0,0.1,0,0.1,0,0.2c0,0,0-0.1,0.1-0.1c0,0,0,0.2,0.1,0.3c0-0.4,0.3-0.3,0.6-0.5l0,0L101,232c0.1,0,0.3-0.1,0.3-0.3
		c0,0,0.1-0.1,0.2-0.2c0.1,0,0.3,0,0.3-0.1c0,0,0.1,0.2,0,0.2c0.3,0,0.6-0.3,0.7-0.4c0.6-0.1-0.4-0.6,0.9-0.5c0.1,0,0.3-0.1,0.4-0.1
		c-0.1,0.2-0.1,0.6,0.1,0.6c0.1,0,0.3,0.1,0.3,0.1l0,0c-0.1,0-0.2,0-0.3,0.1c-0.3,0.2-0.3-0.5-0.6-0.3c0,0-0.1,0-0.1,0.1
		c-0.1,0-0.3,0.2-0.3,0.3c0,0,0.1-0.1,0.2-0.1v0.1c0,0,0,0.1,0.1,0.1s0.1,0,0.1,0l0,0c0,0.1-0.4-0.1-0.3,0.3c0,0,0,0.1,0.1,0.1
		c0,0.1,0.1,0.2,0.3,0.1l-0.1-0.1h0.1c0,0,0,0,0-0.1l0,0l0,0c0,0,0,0,0,0.1v0.1c0,0.1,0.2,0.3,0.3,0.1c0,0-0.2,0-0.2-0.1h0.1V232
		l0,0h0.1c0,0,0,0,0.1,0c0,0.1,0.1,0.2,0.3,0.1c0.2-0.1,0-0.3,0.2-0.3h0.1c0.2,0,0.4,0,0.5,0c0-0.1,0-0.4-0.2-0.5
		c-0.1,0,0-0.2-0.1-0.3c0.2,0.1,0.4,0.2,0.6,0.2c0.5,0,0-0.1,0.2-0.2c0.2-0.2,0.5-0.1,0.6-0.1s0.1,0,0.1,0.1c0,0.3,0,0.3,0,0.4
		c0,0.1-0.2,0-0.4,0c-0.1,0-0.2,0-0.2,0.1c-0.1,0-0.3,0.1-0.2,0.3c0,0,0.1-0.1,0.2-0.1l0,0c0,0.2,0.2,0.2,0.3,0.1c0,0,0.1,0,0,0
		c-0.1,0.1-0.3,0.2-0.1,0.3c0,0,0,0,0.1,0c0,0.1,0.1,0.2,0.1,0.2c0-0.1,0-0.1,0-0.2h0.1c0.1,0,0.1-0.2,0.2-0.3l0,0
		c0,0.1-0.1,0.3,0,0.3c0,0,0,0,0.1,0c0,0.1,0.1,0.2,0.3,0.1c0,0-0.1,0-0.1-0.1l0.1-0.1c0.1-0.3-0.1-0.3-0.1-0.4c0-0.1,0.2,0,0.2-0.3
		c0,0,0-0.1-0.1-0.1l0,0l0,0c0.1,0,0.1,0,0.2-0.1c-0.2,0-0.1-0.1-0.1-0.2l0,0c0.1,0,0.1-0.1,0.1-0.3c-0.1,0.1-0.3,0.2-0.3,0
		c0,0,0-0.1-0.2-0.1C106.6,231,106.5,230.8,105.9,230.7C105.9,230.8,105.8,230.7,105.9,230.7"/>
	<path fill="#1D1D1B" d="M100.4,237.1L100.4,237.1L100.4,237.1 M99.4,235.1c0-0.1,0.1-0.2,0.1-0.2c0.1,0,0.1,0,0.2-0.1
		c0-0.1-0.1-0.1-0.1-0.2c0.1,0,0.1-0.1,0.1-0.1c0-0.1-0.1,0-0.1,0s0-0.1,0.1-0.1h0.1l0.4,0.2c0,0,0.1,0,0.1,0.1s0,0.1,0,0.1
		s0-0.1-0.1-0.1s-0.1,0.1,0,0.1c-0.1,0-0.2-0.1-0.2,0s0,0.1,0,0.2c0,0,0,0.1,0,0.2c0,0.1-0.1,0.2-0.3,0.1
		C99.4,235.3,99.4,235.1,99.4,235.1 M99.9,234.1c-0.1,0.1-0.2,0.2-0.3,0.1c-0.1-0.1,0-0.1-0.1-0.3C99.6,234,99.8,234.1,99.9,234.1
		 M100.1,234.2c0,0,0.3,0.2,0.5,0.2c-0.2,0-0.2,0.1-0.3,0.1C100.2,234.6,100.1,234.4,100.1,234.2 M98.3,236
		C98.2,235.9,98.2,235.9,98.3,236C98.3,235.9,98.3,235.9,98.3,236 M107.6,235.3c0-0.4-0.4-0.6-1.6-0.6s-3.9,0.4-3.9-0.2
		c0-0.3,0.5-0.3,1.1-0.3c0.1,0,0.1,0.1,0.3,0.1c1.5,0.5,3.3-0.4,4.3-0.1c-1.1-0.8-2,0-3.2-0.2c0.7,0,0.9-0.2,0.9-0.4
		c-0.5,0.3-1.5-0.2-2.2,0.2c0,0-0.1,0-0.1,0.1c-0.9,0-1.5,0-1.5,0.5c0,1.2,3.2,0.5,4.2,0.5s1.2,0.1,1.2,0.3c0,0.3-1,0.4-1.6,0.4
		c-0.9,0-3.5-0.5-5.1-0.1c0.1-0.3,0.4-0.6,0.3-0.8c0.1-0.1,0.2-0.2,0.2-0.3c-0.1-0.1-0.2-0.1-0.3-0.1c0-0.1,0-0.2-0.1-0.2
		c0,0,0-0.2-0.1-0.2s-0.2-0.2-0.3-0.2c-0.2-0.1-0.3-0.1-0.4-0.1h-0.2c-0.1,0-0.2,0-0.2,0.1c-0.1-0.1-0.2-0.1-0.3-0.1
		c-0.1,0.1-0.1,0.2,0,0.4c-0.1,0-0.3,0.4-0.4,0.3c0,0.1,0.1,0.2,0.1,0.2c-0.1,0.2-0.2,0.5-0.3,0.5c0.1,0.1,0.1,0.2,0.2,0.2
		c0,0.2,0,0.3,0,0.5l-0.3-0.1c0,0,0,0-0.1,0h-0.1h0.1l-0.1-0.1c-0.1-0.1-0.3-0.3-0.5-0.4c-0.2-0.1-0.2-0.3-0.2-0.5s0.1-0.4,0.1-0.6
		c0,0,0-0.1,0-0.2c0-0.1-0.2-0.2-0.3-0.2c0,0,0.1,0.1,0.1,0.2l-0.1,0.1c0,0-0.1,0.1,0,0.2l0,0c0,0,0,0,0,0.1l0,0
		c0-0.1-0.1-0.4-0.2-0.4h-0.1l0,0c0-0.2-0.2-0.3-0.3-0.1c0,0,0.1,0,0.1,0.1c0,0-0.1,0.1-0.1,0.2c0,0.2,0.1,0.2,0.3,0.2
		c0,0,0,0,0.1,0c0,0,0,0,0,0.1l0,0c-0.3-0.1-0.4,0-0.4,0.1v0.1c-0.1,0.1-0.1,0.2,0,0.3c0-0.1,0-0.1,0.1-0.2l0,0c0,0,0,0.1,0.1,0.1
		c0,0,0.1,0,0.2-0.1c0,0,0,0,0.1,0c0,0,0,0,0.1,0.1l0,0c-0.2,0.2-0.2,0.4,0.1,0.4l0,0c0,0.3-0.5,0.3-0.4-0.1
		c-0.3,0.4,0.2,0.7,0.5,0.5l0,0c0,0.1,0,0.1,0.1,0.1c0,0,0-0.1,0.1-0.1l0,0c0,0.1,0,0.2,0.2,0.2c0-0.1,0-0.1,0-0.1
		c0.1,0,0.2,0.3,0.5,0.4c0.2,0.1,0.4,0.3,0.5,0.2c0,0.2,0.2,0.5,0.1,0.5s-0.7,0-0.8,0c-0.2,0.1-0.8,0.3-0.9,0.1
		c-0.1-0.1,0-0.2-0.1-0.3s-0.1-0.1-0.2-0.1h-0.1c-0.1-0.1-0.3-0.1-0.4,0c0.1,0,0.1,0,0.2,0.1v0.1c0,0.1,0,0.2,0.3,0.3l0,0
		c-0.1,0-0.1,0-0.2,0c-0.1-0.1-0.2-0.3-0.3-0.2h-0.1l0,0c-0.2,0-0.4,0.2-0.3,0.4c0,0,0.1-0.1,0.2-0.1v0.1c0,0.2,0.1,0.3,0.5,0.1l0,0
		c-0.1,0.1-0.3,0.3-0.1,0.4c0,0,0,0,0.1,0.1l0,0c0,0.2,0.2,0.4,0.3,0.4c0,0-0.1-0.2-0.1-0.3H97c0.2-0.1,0.1-0.3,0.2-0.3l0,0
		c0,0.1,0.1,0.3,0.3,0.3c0.2,0,0.3-0.2,0.3-0.3l0,0c0.1,0,0.1,0.1,0.1,0.2c0,0,0.1-0.1,0.2-0.1c0,0.1,0.1,0.2-0.1,0.4
		c0.1,0,0.3-0.1,0.3-0.4l0.1,0.1l0,0c0.1,0,0.2,0,0.4,0l0,0c0,0.1,0,0.2,0,0.2l0.1-0.1c0,0,0,0.2,0.1,0.3c0-0.5,0.3-0.3,0.7-0.5l0,0
		c0,0.1-0.1,0.1-0.1,0.2c0.4,0.1,1-0.5,1-0.7c0.2,0,0.3,0,0.3,0c1.1,0.1,0.3-0.9,2-0.6c0.1,0,0.3-0.1,0.4-0.2
		c-0.1,0.2-0.1,0.7,0.1,0.7c0.1,0,0.3,0.1,0.4,0.2l0,0c-0.1,0-0.3,0-0.3,0.1c-0.4,0.2-0.4-0.5-0.7-0.4c0,0-0.1,0-0.1,0.1
		c-0.1,0-0.4,0.2-0.3,0.3c0,0,0.1-0.1,0.2-0.1v0.1c0,0.1,0,0.1,0.1,0.1s0.1,0,0.1,0l0,0c0,0.1-0.5-0.1-0.4,0.3c0,0,0,0.1,0.1,0.1
		c0,0.1,0.1,0.2,0.3,0.2l-0.1-0.1h0.1c0,0,0,0,0-0.1l0,0l0,0c0,0,0,0,0,0.1v0.1c0,0.2,0.2,0.3,0.4,0.2c0,0-0.2,0-0.2-0.1h0.1
		c0,0,0-0.1,0-0.2l0,0h0.1h0.1c0,0.1,0.2,0.2,0.3,0.1c0.3-0.1,0-0.3,0.2-0.4h0.1c0.2,0,0.5,0,0.6,0c0-0.1,0-0.5-0.2-0.6
		c-0.1-0.1,0-0.2-0.1-0.4c0.2,0.1,0.4,0.2,0.7,0.2c0.6,0,0.7-0.1,0.9-0.2c0.3-0.2,0.6-0.1,0.7-0.1s0.1,0,0.1,0.1
		c-0.1,0.3,0,0.3,0,0.4c0,0.1-0.3,0-0.5,0c-0.1,0-0.2,0-0.2,0.1c-0.1,0-0.3,0.1-0.3,0.3c0,0,0.1-0.1,0.3-0.1v0.1
		c0,0.2,0.2,0.3,0.4,0.1c0,0,0.1,0,0,0c-0.1,0.1-0.3,0.3-0.1,0.3c0,0,0,0,0.1,0.1c0,0.1,0.1,0.2,0.2,0.3c0-0.1,0-0.1,0-0.2h0.1
		c0.1,0,0.1-0.2,0.2-0.3l0,0c0,0.1-0.1,0.3,0,0.4h0.1c0,0.1,0.2,0.2,0.3,0.1l-0.1-0.1l0.1-0.1c0.1-0.3-0.2-0.3-0.2-0.4
		c0-0.1,0.3,0,0.3-0.3c0-0.1,0-0.1-0.1-0.2l0,0c0.1,0,0.2,0,0.2-0.1c-0.2,0-0.2-0.2-0.2-0.3l0,0c0.1,0,0.1-0.1,0.1-0.3
		c-0.1,0.1-0.3,0.2-0.3,0c0,0,0-0.2-0.2-0.1c-0.4,0-0.6,0-1.3-0.1C106.4,235.9,107.6,235.7,107.6,235.3"/>
	<path fill="#1D1D1B" d="M98.1,240.3c0-0.1,0.1-0.1,0.1-0.1c0.1,0,0.1,0,0.1-0.1s0-0.1-0.1-0.2c0.1,0,0.1-0.1,0.1-0.1s-0.1,0-0.2,0
		c0,0,0-0.1,0.1-0.1h0.1l0.4,0.2l0.1,0.1v0.1c0,0,0-0.1-0.1-0.1s-0.1,0,0,0.1c-0.1,0-0.2-0.1-0.2,0s0,0.1,0,0.2c0,0,0,0.1,0,0.2
		c0,0.1-0.1,0.2-0.3,0.1C98,240.6,98,240.4,98.1,240.3 M98.5,239.4c-0.1,0.1-0.2,0.2-0.3,0.1c-0.1-0.1,0-0.1-0.1-0.3
		C98.2,239.3,98.4,239.4,98.5,239.4 M98.7,239.6c0,0,0.3,0.1,0.4,0.2c-0.2,0-0.1,0.1-0.3,0.1C98.8,239.9,98.7,239.7,98.7,239.6
		 M107,240.5c0-0.3-0.4-0.6-1.5-0.6s-4.6,0.4-4.6-0.2c0-0.4,1.2-0.2,2.1-0.2c0,0.1,0.1,0.1,0.3,0.2c1.5,0.4,3-0.6,4-0.2
		c-0.8-0.7-1.9,0.1-3-0.1c0.6,0,1.3-0.1,1.4-0.3c-0.5,0.3-1.9-0.2-2.5,0.2c0,0-0.1,0-0.1,0.1c-1.1,0-2.4-0.1-2.4,0.5
		c0,1.1,4,0.5,4.9,0.5c1,0,1.2,0.1,1.2,0.3c0,0.3-1,0.3-1.5,0.3c-0.9,0-4.6-0.5-6.1,0c0.1-0.3,0.4-0.6,0.3-0.8
		c0.1-0.1,0.2-0.2,0.2-0.3c-0.1-0.1-0.2-0.1-0.3-0.1c0-0.1,0-0.1-0.1-0.2c0,0,0-0.2-0.1-0.2s-0.2-0.2-0.3-0.2
		c-0.2-0.1-0.3-0.1-0.3-0.1h-0.2c-0.1,0-0.2,0-0.2,0.1c-0.1-0.1-0.1-0.1-0.3-0.1c-0.1,0.1-0.1,0.2,0,0.4c-0.1,0-0.3,0.3-0.4,0.3
		c0,0.1,0.1,0.1,0.1,0.1c-0.1,0.2-0.2,0.4-0.3,0.5c0,0.1,0.1,0.1,0.1,0.1c0,0.1,0,0.2,0,0.4l-0.1-0.1c-0.1,0-0.2,0-0.2,0
		s-0.1,0-0.2,0c-0.2,0-0.3-0.3-0.6-0.5c-0.2-0.1-0.2-0.2-0.2-0.5c0-0.2,0.1-0.4,0.1-0.6c0,0,0-0.1-0.1-0.2c0-0.1-0.2-0.2-0.3-0.2
		c0.1,0,0.1,0.1,0.1,0.2l-0.1,0.1c0,0-0.1,0.1,0,0.2l0,0c0,0,0,0,0,0.1l0,0c0-0.1-0.1-0.3-0.2-0.3h-0.1l0,0c0-0.1-0.2-0.3-0.3-0.1
		c0,0,0.1,0,0.1,0.1s0,0.1,0,0.2c0,0.2,0.1,0.2,0.3,0.2l0,0c0,0,0,0,0,0.1l0,0c-0.3-0.1-0.4,0-0.4,0.1v0.1c-0.1,0.1-0.1,0.2,0,0.3
		c0,0,0-0.1,0.1-0.2l0,0l0.1,0.1c0,0,0.1,0,0.1-0.1c0,0,0,0,0.1,0c0,0,0,0,0.1,0l0,0c-0.2,0.2-0.1,0.3,0.1,0.4l0,0
		c0,0.3-0.4,0.3-0.4-0.1c-0.2,0.4,0.2,0.6,0.5,0.5l0,0c0,0.1,0,0.1,0.1,0.1c0,0,0-0.1,0.1-0.1l0,0c0,0.1,0,0.2,0.2,0.2
		c0-0.1,0-0.1,0-0.1c0.1,0,0.3,0.4,0.7,0.7c0.1,0,0.2,0,0.3-0.1c0,0,0,0.1,0.1,0.1c0,0.2,0.1,0.5,0.1,0.5c-0.1,0-0.8,0-0.9,0
		c-0.2,0.1-0.7,0.3-0.9,0.1c0-0.1,0-0.1-0.1-0.3c0-0.1-0.1-0.1-0.2-0.1h-0.1c-0.1-0.1-0.3-0.1-0.4,0c0.1,0,0.1,0,0.2,0.1
		c0,0,0,0.1-0.1,0.1c0,0.1,0,0.2,0.3,0.3l0,0c0,0-0.1,0-0.2,0c-0.1-0.1-0.1-0.2-0.3-0.2h-0.1l0,0c-0.1,0-0.4,0.2-0.3,0.3
		c0,0,0.1-0.1,0.2-0.2v0.1c0,0.2,0.1,0.3,0.5,0.1l0,0c-0.1,0.1-0.3,0.3-0.1,0.4c0,0,0,0,0.1,0.1l0,0c0,0.2,0.2,0.3,0.3,0.3
		c0,0-0.1-0.1-0.1-0.3h0.1c0.2-0.1,0.1-0.3,0.2-0.3l0,0c0,0.1,0.1,0.3,0.3,0.2c0.2,0,0.3-0.2,0.3-0.3l0,0c0.1,0,0.1,0.1,0.1,0.2
		l0.1-0.1c0,0.1,0,0.2-0.1,0.3c0.1,0,0.3-0.1,0.3-0.3l0.1,0.1l0,0c0.1,0,0.2,0,0.4,0l0,0c0,0.1,0,0.2,0,0.2s0-0.1,0.1-0.1
		c0,0,0,0.2,0.1,0.3c0.1-0.5,0.6-0.2,1-0.5l0,0c0,0-0.1,0.1-0.1,0.2c0.1,0,0.3-0.1,0.4-0.2l0,0l0.5-0.2v-0.1c0.1,0,0.1,0,0.2,0l0,0
		c0.3,0,0.3-0.2,0.4-0.2c1.8,0.3,0.8-0.8,3-0.6c0.1,0,0.1,0,0.2-0.1c-0.1,0.2-0.1,0.6,0.1,0.6c0.1,0,0.3,0.1,0.4,0.2l0,0
		c-0.1,0-0.3,0-0.3,0.1c-0.3,0.2-0.4-0.5-0.7-0.4l-0.1,0.1c-0.1,0-0.3,0.2-0.3,0.3c0,0,0.1-0.1,0.2-0.1v0.1c0,0.1,0,0.1,0.1,0.1
		s0.1,0,0.1,0l0,0c0,0.1-0.4-0.1-0.4,0.3c0,0,0,0.1,0.1,0.1c0,0.1,0.1,0.2,0.3,0.2l-0.1-0.1h0.1c0,0,0,0,0-0.1l0,0l0,0
		c0,0,0,0,0,0.1v0.1c0,0.1,0.2,0.3,0.4,0.1c0,0-0.2,0-0.2-0.1h0.1v-0.1l0,0h0.1h0.1c0,0.1,0.1,0.2,0.3,0.1c0.2-0.1,0-0.3,0.2-0.3
		h0.1c0.2,0,0.5,0,0.5-0.1c0.1-0.1,0-0.4-0.2-0.5c-0.1-0.1,0-0.2-0.1-0.4c0.2,0.1,0.4,0.2,0.7,0.2c0.5,0,0.7-0.1,0.9-0.2
		c0.3-0.2,0.5-0.1,0.6-0.1s0.1,0,0.1,0.1c-0.1,0.3,0,0.3,0,0.4c0,0.1-0.3,0-0.4,0s-0.2,0.1-0.2,0.1c-0.1,0-0.3,0.1-0.3,0.3
		c0,0,0.1-0.1,0.2-0.1c0,0,0,0,0,0.1c0,0.2,0.2,0.3,0.3,0.1c0,0,0.1,0,0,0c-0.1,0.1-0.3,0.3-0.1,0.3c0,0,0,0,0.1,0
		c0,0.1,0.1,0.2,0.2,0.2c0,0,0-0.1,0-0.2h0.1c0.1,0,0.1-0.2,0.2-0.3l0,0c0,0.1-0.1,0.3,0,0.3h0.1c0,0.1,0.1,0.2,0.3,0.1
		c0,0-0.1,0-0.1-0.1l0.1-0.1c0.1-0.3-0.2-0.3-0.2-0.4c0-0.1,0.3,0,0.3-0.3c0,0,0-0.1-0.1-0.2l0,0l0,0c0.1,0,0.2,0,0.2-0.1
		c-0.2,0-0.1-0.2-0.2-0.3l0,0c0.1,0,0.1-0.1,0.1-0.3c-0.1,0.1-0.3,0.2-0.3,0c0,0,0-0.2-0.2-0.1c-0.3,0-0.6,0-1.2-0.1
		C105.9,241.1,107,240.9,107,240.5"/>
	<path fill="#1D1D1B" d="M115.8,249.6L115.8,249.6L115.8,249.6 M114.1,247L114.1,247L114.1,247 M114,247.4L114,247.4L114,247.4z
		 M114.3,247.9c0-0.1,0.1-0.1,0.1-0.1c0.1,0,0.1,0,0.1-0.1s0-0.1-0.1-0.2c0.1,0,0.1-0.1,0.1-0.1h-0.1c0,0,0-0.1,0.1-0.1h0.1l0.4,0.2
		c0,0,0.1,0,0.1,0.1v0.1c0,0,0-0.1-0.1-0.1c0,0,0,0,0,0.1c-0.1,0-0.2-0.1-0.2,0s0,0.1,0,0.2c0,0,0,0.1,0,0.2c0,0.1-0.1,0.2-0.3,0.1
		C114.3,248.1,114.3,248,114.3,247.9 M114.7,247c-0.1,0.1-0.2,0.2-0.3,0.1c-0.1-0.1,0-0.1-0.1-0.3C114.4,246.8,114.7,247,114.7,247
		 M115,247.1c0,0,0.3,0.1,0.4,0.2c-0.2,0.1-0.2,0.1-0.3,0.1C115,247.4,115,247.2,115,247.1 M123.2,249.2L123.2,249.2
		c0.1-0.1,0.2-0.2,0.1-0.3c-0.1,0.1-0.3,0.2-0.3,0c0,0,0-0.1-0.2-0.1c-0.3,0-0.7,0-1.3-0.1c0,0-0.1,0,0,0c0.6,0,1.8-0.2,1.8-0.6
		c0-0.3-0.4-0.6-1.5-0.6s-4.6,0.4-4.6-0.2c0-0.4,1.2-0.2,2-0.2c0,0.1,0.1,0.1,0.3,0.2c1.5,0.4,3.1-0.7,4-0.4c-1.1-0.4-1.9,0.3-3,0.1
		c0.6,0,1.3-0.1,1.4-0.3c-0.5,0.3-1.9-0.2-2.5,0.2c0,0-0.1,0-0.1,0.1c-1.1,0-2.4-0.1-2.4,0.5c0,1.1,4,0.5,4.9,0.5
		c1,0,1.2,0.1,1.2,0.3c0,0.3-0.9,0.3-1.5,0.3c-0.9,0-4.6-0.5-6.1-0.1c0.1-0.3,0.4-0.6,0.3-0.8c0.1-0.1,0.2-0.2,0.2-0.3
		c-0.1-0.1-0.2-0.1-0.3-0.1c0-0.1,0-0.1-0.1-0.2c0,0,0-0.2-0.1-0.2c0-0.1-0.2-0.2-0.3-0.2c-0.2-0.1-0.3-0.1-0.3-0.1h-0.2
		c-0.1,0-0.2,0-0.2,0.1c-0.1-0.1-0.2-0.1-0.3-0.1c0,0.1-0.1,0.2,0,0.4c-0.1,0-0.3,0.3-0.4,0.3c0,0.1,0.1,0.1,0.1,0.2
		c-0.1,0.2-0.2,0.4-0.3,0.4c0.1,0.1,0.1,0.2,0.2,0.2c0,0.1,0,0.2,0,0.3l-0.2-0.1c-0.1,0-0.2,0-0.2,0s-0.1,0-0.2,0
		c-0.2,0-0.3-0.3-0.6-0.5c-0.2-0.1-0.2-0.2-0.2-0.5c0-0.2,0.1-0.4,0.1-0.6c0,0,0-0.1-0.1-0.2c0-0.1-0.2-0.2-0.3-0.2
		c0,0,0.1,0.1,0.1,0.2l-0.1,0.1c0,0.1,0,0.1,0,0.2l0,0c0,0,0,0,0,0.1l0,0c0-0.1-0.1-0.3-0.2-0.4h-0.1l0,0c0-0.1-0.2-0.3-0.3-0.1
		c0,0,0.1,0,0.1,0.1s0,0.1,0,0.2c0,0.1,0.1,0.2,0.3,0.2h0.1c0,0,0,0,0,0.1l0,0c-0.3-0.1-0.4,0-0.4,0.1v0.1c-0.1,0.1-0.1,0.2,0.1,0.3
		c0,0,0-0.1,0.1-0.2l0,0h0.1c0,0,0.1,0,0.2,0c0,0,0,0,0.1,0c0,0,0,0,0.1,0l0,0c-0.2,0.2-0.1,0.3,0.1,0.4c0,0,0,0,0,0.1
		c0,0.3-0.4,0.3-0.4-0.1c-0.2,0.4,0.2,0.6,0.5,0.5l0,0l0.1,0.1c0,0,0-0.1,0.1-0.1l0,0c0,0.1,0,0.2,0.2,0.2c0-0.1,0-0.1,0-0.1
		c0.1,0,0.3,0.5,0.7,0.7c0,0,0.2-0.1,0.3-0.2c0,0.1,0.1,0.2,0.2,0.2h0.1c0,0.2,0.2,0.4,0.2,0.4c-0.1,0-0.5-0.1-0.6,0
		c-0.2,0.1-0.7,0.3-0.9,0.1c-0.1-0.1,0-0.1-0.1-0.3c0-0.1-0.1-0.1-0.2-0.1h-0.1c-0.1-0.1-0.3-0.1-0.4,0c0.1,0,0.1,0,0.2,0.1v0.1
		c0,0.1,0,0.2,0.3,0.3c0,0,0.1,0,0,0c0,0-0.1,0-0.2,0c-0.1-0.1-0.2-0.2-0.3-0.2c0,0-0.1,0-0.1,0.1l0,0c-0.1,0-0.4,0.2-0.3,0.3
		c0,0,0.1-0.1,0.2-0.2v0.1c0,0.2,0.1,0.3,0.5,0.1l0,0c-0.1,0.1-0.3,0.3-0.1,0.4c0,0,0,0,0.1,0.1l0,0c0,0.2,0.2,0.3,0.3,0.3
		c0,0-0.1-0.1-0.1-0.3h0.1c0.2-0.1,0.1-0.3,0.2-0.3l0,0c0,0.1,0.1,0.3,0.3,0.2c0.2,0,0.3-0.2,0.3-0.3l0,0c0.1,0,0.1,0.1,0.1,0.2
		c0,0,0.1-0.1,0.2-0.1c0,0.1,0,0.2-0.1,0.3c0.1,0,0.3-0.1,0.3-0.3l0.1,0.1l0,0c0.1,0,0.2,0,0.4,0l0,0c0,0.1,0,0.2,0,0.2
		s0-0.1,0.1-0.1c0,0,0,0.2,0.1,0.3c0-0.5,0.3-0.3,0.6-0.5l0,0c0,0-0.1,0.1-0.1,0.2c0.1,0.1,0.6-0.2,0.6-0.4c0,0,0.2-0.1,0.3-0.1
		c0.3,0,0.3-0.2,0.4-0.2c1.9,0.3,0.8-0.8,3-0.6c0.1,0,0.1-0.1,0.2-0.2c-0.1,0.2-0.1,0.6,0.1,0.7c0.1,0,0.3,0.1,0.4,0.1l0,0
		c-0.1,0-0.3,0-0.3,0.1c-0.3,0.2-0.3-0.5-0.7-0.4c0,0-0.1,0-0.1,0.1c-0.2,0-0.3,0.2-0.3,0.3c0,0,0.1-0.1,0.2-0.1v0.1
		c0,0.1,0,0.1,0.1,0.1s0.1,0,0.1,0l0,0c0,0.1-0.4-0.1-0.4,0.3c0,0,0,0.1,0.1,0.1c0,0.1,0.1,0.2,0.3,0.2l-0.1-0.1h0.1c0,0,0,0,0-0.1
		l0,0l0,0v0.1v0.1c0,0.1,0.2,0.3,0.4,0.1c-0.1,0-0.2,0-0.2-0.1h0.1v-0.1l0,0h0.1h0.1c0,0.1,0.1,0.2,0.3,0.1c0.2-0.1,0-0.3,0.2-0.3
		c0,0,0.1,0,0.2,0c0.2,0,0.5,0,0.5-0.1s0-0.4-0.2-0.6c-0.1-0.1,0-0.2-0.1-0.4c0.2,0.1,0.4,0.2,0.7,0.2c0.5,0,0.7-0.1,0.9-0.2
		c0.3-0.2,0.6-0.1,0.6-0.1c0.1,0,0.1,0,0.1,0.1c-0.1,0.3,0,0.3-0.1,0.4c-0.1,0.1-0.3,0-0.4,0s-0.2,0.1-0.2,0.1
		c-0.1,0-0.3,0.2-0.3,0.3c0,0,0.1-0.1,0.3-0.1l0,0c0,0.2,0.2,0.3,0.3,0.1c0,0,0.1,0,0,0c-0.1,0.1-0.3,0.3-0.2,0.3c0,0,0,0,0.1,0
		c0,0.1,0,0.2,0.2,0.2c0-0.1,0-0.1,0-0.2h0.1c0.1,0,0.1-0.2,0.2-0.3l0,0c0,0.1-0.1,0.3,0,0.3h0.1c0,0.1,0.2,0.2,0.3,0.1l-0.1-0.1
		l0.1-0.1c0.1-0.3-0.1-0.3-0.1-0.4c0-0.1,0.3,0,0.3-0.3c0,0,0-0.1-0.1-0.2l0,0c0.1,0,0.2,0,0.2-0.1
		C123.1,249.5,123.2,249.3,123.2,249.2"/>
	<path fill="#1D1D1B" d="M115,252.4c-0.1,0-0.2-0.2-0.1-0.3c0,0.1,0.3,0.1,0.4,0.2C115.1,252.4,115.1,252.4,115,252.4 M114.8,252.7
		c0,0,0-0.1-0.1-0.1S114.7,252.7,114.8,252.7c-0.2,0-0.3-0.1-0.3,0s0,0.1,0,0.2c0,0,0,0.1,0,0.2c0,0.1-0.1,0.2-0.2,0.1
		c-0.1-0.1-0.1-0.2-0.1-0.3s0.1-0.1,0.1-0.1c0.1,0,0.1,0,0.1-0.1s0-0.1-0.1-0.2c0.1,0,0.1-0.1,0.1-0.1h-0.1c0,0,0-0.1,0.1-0.1h0.1
		l0.3,0.2c0,0,0.1,0,0.1,0.1C114.8,252.6,114.8,252.7,114.8,252.7 M114.6,252c-0.1,0.1-0.2,0.2-0.3,0.1c-0.1-0.1,0-0.1-0.1-0.3
		C114.3,251.9,114.5,252,114.6,252 M118.1,252.1c0,0.1,0.1,0.1,0.3,0.2c1.4,0.4,3-0.6,3.8-0.4c-1.1-0.4-1.8,0.3-2.8,0.1
		c0.6,0,1.3-0.1,1.3-0.3c-0.5,0.3-1.8-0.2-2.4,0.2c0,0-0.1,0-0.1,0.1c-0.8,0-1.4,0-1.4,0.5c0,1.1,2.9,0.4,3.8,0.4s0.8,0.1,0.8,0.3
		c0,0.3-1,0.3-1.6,0.3c-0.8,0-3.1-0.4-4.6-0.1c0.1-0.2,0.4-0.5,0.2-0.7c0.1,0,0.2-0.2,0.2-0.3c-0.1-0.1-0.2-0.1-0.3-0.1
		c0-0.1,0-0.1-0.1-0.2c0,0,0-0.2-0.1-0.2c-0.1-0.1-0.2-0.1-0.3-0.2c-0.2-0.1-0.3-0.1-0.3-0.1h-0.2c-0.1,0-0.2,0-0.2,0.1
		c-0.1-0.1-0.2-0.1-0.3-0.1c-0.1,0.1-0.1,0.2,0,0.4c-0.1,0-0.3,0.3-0.4,0.3c0,0.1,0.1,0.1,0.1,0.1c-0.1,0.2-0.2,0.4-0.3,0.4
		c0,0.1,0.1,0.1,0.1,0.1c0,0.1-0.1,0.3-0.1,0.4h-0.1l0,0c-0.2,0-0.3,0-0.6-0.2c-0.2-0.1-0.2-0.2-0.2-0.4s0.1-0.4,0.1-0.5
		c0,0,0-0.1,0-0.2c0-0.1-0.2-0.2-0.3-0.2c0,0,0.1,0.1,0.1,0.2l-0.1,0.1c0,0.1-0.1,0.1,0,0.2l0,0c0,0,0,0,0,0.1l0,0
		c0-0.1-0.1-0.3-0.2-0.3h-0.1l0,0c0-0.1-0.1-0.3-0.3-0.1c0,0,0.1,0,0.1,0.1s0,0.1,0,0.1c0,0.1,0.1,0.2,0.3,0.2l0,0l0,0l0,0
		c-0.3-0.1-0.3,0-0.4,0.1v0.1c-0.1,0.1-0.1,0.2,0,0.3v-0.1l0,0c0,0,0.1,0,0.1,0.1h0.1l0,0h0.1l0,0c-0.2,0.2-0.1,0.3,0.1,0.4
		c0,0,0,0,0,0.1c0,0.3-0.4,0.2-0.4-0.1c-0.2,0.4,0.2,0.6,0.5,0.4l0,0c0,0.1,0,0.1,0.1,0.1c0,0,0-0.1,0.1-0.1l0,0
		c0,0.1,0,0.2,0.1,0.2c0-0.1,0-0.1,0-0.1c0.1,0,0.1-0.1,0.4,0.1c0,0.1,0.1,0.1,0.1,0.1h0.3c0,0.2,0,0.5,0,0.5c-0.1,0-0.5,0-0.6,0
		c-0.2,0.1-0.7,0.3-0.8,0.1c0-0.1,0-0.2-0.1-0.3c0-0.1-0.1-0.1-0.2-0.1h-0.1c-0.1-0.1-0.3-0.1-0.3,0c0.1,0,0.1,0,0.2,0.1v0.1
		c0,0.1,0,0.2,0.3,0.3l0,0c0,0-0.1,0-0.2,0c-0.1-0.1-0.1-0.2-0.3-0.1h-0.1l0,0c-0.1,0-0.3,0.2-0.3,0.3c0,0,0.1-0.1,0.2-0.1v0.1
		c0,0.2,0.1,0.3,0.4,0.1l0,0c-0.1,0.1-0.3,0.3-0.1,0.4c0,0,0,0,0.1,0.1l0,0c0,0.2,0.2,0.3,0.3,0.3c0,0-0.1-0.1-0.1-0.3h0.1
		c0.2-0.1,0.1-0.3,0.2-0.3l0,0c0,0.1,0,0.3,0.2,0.2c0.2,0,0.3-0.2,0.2-0.3l0,0c0.1,0,0.1,0.1,0.1,0.2l0.1-0.1c0,0.1,0,0.2-0.1,0.3
		c0.1,0,0.3-0.1,0.3-0.3l0.1,0.1l0,0c0,0,0.2,0,0.4,0l0,0c0,0.1,0,0.2,0,0.2s0-0.1,0.1-0.1c0,0,0,0.2,0.1,0.3c0-0.5,0.4-0.4,0.7-0.6
		l0,0l-0.1,0.1c0.3,0.2,0.7-0.2,0.8-0.5l0.1-0.1v0.1c0.3,0,0.3-0.2,0.4-0.2c0.9,0.1,0.2-0.8,1.7-0.5c0.1,0,0.3-0.1,0.4-0.2
		c-0.1,0.2-0.1,0.6,0.1,0.6c0.1,0,0.3,0.1,0.4,0.2l0,0c-0.1,0-0.3,0-0.3,0.1c-0.3,0.2-0.3-0.5-0.7-0.3c0,0-0.1,0-0.1,0.1
		c-0.1,0-0.3,0.2-0.3,0.3c0,0,0.1-0.1,0.2-0.1v0.1c0,0,0,0.1,0.1,0.1s0.1,0,0.1,0l0,0c0,0.1-0.4-0.1-0.3,0.3c0,0,0,0.1,0.1,0.1
		c0,0.1,0.1,0.2,0.3,0.1l-0.1-0.1h0.1c0,0,0,0,0-0.1l0,0l0,0c0,0,0,0,0,0.1v0.1c0,0.1,0.2,0.3,0.4,0.1c0,0-0.2,0-0.2-0.1h0.1v-0.1
		l0,0h0.1h0.1c0,0.1,0.1,0.1,0.3,0.1c0.2-0.1,0-0.3,0.2-0.3h0.1c0.2,0,0.4,0,0.5-0.1s0-0.4-0.2-0.5c-0.1,0,0-0.2-0.1-0.4
		c0.2,0.1,0.4,0.2,0.7,0.2c0.5,0,0.7-0.1,1-0.2c0.3-0.2,0.5-0.1,0.6-0.1s0.1,0,0.1,0.1c-0.1,0.3,0,0.3-0.1,0.4c-0.1,0.1-0.3,0-0.4,0
		s-0.2,0.1-0.2,0.1c-0.1,0-0.3,0.1-0.3,0.3c0,0,0.1-0.1,0.3-0.1v0.1c0,0.2,0.2,0.2,0.3,0.1c0,0,0.1,0,0,0c-0.1,0.1-0.3,0.2-0.2,0.3
		h0.1c0,0.1,0,0.2,0.1,0.2c0,0,0-0.1,0.1-0.2h0.1c0.1,0,0.1-0.2,0.3-0.3l0,0c-0.1,0.1-0.1,0.3,0,0.3c0,0,0,0,0.1,0
		c0,0.1,0.1,0.2,0.3,0.1l-0.1-0.1l0.1-0.1c0.1-0.3-0.1-0.3-0.1-0.4c0-0.1,0.3,0,0.3-0.3c0-0.1,0-0.1-0.1-0.2l0,0l0,0
		c0.1,0,0.1,0,0.2-0.1c-0.2,0-0.1-0.2-0.1-0.3l0,0c0.1,0,0.2-0.1,0.2-0.3c-0.1,0.1-0.3,0.2-0.3,0c0,0,0-0.1-0.2-0.1
		c-0.3,0-0.8,0-1.4-0.1c0,0-0.1,0,0-0.1c0.6,0,1.9-0.1,1.9-0.5c0-0.3-0.1-0.5-1.1-0.5c-1.1,0-3.5,0.4-3.5-0.2
		C117,252,117.5,252.1,118.1,252.1"/>
	<path fill="#1D1D1B" d="M113.7,257.9c0-0.1,0.1-0.1,0.1-0.1c0.1,0,0.1,0,0.1-0.1s0-0.1-0.1-0.2c0.1,0,0.1-0.1,0.1-0.1h-0.1
		c0,0,0-0.1,0.1-0.1h0.1l0.3,0.2c0,0,0.1,0,0.1,0.1v0.1c0,0,0-0.1-0.1-0.1s-0.1,0,0,0.1c-0.1,0-0.2-0.1-0.2,0s0,0.1,0,0.2
		c0,0,0,0.1,0,0.2s-0.1,0.2-0.2,0.1C113.7,258.1,113.7,258,113.7,257.9 M114.1,257.1c-0.1,0.1-0.2,0.2-0.3,0.1
		c-0.1-0.1,0-0.1-0.1-0.3C113.8,257,114,257.1,114.1,257.1 M114.3,257.2c0,0,0.3,0.1,0.4,0.2c-0.2,0-0.1,0.1-0.3,0.1
		C114.4,257.5,114.3,257.3,114.3,257.2 M116.9,257.1c0,0.1,0.1,0.1,0.3,0.2c1.4,0.4,3-0.6,3.8-0.4c-1.1-0.4-1.8,0.3-2.8,0.1
		c0.6,0,1.3-0.1,1.3-0.3c-0.5,0.3-1.8-0.2-2.4,0.1l-0.1,0.1c-0.4,0.1-0.8,0.3-0.8,0.6c0,0.9,3.6,0.2,3.6,0.5s-0.7,0.5-1.6,0.5
		c-0.7,0-1.9-0.5-3.5-0.1l0,0c0.1-0.3,0.4-0.7,0.3-0.8c0.1,0,0.2-0.1,0.2-0.3c-0.1-0.1-0.2-0.1-0.2-0.1c0-0.1,0-0.1-0.1-0.2
		c0,0,0-0.2-0.1-0.2c0,0-0.1-0.1-0.3-0.2c-0.2-0.1-0.3-0.1-0.3-0.1H114c-0.1,0-0.2,0-0.2,0.1c-0.1,0-0.1-0.1-0.2-0.1
		c-0.1,0.1-0.1,0.2,0,0.4c-0.1,0-0.3,0.3-0.4,0.3c0,0.1,0.1,0.1,0.1,0.1c-0.1,0.2-0.1,0.4-0.3,0.4c0,0.1,0.1,0.1,0.1,0.1
		c-0.1,0.3-0.1,0.6-0.1,0.9c-0.2-0.2-0.5-0.7-0.8-0.9c-0.2-0.1-0.2-0.2-0.2-0.4c0-0.2,0.1-0.3,0.1-0.5c0,0,0-0.1,0-0.2
		s-0.2-0.2-0.3-0.2c0,0,0.1,0.1,0.1,0.2l-0.1,0.1c0,0-0.1,0.1,0,0.2l0,0c0,0,0,0,0,0.1l0,0c0-0.1-0.1-0.3-0.2-0.3h-0.1l0,0
		c0-0.1-0.1-0.2-0.3-0.1c0,0,0.1,0,0.1,0.1v0.1c0,0.1,0.1,0.2,0.2,0.2l0,0l0,0l0,0c-0.2-0.1-0.3,0-0.3,0.1v0.1c-0.1,0-0.1,0.2,0,0.3
		v-0.1l0,0l0.1,0.1c0,0,0,0,0.1,0l0,0c0,0,0,0,0.1,0l0,0c-0.2,0.2-0.1,0.3,0.1,0.3l0,0c0,0.3-0.4,0.2-0.4,0
		c-0.2,0.3,0.2,0.6,0.4,0.4l0,0c0,0,0,0.1,0.1,0.1c0,0,0-0.1,0.1-0.1l0,0c0,0.1,0,0.2,0.1,0.2c0-0.1,0-0.1,0-0.1
		c0.1,0,0,0.4,0.4,0.7c0.1,0.2,0.3,0.4,0.5,0.4c0.1,0.2,0.2,0.3,0.1,0.3s-0.6-0.1-0.7,0s-0.3,0.1-0.5,0.2l0,0l0,0
		c-0.1,0-0.3,0-0.3-0.1s0-0.1-0.1-0.2c0-0.1-0.1-0.1-0.2-0.1H111c-0.1-0.1-0.3-0.1-0.3,0c0.1,0,0.1,0,0.2,0.1v0.1
		c0,0.1,0,0.2,0.3,0.3c0,0,0.1,0,0,0c0,0-0.1,0-0.2,0c-0.1-0.1-0.1-0.2-0.3-0.1c0,0,0,0-0.1,0l0,0c-0.1,0-0.3,0.1-0.2,0.3
		c0,0,0.1-0.1,0.2-0.1v0.1c0,0.2,0.1,0.3,0.4,0.1l0,0c-0.1,0.1-0.3,0.3-0.1,0.4c0,0,0,0,0.1,0l0,0c0,0.2,0.2,0.3,0.3,0.3
		c0,0-0.1-0.1-0.1-0.3h0.1c0.1,0,0.1-0.2,0.2-0.3l0,0c0,0.1,0.1,0.2,0.2,0.2c0.2,0,0.2-0.2,0.2-0.3l0,0c0.1,0,0.1,0.1,0.1,0.2
		l0.1-0.1c0,0.1,0,0.2-0.1,0.3c0.1,0,0.2-0.1,0.3-0.3l0.1,0.1l0,0c0.1,0,0.2,0,0.4,0l0,0c0,0.1,0,0.1,0,0.2c0,0,0-0.1,0.1-0.1
		s0,0.2,0.1,0.3c0-0.4,0.3-0.3,0.6-0.5l0,0c0,0-0.1,0.1-0.1,0.2c0.1,0,0.4-0.1,0.4-0.3c0-0.1,0.2-0.3,0.3-0.8h0.1
		c0.4,0,0.5-0.3,0.9-0.3c-0.1,0.1-0.1,0.4-0.1,0.5c0,0.2,0.3,0.4,0.3,0.5l0,0c-0.1,0-0.2,0-0.3,0.1c-0.3,0.2-0.3-0.5-0.6-0.3
		c0,0-0.1,0-0.1,0.1c-0.1,0-0.3,0.2-0.3,0.3c0,0,0.1-0.1,0.2-0.1v0.1c0,0.1,0,0.1,0.1,0.1s0.1,0,0.1,0l0,0c0,0.1-0.4-0.1-0.3,0.3
		v0.1c0,0.1,0.1,0.2,0.3,0.1l-0.1-0.1h0.1c0,0,0,0,0-0.1l0,0l0,0c0,0,0,0,0,0.1v0.1c0,0.1,0.2,0.3,0.3,0.1c0,0-0.2,0-0.2-0.1h0.1
		V261l0,0h0.1c0,0,0,0,0.1,0c0,0.1,0.1,0.1,0.3,0.1c0.2-0.1,0-0.3,0.2-0.3h0.1c0.2,0,0.3,0.1,0.4,0c0-0.1,0-0.4-0.2-0.5
		c-0.1,0,0.2-0.7-0.4-1.1c0.2,0.1,1,0.2,1.2,0c0.2,0,0.5,0.2,0.5,0.3c0,0.1,0.1,0.1,0,0.1c-0.2,0.1-0.2,0.2-0.3,0.2l0,0
		c-0.1-0.1-0.1-0.2-0.2-0.2s-0.2,0-0.2,0c-0.1,0-0.3,0-0.3,0.1c0.1,0,0.2,0,0.2,0l0,0c0,0,0,0.1,0.1,0.1l0,0l0,0
		c-0.1,0-0.4,0-0.3,0.1c0,0,0,0,0,0.1c-0.1,0.1-0.1,0.2,0,0.3c0,0,0-0.1,0.2-0.1v0.1c0.1,0.1,0.2-0.1,0.3-0.1l0,0
		c-0.1,0.1-0.2,0.1-0.2,0.2v0.1c0,0.1,0,0.2,0.1,0.3c0,0,0-0.1,0-0.2h0.1c0.2-0.1,0.1-0.3,0.2-0.4s0.2,0.1,0.4,0c0,0,0.1-0.1,0-0.2
		l0,0c0,0,0.1,0.1,0.2,0.1c-0.1-0.1,0-0.2,0.1-0.3l0,0c0.1,0,0.2,0,0.2-0.1c-0.1,0-0.4-0.1-0.2-0.2c0.2-0.1,0.3-0.2,0.2-0.3
		c-0.2-0.2-0.6-0.3-0.6-0.5c0.1,0,0.3,0,0.3,0c1.2,0,2-0.3,2-0.7c0-0.8-3.6,0.1-3.6-0.5C116.4,257.3,116.7,257.2,116.9,257.1"/>
	<path fill="#1D1D1B" d="M58.7,194.5c0-0.5-0.4-0.9-0.9-0.9s-0.9,0.4-0.9,0.9s0.4,0.9,0.9,0.9C58.3,195.3,58.7,194.9,58.7,194.5"/>
	<path fill="#1D1D1B" d="M58.4,192.1c0-0.5-0.4-0.9-0.9-0.9s-0.9,0.4-0.9,0.9s0.4,0.9,0.9,0.9S58.4,192.6,58.4,192.1"/>
	<path fill="#1D1D1B" d="M58.9,191.1c0.5,0,0.9-0.4,0.9-0.9s-0.4-0.9-0.9-0.9s-0.9,0.4-0.9,0.9C58.1,190.7,58.5,191.1,58.9,191.1"/>
	<path fill="#1D1D1B" d="M61.2,191c0.5,0,0.9-0.4,0.9-0.9s-0.4-0.9-0.9-0.9s-0.9,0.4-0.9,0.9C60.4,190.6,60.8,191,61.2,191"/>
	<path fill="#1D1D1B" d="M71.1,189.4c0.3,0.3,0.9,0.3,1.2,0c0.3-0.3,0.3-0.9,0-1.2s-0.9-0.3-1.2,0S70.8,189,71.1,189.4"/>
	<path fill="#1D1D1B" d="M71,187.5c0.3-0.3,0.3-0.9,0-1.2s-0.9-0.3-1.2,0c-0.3,0.3-0.3,0.9,0,1.2C70.1,187.8,70.6,187.8,71,187.5"/>
	<path fill="#1D1D1B" d="M68.6,187.1c0.3-0.3,0.3-0.9,0-1.2s-0.9-0.3-1.2,0c-0.3,0.3-0.3,0.9,0,1.2
		C67.8,187.5,68.3,187.5,68.6,187.1"/>
	<path fill="#1D1D1B" d="M66.7,188.6c0.3-0.3,0.3-0.9,0-1.2s-0.9-0.3-1.2,0c-0.3,0.3-0.3,0.9,0,1.2
		C65.8,188.9,66.3,188.9,66.7,188.6"/>
	<path fill="#1D1D1B" d="M61.1,187.4l0.7,1.5l0.9-1.1h0.1c0.1,0.5,0.1,1.4,0.1,1.9c0,0.6,0.5,1.1,1.1,1.1c0.6,0,1.1-0.5,1.1-1.1
		c0-0.4-0.2-0.8-0.6-1c-0.4-0.3-0.9-0.8-1.2-1.1v-0.1l1.5,0.1l-0.6-1.6l-1.1,0.9c0,0,0,0-0.1,0l-0.1-1.6l-1.5,0.6l1,1.2
		c0,0,0,0.1-0.1,0.1L61.1,187.4z"/>
	<path fill="#1D1D1B" d="M71.2,190.1c0.3,0.5,0.5,0.8,0.5,1.2c-0.3-0.1-0.6-0.4-0.9-0.8l0.2,2c0.2-0.4,0.4-0.6,0.7-0.7
		c-0.1,1.3-0.6,1.9-1.1,2s-1-0.3-1-0.7c-0.1-0.6,0.4-1,0.9-0.4c0.1-1.2-0.9-1.2-1.3-0.7c0.5-1.2,0.3-1.9-0.7-2.6
		c-0.7,1.1-0.4,1.8,0.5,2.7c-0.8-0.4-1.5,0.3-0.8,1.2c0.2-0.8,0.8-0.6,1,0c0.1,0.5-0.4,1.2-1.2,1.5c-1.3,0.4-1.7-0.4-2-1.1
		c0.3-0.2,0.9-0.1,1.6,0.3l-0.6-2c-0.3,0.7-0.7,1-1.2,1.2c0-0.6,0.4-1.7,0.4-1.7l-2.4,1c0,0,1.1,0.5,1.5,1c-0.5,0.2-1,0.3-1.7,0
		l1,1.8c0.2-0.8,0.6-1.3,0.9-1.4c0.3,0.7,0.5,1.6-0.6,2.2c-0.8,0.4-1.6,0.3-1.9-0.2c-0.3-0.6,0-1.1,0.7-0.7
		c-0.1-1.1-1.1-1.1-1.4-0.3c0-1.2-0.3-1.9-1.5-2.2c-0.3,1.2,0.1,1.9,1.3,2.4c-0.7-0.1-1.4,0.6-0.5,1.4c0-0.7,0.6-0.8,1-0.3
		c0.2,0.4,0.2,0.9-0.3,1.2c-0.4,0.2-1.1,0.2-2.1-0.7c0.3-0.1,0.6-0.1,1,0l-1.3-1.6c0.1,0.6,0,1-0.1,1.2c-0.3-0.3-0.4-0.6-0.5-1.2
		l-1,0.9c0.9,0.6,2,1.5,3.3,3.2c1.4-0.8,3.8-2,5.3-2.6s4.1-1.5,5.6-1.8c-0.3-2.2-0.2-3.6,0.1-4.6L71.2,190.1z"/>
	<path fill="#1D1D1B" d="M74,201.6c-1.2,1-2.8,0.1-3.6-1.2c1.7-0.7,3.6-1.5,4.9-2.3C74.1,200,74.9,200.9,74,201.6 M73.7,214.3
		c-1.6,0.7-2.8-0.7-3.1-1.6c-0.3-0.9-0.6-1.7-0.2-2.1c0.7-0.7,0.9-1.2,0.5-2c-0.5-1-1.5-0.5-2.6-0.2c0.5-0.9,0.6-1.6-0.1-1.5
		c-0.8,0.1-0.8,1.4-1.3,1.3c-0.5-0.2-0.2-0.9-0.2-1.4c0-0.6,0.4-0.8,0.9-1l4.5-1.7c0.6-0.2,1-0.3,1.4,0.1c0.3,0.3,1,0.7,0.8,1.1
		c-0.2,0.4-1.2-0.5-1.8,0c-0.6,0.4-0.1,0.9,0.9,1.2c-1,0.6-2,1-1.7,2c0.3,0.9,0.8,1.1,1.7,1.1c0.5,0,0.9,0.7,1.3,1.6
		C75.2,211.9,75.4,213.6,73.7,214.3 M65,205.1c-1.2,0.1-1.2-1.1-3.3-1.6c1.5-0.3,3.4-1.1,5.1-1.7C67.2,203.2,66.6,205,65,205.1
		 M90.3,245.5c0.3-0.9-1.4-2-1.6-3.3s0-2.6-1.6-4.4c-1.5-1.8-6.7-7.3-8.3-9.1c0.4,0,1.3-0.3,2.3,0.7c0.6,0.5,1.7,1.6,2.7,2.6
		c1.4-3.5,3.1-6.1,5.5-8.9c0.3-0.4,0.6-0.7,1-1c-0.9,0.3-2.3,0.5-3.1,1c-0.1-1.5,0-2.8-1-3.7c0.4-2.1,0.1-4.7-4.7-7.9
		c2.4,0.6,3.9,2.8,5.8,1.1c-1.7,0-1.7-3.7-7.8-6.8c2.3,0,4.1,3.7,6.8,1.6c-2.5-0.3-3.4-4.8-8-6.2c1.6,0.2,3.2,1,4.6-0.9
		c-1.6,0.4-2.5-1.1-4.2-1.2c0.6-2,0.5-3.2-0.2-4.7c-1.2,0.1-2.4,0.4-3.3,1.2c-0.1-1.1-1.3-1.1-2.3-1.1c0,0.5,0.3,1.1-0.2,1.2
		c-0.8,0.1-3.5,0.9-5.6,1.7s-4.5,2.3-5.2,2.8c-0.4,0.3-0.8-0.4-1.1-0.7c-0.8,0.6-1.5,1.4-0.9,2.3c-1.2,0.1-2.5,0.4-3.5,1.3
		c0,1.4,1.1,2.7,2.8,3.4c-2.8,2.8-0.3,5.4-2.7,7.8c3.5,0.1,2.9-4.7,4.6-5.4c-0.2,3.4-2.1,4-2.1,7.7c0,2,1.2,4.1,0.1,5.4
		c2.9-0.8,2.2-7.3,4-9.2c0.3,1.1,0.1,2.2-0.2,3.3c-1,3,0.1,7.1-1.5,8.5c3-0.3,3.3-5.1,5.8-6.8c-2.1,4.3-4.3,13.5-7.4,18.1
		C54.7,242.6,51.7,251,47,251c-2.1,0-3.6-1.3-3.6-3.9c0-7.8,13.4-13.2,13.4-21.5c0-3.7-3-5.1-4.9-5.1c-1.3,0-2.8,0.6-4.1,1.7
		c-0.6-0.2-1.1-0.3-1.6-0.3c-4.7,0-3.5,8.5-7.6,8.4c1.6,0.9,4.5-0.9,6.1-3.3c-0.7,5.5-8.6,4.1-8,10.7c1.1-5.2,13.8-4.4,13.8-12.3
		c0-0.9-0.5-1.6-1.1-2.2c1-0.6,1.8-0.8,2.7-0.8c1.5,0,2.9,1.1,2.9,3.4c0,7-13.3,12.8-13.3,21.4c0,1.4,0.4,2.6,1.1,3.6
		c-0.9,0.4-1.9,0.2-2.7-0.7c-0.1,2.2,3.1,3.6,5.1,2.5c0.4,0.2,0.9,0.2,1.4,0.3c-0.6,1.6-2.6,2.1-3.7,2c3.3,2.6,8.9-0.8,8.6-3.7
		c2.6-2.1,4.2-5.6,6.1-8c-0.1,0.5-0.2,1.1-0.3,1.6c-1.9,3.5-3.7,6.6-4.2,11.1c-0.4,3.8-2.3,7.3-5,7.3c-0.6,0-1.6-0.8-2-0.4
		c-0.8,0.7,0,1.5,0,2.2c0,1.1-2.1,2.2-2.1,5.5c0,1.5,0.9,3.3,0.5,4.3c0.9-0.4,2-1.9,2.5-3.7c0.9,4.4-1.9,4.2,0.1,8.2
		c0.3-1.3,1.6-1.8,2.3-1.3c0.8,0.5,0.4,0.9-0.2,1.5c-0.6,0.6-1.1,3.5,1.6,3.4c-0.5-0.3-0.5-1.1,0.8-1.4c1.9-0.4,2.4,0.5,4.4,0.5
		c1.2,0,1.6-1.6,2.5-1.6c1,0,1,0.7,0.6,1.3c1.6-0.4,1.9-1.3,1.9-2.1c0-0.9-0.7-1.4-0.2-1.8c0.5-0.3,2.4,0,1.6,1.5
		c0.9-0.2,1.4-0.8,1.4-2c0-1.1-1.3-1.8-2.5-1.6c-0.2-0.7-1.3-1.1-2.2-1.1c-2.2,0-1.8,1.7-3.3,1.7c-2.4,0-4.7-3.1-4.7-8.4
		c0-2.8,3-3.5,5.2-4.4c2.1-0.9,5.9-3.2,8.1-7c1.8-2.9,1.8-6.2,1.6-10c3,1.7,3.4,4.2,3.4,6c0,2.3-1.2,3.3-2.2,3.7
		c-0.8,0.4-1.1,0.2-1.2,0.7c-0.1,0.6,0.3,0.9,0.6,1.1c1.1,0.6,0.9,1.6,1.2,2.7c0.3,1.1,1.3,2.9,3,4.2c0.2-0.7,0.1-1.8,0-3.3
		c2.3,1.1,0.5,5.8,5,5.8c-0.8-0.5-0.6-1.7-0.1-1.9c0.5-0.2,1.1,0.3,2,1.5s0.6,1.1,2.8,1.1c2.1,0,1.2-0.7,2.3-0.7
		c1.1,0,1,1.3,0.4,2.3c1.9-0.6,2.5-2,1.8-3.5c1.7-0.9,2.6,0.4,2.8,1.3c1.6-1.6,0-3.6-1.3-3.8c0-0.6-0.5-1.3-1.2-1.3s-1.4-0.1-2.1,0
		c-0.8,0-1.2,1.2-2.1,1.2c-2.8,0-8.4-5.1-8.4-7.3c0-2.2,5.3-3.6,5.3-7c0-4.5-4.4-6-8.1-8.9c1.3-1.5,5.2-1.8,7.4-0.8
		c0.3-1.2,1-0.9,1.3-3.1c0.8,1.9,0,3.5,0.8,4.3c0.6-0.9,2.2-0.8,2.1-3.1c0.5,1.5-0.6,3.7,0.5,4.7c0.2-1.2,0.9-1.4,1.4-1.4
		s0.9,0.3,0.9,1c0,1.8-2.2,1-2.2,3c0,0.8,1.1,1.1,1.1,1.7c0,0.5-0.9,1.4-1.9,0.7c0.4,0.8,1.1,1.5,2,1.5c1,0,2-0.8,2.4-1.8
		c0.5,1.3,0.1,2.7-0.8,2.9c1,0.5,3.3,0,3-2.9c1.3,0.2,2,1.1,1.2,2.7c1.1-0.3,2.1-0.8,2.1-1.9C90.8,246.9,89.9,246.7,90.3,245.5"/>
	<path fill="#1D1D1B" d="M176.5,267c0-1.5,1.3-2.8,2.8-2.8s2.8,1.3,2.8,2.8s-1.3,2.8-2.8,2.8C177.7,269.8,176.5,268.5,176.5,267
		 M175.5,267c0,2.1,1.7,3.7,3.8,3.7s3.7-1.7,3.7-3.7c0-2.1-1.7-3.8-3.7-3.8C177.2,263.2,175.5,264.9,175.5,267"/>
	<path fill="#1D1D1B" d="M163.2,273.8c-1.1-0.2-1.8-1-1.7-1.8c0.1-0.4,0.3-0.6,0.5-0.8c0.4-0.3,1.1-0.4,1.7-0.3
		c1,0.2,1.7,0.9,1.7,1.6c0,0.1,0,0.1,0,0.2C165.3,273.5,164.3,274,163.2,273.8 M161.5,270.5c-0.5,0.3-0.8,0.8-0.9,1.4
		c-0.1,0.7,0.1,1.3,0.6,1.9c0.5,0.5,1.1,0.9,1.9,1c0.7,0.1,1.5,0,2.1-0.3c0.7-0.3,1.1-0.9,1.2-1.6c0.2-1.3-0.9-2.6-2.5-2.9
		C163,269.9,162.2,270,161.5,270.5"/>
	<path fill="#1D1D1B" d="M140.6,219.9c0-0.5,0.3-1.1,0.8-1.4c0.4-0.3,1-0.5,1.4-0.4c0.2,0,0.5,0.1,0.7,0.4c0.2,0.3,0.2,0.6,0.2,0.8
		c-0.1,0.5-0.3,0.9-0.8,1.3c-0.7,0.6-1.7,0.6-2.1,0.1C140.7,220.4,140.6,220.2,140.6,219.9 M140.8,217.7c-1.2,0.9-1.5,2.4-0.8,3.4
		l0,0c0.7,1,2.3,1,3.5,0.1c0.6-0.5,1.1-1.2,1.1-1.9c0.1-0.5-0.1-1.1-0.4-1.5c-0.3-0.4-0.8-0.7-1.3-0.7
		C142.2,217,141.5,217.2,140.8,217.7"/>
	<path fill="#1D1D1B" d="M158.6,268.5L158.6,268.5c-0.4,0-0.7-0.2-0.8-0.4c-0.4-0.4-0.6-1-0.6-1.6s0.2-1.2,0.6-1.6
		c0.2-0.2,0.5-0.4,0.9-0.4c0.8,0,1.4,0.9,1.4,2c0,0.6-0.2,1.2-0.6,1.6C159.2,268.3,158.9,268.5,158.6,268.5 M157.1,264.2
		c-0.6,0.5-0.9,1.4-0.9,2.3v0.1c0,0.9,0.3,1.7,0.8,2.2c0.4,0.4,1,0.7,1.5,0.7c0.6,0,1.1-0.2,1.6-0.6c0.6-0.5,0.9-1.4,0.9-2.3
		c0-0.8-0.2-1.5-0.6-2c-0.4-0.6-1.1-0.9-1.7-0.9C158.1,263.6,157.5,263.8,157.1,264.2"/>
	<path fill="#1D1D1B" d="M139.4,237.5c-1-0.5-1.5-1.4-1.1-2.2c0.2-0.4,0.5-0.5,0.7-0.6c0.5-0.2,1.1-0.1,1.7,0.2
		c0.6,0.3,1,0.7,1.2,1.2c0.1,0.2,0.2,0.6,0,0.9c-0.2,0.4-0.5,0.5-0.7,0.6C140.6,237.9,140,237.8,139.4,237.5 M138.7,233.9
		c-0.6,0.2-1,0.6-1.3,1.1c-0.6,1.2,0.1,2.7,1.6,3.4c0.8,0.4,1.7,0.5,2.4,0.2c0.6-0.2,1-0.6,1.3-1.1c0.2-0.5,0.3-1.1,0.1-1.7
		c-0.3-0.7-0.9-1.4-1.7-1.8C140.3,233.7,139.4,233.6,138.7,233.9"/>
	<path fill="#1D1D1B" d="M165.9,251c-0.6,0.9-1.7,1.2-2.4,0.7s-0.7-1.6-0.1-2.5c0.6-0.9,1.7-1.2,2.4-0.7
		C166.5,249,166.5,250.1,165.9,251 M161.5,258c-0.6,0.9-1.7,1.2-2.4,0.7s-0.7-1.6-0.1-2.4c0.6-0.9,1.7-1.2,2.3-0.7
		C162.1,256,162.1,257.1,161.5,258 M146.3,219.7c0.5-1.6,1.5-4.9,1.5-4.9l1.7,0.7c-0.5,0.2-1.1,0.7-1.6,1.2c0.4,0.2,1.1,0.2,1.5-0.1
		l-0.7,1.7c-0.1-0.3-0.6-0.9-1.1-1c-0.3,1.4,0.5,1.9,1.1,2.2c1,0.5,1.7,0.6,2,0.1c0.3-0.6-0.4-1.4-1.2-1c-0.1-0.9,0.4-1.4,1-1.4
		c0.5,0,0.8,0.4,1,1c-0.1-1.5,0.6-2.6,1.9-3c0.5,1.4,0.1,2.4-1,3.4c0.6-0.2,1.2-0.2,1.5,0.2c0.3,0.5,0.2,1.2-0.6,1.6
		c-0.2-0.9-1.3-1-1.6-0.4s0.2,1.2,1.1,1.7c1.1,0.6,2,0.3,2.6-0.7c-0.4-0.1-1,0-1.6,0.3l1.1-2.1c0,0.3,0.2,0.8,0.7,1.3
		c0.2-0.5,0.4-1.3,0.1-2.1l2.5,1.4c-0.8,0.1-1.4,0.7-1.8,1.1c0.6,0.2,1.1,0.1,1.4,0l-1.3,2.1c0-0.7-0.2-1.3-0.5-1.5
		c-0.5,1-0.4,1.9,0.7,2.6c0.9,0.6,1.7,0.7,2,0.1c0.4-0.6-0.2-1.5-1.1-1.2c0-0.9,0.5-1.3,1.1-1.3c0.5,0,0.8,0.6,0.9,1.1
		c0.3-1.4,1-2.2,2.4-2.5c0.3,1.4-0.3,2.5-1.6,3.2c0.6-0.2,1.1-0.1,1.4,0.3c0.3,0.5,0.1,1.2-0.7,1.5c-0.1-0.9-1.2-1.1-1.5-0.5
		c-0.3,0.5,0.1,1,1.1,1.7c0.6,0.4,1.5,0.9,2.5-0.1c-0.3-0.4-1.1-0.5-1.4-0.5l1.1-1.4c0,0.6,0.3,1.2,0.7,1.4c0.2-0.7,0.3-1.5,0.2-2
		l1.4,1.1c0,0-2.3,2.5-3.5,3.7L146.3,219.7z M164.7,240.6c0-0.3,0.1-0.6,0.4-0.9c0.3-0.3,0.6-0.3,0.9-0.3c0.5,0,1.1,0.3,1.5,0.7
		c0.4,0.5,0.7,1.1,0.7,1.6c0,0.2-0.1,0.6-0.4,0.9l0,0c-0.3,0.3-0.6,0.3-0.9,0.3c-0.5,0-1.1-0.3-1.5-0.8
		C164.9,241.7,164.7,241.1,164.7,240.6 M171.5,271.5c0.1-0.5,0.5-1,1-1.4s1.1-0.5,1.7-0.4c0.2,0.1,0.6,0.2,0.8,0.5s0.2,0.7,0.2,0.9
		c-0.1,0.5-0.5,1-1,1.4c-0.9,0.6-2,0.5-2.4-0.1C171.4,272.1,171.4,271.8,171.5,271.5 M139.4,224.9c0,0.5-0.3,1-0.6,1.3
		c-0.2,0.1-0.4,0.3-0.7,0.3c-0.6,0-1.1-0.8-1.1-1.6v-0.1c0-0.5,0.2-1,0.6-1.3c0.2-0.1,0.4-0.3,0.7-0.3s0.6,0.2,0.7,0.4
		C139.3,223.8,139.5,224.3,139.4,224.9 M149.3,204.5c0.5-1,0-2.5,1.8-2.5c0.9,0,1.7,0.9,2.8,1.3
		C152.2,203.4,150.6,203.8,149.3,204.5 M178.2,230c1.2,3.4,3.6,4.6,5.5,3.7c-4.1-0.5-0.8-7.6-6.1-7.6c-0.3,0-0.6,0-0.9,0.1
		c-0.9-1-1.9-1.4-3.5-1.4c-2.3,0-6.1,2.2-6.1,6.7c0,9.7,11.3,10.5,11.3,19.1c0,2.5-1.9,4.1-4,4.1c-1.9,0-3.4-2.1-5-5.4
		c-0.8-1.6-2.4-3.8-4.1-6c0.5,0.4,1.1,0.6,1.7,0.6c0.6,0,1.2-0.2,1.6-0.6c0.4-0.4,0.6-0.9,0.7-1.5v-0.1c0-0.8-0.3-1.6-0.9-2.2
		c-0.6-0.6-1.4-1-2.2-1c-0.6,0-1.2,0.2-1.6,0.6c-0.4,0.4-0.6,0.9-0.7,1.5v0.1c0,0.3,0.1,0.7,0.2,1c-2.4-3.2-4.7-6.3-4.7-8
		c0-1.5,1-2.8,2.3-4.4l0.4,0.3l0.3-0.4c0.4-0.5,1.4-1.5,3.3-3.6l0.1-0.1l0,0l0.5-0.5l-1.2-1c0.3-0.7,0.6-1.5,0.8-2.4
		c0.4,1.5,1.2,2.6,2.3,2.2c-0.7-1.6,0.8-3.8-0.2-7.7c0.9,1.5,2.2,2.3,3.2,2c-2.5-2.2,0.7-5.3-2.5-10.1c1.1,0.4,1.8,0.2,2.2-0.4
		c-3-0.4-1.6-4.2-6.8-5.5c1.3-0.2,2.1-1,1.9-1.7c-1.4,1-2.6-1.9-7.1-1.8c-0.3-1.7-1.8-3.5-3.6-4.3c0.3,1.3,0,2.5-0.3,3.5l-14.7-14.4
		c-0.4-0.4-0.7-0.5-0.8-0.4s-0.1,0.4,0.2,0.7l12.6,15.8c-0.9,0.3-1.9,0.7-2.9,1.1c-0.6,0.2-1.1,0.8-1.1,1.6
		c-2.3,1.2-4.4,2.6-5.4,3.5c-0.8,0.7-1.4,0.9-0.7,2.5c0.3,0.6-0.5,2.1,1.3,1c1.2-0.7,3.9-2.2,4.3-1.3c0.2,0.5-1.1,1.1-2.1,1.5
		c-0.9,0.4-1.9,1.1-1.8,1.4c0.1,0.3,0.9,0,0.9,0.3c0.1,0.4,0.4,0.8,0.7,0.8s0.8-0.8,1.1-0.5s-0.1,2-0.4,2.4c1.4-0.2,2.3-1.5,2.4-2.6
		c0-1.1,0.3-1.3,0.5-1.5s0.5,1.1,0.2,1.9c0.8-0.2,1.5-1.1,1.4-3c0.4-0.3,0.8-0.5,1.1-0.5c0.5,0,1.4,1.3,2.8,1.3c2.5,0,3.9-2,4-3
		c0.1-0.8,0.1-1.5-0.4-2.1c0.9,0.7,1.2,1.8,1.2,2.7c0,3.5-6.2,5.2-8.8,7.6c-0.1,0.1-0.2,0.2-0.3,0.3l-2.9-1.1l-0.2,0.6
		c0,0,0,0.1-0.2,0.6c-0.3,1-0.9,3.1-1.3,4.3l-0.2,0.5l0.3,0.2c-1.7,2.3-3.1,4.9-3.5,7.6c-0.7-0.7-1.4-1.3-2.1-1.9
		c0.1-0.3,0.1-0.5,0.1-0.8c0-0.8-0.2-1.5-0.7-2.1c-0.4-0.4-0.8-0.7-1.4-0.7c-0.5,0-1,0.2-1.4,0.5c-0.1,0.1-0.2,0.2-0.3,0.3
		c-0.1-0.1-0.2-0.2-0.3-0.3c-1-0.7-2.2-1.6-2.9-2.4c-0.3-0.3-0.6-0.5-1.3-0.5c-0.2,0-0.9,0-1.3,0c-0.4,0-0.7,0.3-1.2,0.8
		c-0.2,0.2-0.9,0.7-1.7,1.3c0.4,0.4,0.7,0.7,1.1,1.1c0.2,0.2,0.4,0.4,0.6,0.7c0.2-0.2,0.4-0.3,0.5-0.4c0.3-0.3,0.7-0.3,1.1-0.3
		c0.4,0,0.9,0.3,1.3,0.8c0.3,0.4,2.6,3.5,4.6,5.7c-0.2,0.1-0.4,0.1-0.6,0.2c-0.8,0.4-2.7,0.3-3.6,0.2c-0.8-0.1-1-0.3-1.6,0.6
		c-0.2,0.3-0.5,0.7-0.8,1.1c-0.3,0.3-0.5,0.7,0.1,1.7c0.9,1.5,3,5.3,3.7,7.1c0.7,1.7,1.5,2,2.9,2.6s3.7,1.9,4,2.2l0.1-1.3
		c-0.4-0.4-1.7-0.9-2.2-1.1c-0.5-0.2-0.6-0.4,0-0.4s2.2,0.6,3.4,1.1c-0.3-1.3-1.6-2.7-2.3-3.5c-1-0.3-2-0.3-2.4,0
		c0.1,0.3-0.2,0.6-0.6,0.6c-0.4,0-0.6-0.3-0.5-0.7s0.7-0.5,0.6-1.3c-0.1-0.8-1.1-0.9-1.6-0.9c-0.8-1.2-1.8-3-2.2-3.7
		s-0.2-1.1,0.1-1.4c0.7-0.6,2.2,0.3,5.2,0.5c1,0.1,2.4,0.1,3.7,0.2c0.4,3.5,1.8,6.8,6.6,8c2.4,0.6,4.8,2.3,5.6,4.6
		c-9.6-0.2-11.2,3.6-11.2,7.1c0,4,3.4,3.8,3.4,6.8c0,2.6-8.1,3.7-10.6,4.1c-2.1,0.3-3.3,0.8-4.3,1.8s-2,1.9-3.8,3.8
		c0,0,0.8,0.2,1.5,0.1l1.4-1.8c0.4-0.6,0.7-1.1,1-1s0.1,0.5-0.2,1.1l-1.1,1.9c4.8,0.3,5.1-1.4,5.1-2.2c0-0.7-1.2-1.2-0.5-1.7
		s1.3-0.1,1.8,0.5s0.7,1.2,2,0.7c0,0,10.4-4.3,11.7-4.9c1.2-0.5,0.8-1.1,0.1-1.6c-0.8-0.6-0.9-1.7-0.9-2.8c0-3.1,1.9-4.1,5.3-4
		c-0.1,0.5-0.1,1.1-0.1,1.5c0,4.9,7.4,9.7,9.4,9.7c0.9,0,2.1-0.7,2.2,2.3c0.1,2.2,0.5,3.7,0.1,6.2s-1.1,2.9-2.6,4s-2.9,4.4-3.6,5.1
		c0.7,0.4,1.4,0.5,2-1.1c0.5-1.3,1-2.3,1.6-2.6c-0.6,1.5-1,3.6-1.3,4.3c1.9,0.3,5-1.4,5-2.7c0-1.3-1.1-1.2-1.1-2.1
		c0-0.4,0.5-0.8,1.1-0.8c0.8,0,1.3,0.6,1.4,0.9c0.8-0.4,1.4-1.3,1.3-3.2c0-0.8,0-1.6-0.1-2.4c0,0.1,0.1,0.2,0.2,0.3
		c0.4,0.6,1,0.9,1.7,1c0.7,0,1.4-0.1,2.1-0.6c0.7-0.5,1.3-1.2,1.4-2c0-0.2,0-0.3,0-0.5c0-0.4-0.1-0.8-0.3-1.2
		c-0.3-0.5-0.8-0.8-1.4-0.9c-0.8-0.2-1.6,0-2.4,0.5c-0.7,0.5-1.2,1.1-1.4,1.8c-0.2-2.7-0.3-5.2-0.3-6.2c0.1-1.5,0.2-2.2-0.3-2.4
		c-0.5-0.2-1.1,0.6-1.8,0.6s-2.9-2-2.9-4.1s2.3-4.8,2.2-7.8c0-0.9,0.5-1.4,0.9-0.5c0.4,1,1.1,2.3,2.1,3.4c-0.6,3.6,3.4,7.2,6.7,4.6
		c-1.6,0.2-2.7-1.2-3.5-2.7c0.3,0,0.6,0.1,0.9,0.1c0.2,0,0.3,0,0.5,0c1.1,1.4,4.8,1.3,5.8-2.2c-0.6,0.7-2,1.3-2.9,1.2
		c1.4-1.1,2.1-2.8,2.1-4.7c0-9.2-11.2-10.3-11.2-18.7c0-3.1,2.7-5.1,4.6-5.1c0.7,0,1.3,0.2,1.7,0.6c-0.7,0.7-1.1,1.9-1.1,3.2
		c0.3,6.6,11.1,6.3,11.3,9.5C186.6,235,178.5,236.5,178.2,230"/>
</g>
</svg>
