<?xml version="1.0" encoding="utf-8"?>
<!-- Generator: Adobe Illustrator 18.0.0, SVG Export Plug-In . SVG Version: 6.00 Build 0)  -->
<!DOCTYPE svg PUBLIC "-//W3C//DTD SVG 1.1//EN" "http://www.w3.org/Graphics/SVG/1.1/DTD/svg11.dtd">
<svg version="1.1" id="Layer_1" xmlns="http://www.w3.org/2000/svg" xmlns:xlink="http://www.w3.org/1999/xlink" x="0px" y="0px"
	 viewBox="0 0 800 455.7" enable-background="new 0 0 800 455.7" xml:space="preserve">
<g>
	<path fill="#F8F8F8" d="M172.9,181.7c50.3,0,91-40.7,91-90.8S223.2,0,172.9,0s-91,40.7-91,90.8S122.6,181.7,172.9,181.7"/>
	<path fill="#F8F8F8" d="M536.1,90.8c0,50.2,40.7,90.8,91,90.8c50.3,0,91-40.7,91-90.8S677.3,0,627.1,0
		C576.8,0,536.1,40.7,536.1,90.8"/>
	<path fill="#F8F8F8" d="M257.4,225.4c-23-4.7-49.9-8-80.4-8c-113,0-177,39.3-177,39.3l0,186h172.9h0h25.4l0-172.5l0-16.3l13.8-8.5
		C213.5,244.6,229.1,235.2,257.4,225.4"/>
	<path fill="#F8F8F8" d="M227.3,270l0,185.8h172.9h0h172.9l0-185.8c0,0-64-39.2-168.8-39.2C291.3,230.8,227.3,270,227.3,270"/>
	<path fill="#F8F8F8" d="M309.2,104.4c0,50.2,40.8,90.8,91,90.8c50.3,0,91-40.7,91-90.8c0-50.2-40.7-90.8-91-90.8
		C349.9,13.5,309.2,54.2,309.2,104.4"/>
	<path fill="#F8F8F8" d="M631.2,217.4c-33.3,0-62.3,3.4-86.7,8.2c27.1,9.8,42.4,19,43.8,19.8l13.8,8.5v16.2l0.1,172.6h25h0H800
		l0-186C800,256.7,736,217.4,631.2,217.4"/>
</g>
</svg>
