<?xml version="1.0" encoding="utf-8"?>
<!-- Generator: Adobe Illustrator 18.0.0, SVG Export Plug-In . SVG Version: 6.00 Build 0)  -->
<!DOCTYPE svg PUBLIC "-//W3C//DTD SVG 1.1//EN" "http://www.w3.org/Graphics/SVG/1.1/DTD/svg11.dtd">
<svg version="1.1" id="Layer_1" xmlns="http://www.w3.org/2000/svg" xmlns:xlink="http://www.w3.org/1999/xlink" x="0px" y="0px"
	 viewBox="0 0 800 512.1" enable-background="new 0 0 800 512.1" xml:space="preserve">
<g>
	<path fill="#1D1D1B" d="M159,31c-1.1,2.1-2,3.3-1.9,4.9c0.1,1.6,1.8,2.7,2.6,4.3c0.7-1.9,1.9-3.3,1.8-4.8C161.4,34,159.4,32,159,31
		"/>
	<path fill="#1D1D1B" d="M186.9,31c1.1,2.1,2,3.3,1.9,4.9c-0.1,1.6-1.8,2.7-2.6,4.3c-0.7-1.9-1.9-3.3-1.8-4.8
		C184.5,34,186.5,32,186.9,31"/>
	<path fill="#1D1D1B" d="M143,29.8c1,0,1.9-0.8,1.9-1.9c0-1-0.9-1.9-1.9-1.9s-1.9,0.8-1.9,1.9C141.2,28.9,142,29.8,143,29.8"/>
	<path fill="#1D1D1B" d="M144.3,32.4c0-1-0.9-1.9-1.9-1.9c-1,0-1.9,0.8-1.9,1.9c0,1,0.8,1.9,1.9,1.9
		C143.4,34.3,144.3,33.5,144.3,32.4"/>
	<path fill="#1D1D1B" d="M145.2,37c0-1-0.9-1.9-1.9-1.9c-1,0-1.9,0.8-1.9,1.9c0,1,0.8,1.9,1.9,1.9C144.4,38.9,145.2,38,145.2,37"/>
	<path fill="#1D1D1B" d="M153.4,20.8c1,0,1.9-0.8,1.9-1.9c0-1-0.9-1.9-1.9-1.9c-1,0-1.9,0.8-1.9,1.9C151.6,20,152.4,20.8,153.4,20.8
		"/>
	<path fill="#1D1D1B" d="M148.8,22.2c1,0,1.9-0.8,1.9-1.9c0-1-0.8-1.9-1.9-1.9s-1.9,0.8-1.9,1.9C146.9,21.4,147.7,22.2,148.8,22.2"
		/>
	<path fill="#1D1D1B" d="M145.1,25.5c1,0,1.9-0.8,1.9-1.9c0-1-0.8-1.9-1.9-1.9c-1,0-1.9,0.8-1.9,1.9
		C143.2,24.6,144.1,25.5,145.1,25.5"/>
	<path fill="#1D1D1B" d="M158.3,21.3c1,0,1.9-0.8,1.9-1.9c0-1-0.8-1.9-1.9-1.9c-1,0-1.9,0.8-1.9,1.9
		C156.5,20.4,157.3,21.3,158.3,21.3"/>
	<path fill="#1D1D1B" d="M163,22.6c1,0,1.9-0.8,1.9-1.9c0-1-0.8-1.9-1.9-1.9c-1,0-1.9,0.8-1.9,1.9C161.1,21.7,162,22.6,163,22.6"/>
	<path fill="#1D1D1B" d="M167.4,24.7c1,0,1.9-0.8,1.9-1.9c0-1-0.8-1.9-1.9-1.9c-1,0-1.9,0.8-1.9,1.9
		C165.5,23.8,166.4,24.7,167.4,24.7"/>
	<path fill="#1D1D1B" d="M200.9,27.9c0,1,0.9,1.9,1.9,1.9c1,0,1.9-0.8,1.9-1.9c0-1-0.8-1.9-1.9-1.9C201.8,26,200.9,26.8,200.9,27.9"
		/>
	<path fill="#1D1D1B" d="M203.4,30.6c-1,0-1.9,0.8-1.9,1.9c0,1,0.8,1.9,1.9,1.9c1,0,1.9-0.8,1.9-1.9
		C205.3,31.4,204.5,30.6,203.4,30.6"/>
	<path fill="#1D1D1B" d="M202.5,35.1c-1,0-1.9,0.8-1.9,1.9c0,1,0.8,1.9,1.9,1.9c1,0,1.9-0.8,1.9-1.9C204.4,36,203.5,35.1,202.5,35.1
		"/>
	<path fill="#1D1D1B" d="M192.4,20.8c1,0,1.9-0.8,1.9-1.9c0-1-0.9-1.9-1.9-1.9c-1,0-1.9,0.8-1.9,1.9C190.5,20,191.4,20.8,192.4,20.8
		"/>
	<path fill="#1D1D1B" d="M197.1,22.2c1,0,1.9-0.8,1.9-1.9c0-1-0.8-1.9-1.9-1.9c-1,0-1.9,0.8-1.9,1.9C195.2,21.4,196,22.2,197.1,22.2
		"/>
	<path fill="#1D1D1B" d="M200.7,25.5c1,0,1.9-0.8,1.9-1.9c0-1-0.8-1.9-1.9-1.9c-1,0-1.9,0.8-1.9,1.9
		C198.9,24.6,199.7,25.5,200.7,25.5"/>
	<path fill="#1D1D1B" d="M187.5,21.3c1,0,1.9-0.8,1.9-1.9c0-1-0.8-1.9-1.9-1.9c-1,0-1.9,0.8-1.9,1.9
		C185.6,20.4,186.5,21.3,187.5,21.3"/>
	<path fill="#1D1D1B" d="M182.8,22.6c1,0,1.9-0.8,1.9-1.9c0-1-0.8-1.9-1.9-1.9c-1,0-1.9,0.8-1.9,1.9C181,21.7,181.8,22.6,182.8,22.6
		"/>
	<path fill="#1D1D1B" d="M176.6,22.8c0,1,0.8,1.9,1.9,1.9c1,0,1.9-0.8,1.9-1.9c0-1-0.8-1.9-1.9-1.9
		C177.4,20.9,176.6,21.7,176.6,22.8"/>
	<path fill="#1D1D1B" d="M169.7,32.9h2.1v-8.1c-0.7-0.1-1.4-0.3-2.1-0.6V32.9z"/>
	<path fill="#1D1D1B" d="M176.1,24.2c-0.6,0.3-1.4,0.5-2.1,0.6v8.1h2.1V24.2z"/>
	<path fill="#1D1D1B" d="M171.7,15.4v-4.8c-2.4,0.5-4.2,2.4-4.6,4.8H171.7z"/>
	<path fill="#1D1D1B" d="M174.2,15.4h4.6c-0.4-2.4-2.2-4.3-4.6-4.8V15.4z"/>
	<path fill="#1D1D1B" d="M167.2,17.7c0.6,2.7,3,4.6,5.8,4.6c2.8,0,5.2-2,5.8-4.6H167.2z"/>
	<path fill="#1D1D1B" d="M176.2,9.8c-1.3-1-2.4-2.6-2.6-4.2c1.5,0.3,3.2,1.4,4.3,2.7V1.9c-1,1.3-2.7,2.5-4.3,2.7
		c0.2-1.6,1.1-3,2.4-4.6h-6.3c1.3,1.6,2.3,3.1,2.5,4.6c-1.5-0.3-3.2-1.4-4.3-2.7v6.5c1-1.3,2.7-2.4,4.3-2.7
		c-0.2,1.6-1.2,3.1-2.6,4.2H176.2z"/>
	<path fill="#1D1D1B" d="M176.3,144.7c-1.3,0-2.3-1.1-2.3-2.3c0-1.3,1-2.3,2.3-2.3c1.3,0,2.3,1,2.3,2.3
		C178.6,143.6,177.6,144.7,176.3,144.7 M165.2,141.3c-1.4,0-2.5-1.1-2.5-2.5c0-1.4,1.1-2.5,2.5-2.5c1.4,0,2.5,1.1,2.5,2.5
		C167.8,140.1,166.6,141.3,165.2,141.3 M161.4,130l-0.6-0.5c-1.1-0.9-2.1-0.8-3.2,0c-0.5,0.4-0.9,0.9-1.4,1.4l-0.6,0.7l0.4,0.4
		c1.2,1,1.4,2,1,2.7c-0.1,0.3-0.3,0.4-0.6,0.5c-0.6,0.2-1.5-0.1-2.3-0.6l-0.5-0.3l-0.3,0.4c-0.1,0.1-0.1,0.2-0.2,0.3
		c-0.1,0.1-0.2,0.3-0.3,0.5c-0.5,0.9-0.8,1.6-0.8,2.1c0,0.2,0,0.3,0.1,0.5c0.2,0.7,0.7,1,1.2,1.2l0.3,0.2c0.6,0.3,1.3,0.8,1.9,1.1
		c-1.1,0.6-2.1,0.6-3.2,0.1c-1.6-0.8-2.7-2.6-2.7-3.6c0-1.4,0.6-3.2,1.8-5l0.2-0.3l-0.2-0.3c-0.3-0.6-0.6-1.1-0.8-1.6
		c0.6,0.1,1.2,0.2,1.8,0.3l0.3,0.1l0.2-0.2c0.7-0.8,3.2-3.3,5.5-3.3c1,0,2.1,0.5,2.9,1.5c0.6,0.7,1,1.5,1.1,2.3
		C162.1,130.6,161.8,130.3,161.4,130 M183.1,138.9c-5.9-1.5-13-4-19.5-7v-0.1c0.2-1.3-0.3-2.9-1.3-4c-1-1.1-2.4-1.8-3.7-1.8
		c-0.6,0-1.2,0.1-1.8,0.3c-1-0.8-1.9-1.8-2.7-2.8c-2.5-2.9-4.4-6.3-5.8-10.1c-0.8-2.2-1.3-4.4-1.7-6.7c-0.3,1.9-2.5,4.4-6.2,4.5
		c0.1-0.4,0-1.4-0.3-1.5c-1,1.1-2.4,2.3-5.8,1.1c0.5,2.6,1.2,5.2,2.2,7.7c2,5.3,4.8,10.1,8.5,14.3c1.2,1.4,2.5,2.6,3.8,3.8
		c0,0.3,0,0.5,0,0.8c0,1.4,1.3,3.6,3.3,4.5c1.6,0.8,3.3,0.6,4.8-0.5c2.9,1.5,6.6,3,10.5,4.1c4.4,1.2,8.7,1.9,12.1,1.9
		c2.9,0,6.7-1.4,10.5-3.7c1.5-1,2.9-2,4-3c0.1-0.1,0.3-0.3,0.4-0.4C191.1,140.6,186.7,139.8,183.1,138.9"/>
	<path fill="#1D1D1B" d="M181.4,162.9c-0.4-0.8-1-1.3-1.6-1.3c-2.4,0-1.5,6.4-4.3,6.4c-1.3,0-1.9-0.8-1.9-1.7c0-0.9,0.6-1.2,0.6-1.9
		c0-0.7-0.6-1-1.2-1c-0.6,0-1.2,0.3-1.2,1c0,0.7,0.6,1,0.6,1.9c0,0.9-0.7,1.7-1.9,1.7c-2.9,0-1.9-6.4-4.4-6.4
		c-0.5,0-1.2,0.5-1.6,1.3c-0.5-0.9-0.8-1.8-0.8-2.5c0-1.2,0.9-2.8,2.8-2.8c3.2,0,2.5,4.4,4,4.4c0.7,0,1.2-0.4,1.2-1.1
		c0-1.3-2.2-2.4-2.2-4.2c0-1.8,1.6-3.3,3.4-4.8c1.8,1.4,3.4,3,3.4,4.8c0,1.8-2.2,3-2.2,4.2c0,0.7,0.5,1.1,1.2,1.1
		c1.5,0,0.8-4.4,4-4.4c1.9,0,2.8,1.6,2.8,2.8C182.2,161.1,181.9,162,181.4,162.9 M173,171.8c-0.9,0-1.6-0.7-1.6-1.6
		c0-0.9,0.7-1.6,1.6-1.6c0.9,0,1.6,0.7,1.6,1.6C174.6,171.1,173.8,171.8,173,171.8 M179.4,156.4c-0.4,0-0.8,0.1-1.2,0.2v-7.1
		c-3.1-0.1-6.7-0.6-10.3-1.6v8.7c-0.4-0.2-0.8-0.2-1.3-0.2c-2.5,0-4,2.1-4,4c0,1.8,1.1,3.5,2,4.6c0.5-1.1,0.9-2,1.5-2
		c1.2,0,0.7,6.1,4.3,6.3c-0.1,0.3-0.2,0.6-0.2,1c0,1.6,1.3,2.8,2.8,2.8c1.5,0,2.8-1.3,2.8-2.8c0-0.3-0.1-0.7-0.2-1
		c3.6-0.2,3-6.3,4.2-6.3c0.6,0,1,0.9,1.5,2c0.9-1.1,2-2.8,2-4.6C183.4,158.4,181.9,156.4,179.4,156.4"/>
	<path fill="#1D1D1B" d="M262.5,164.9c-0.1-0.4-0.5-0.6-0.9-0.5c-8.3,2.4-18.6-4.4-28.5-11.1c-8.4-5.6-16.3-10.8-23-10.8
		c-2.5,0-4.7,0.5-6.7,1.6c-2.4,1.3-4.1,3.4-5.3,6.1c-1.1,2.8-2.3,4.7-3.3,6.2c-1.1,1.8-2,3.1-2,4.8c0,1.3,0.6,2.5,1.7,3.7
		c1,1,2.4,1.9,4.4,3c0.4,0.2,0.8,0.4,1.3,0.6c1.6,0.8,2.7,1.3,2.9,2.3c-3.3,1.4-7.5,2.6-12.3,3.5c-5.4,0.9-11.4,1.4-17.7,1.4
		c-6.3,0-12.2-0.5-17.7-1.4c-4.8-0.8-9.1-2-12.4-3.5c0.1-1.4,1.2-1.9,2.9-2.8c0.4-0.2,0.9-0.4,1.3-0.6c1.7-0.9,3.2-1.7,4.3-2.7
		c1.2-1,1.7-2.1,1.7-3.5c0-1.6-0.8-3-2-4.8c-1-1.5-2.2-3.4-3.3-6.2c-1.1-2.8-2.9-4.8-5.3-6.1c-1.9-1-4.1-1.6-6.6-1.6
		c-6.8,0-14.7,5.3-23,10.8c-9.9,6.6-20.2,13.5-28.5,11.1c-0.4-0.1-0.8,0.1-0.9,0.5c-0.1,0.4,0,0.8,0.4,1c2.5,1.1,4.8,2.8,6.9,4.5
		c3,2.3,5.8,4.5,8.9,4.5c2.9,0,6.1-0.9,9.9-2.9c3.3-1.7,6.8-4.1,10.2-6.4c6.5-4.5,13.3-9.1,19.7-9.6c-0.7,0.7-1.3,1.3-1.9,1.8
		c-1.9,1.7-3.5,3.1-3.5,6.1c0,2.3,0.8,4,1.9,6.3c0.3,0.7,0.7,1.4,1.1,2.3c0.7,1.6,1,2.9,1.4,4.6c0.2,0.8,0.4,1.6,0.7,2.6
		c0.4,1.5,1.2,4.4,5.9,6.8c5.5,2.8,14.9,4.2,28,4.2c13.1,0,22.5-1.4,28-4.2c4.7-2.4,5.5-5.2,5.9-6.8c0.3-1,0.5-1.9,0.7-2.6
		c0.4-1.7,0.7-3,1.4-4.6c0.5-1.1,1-2.1,1.5-2.9c1-1.8,1.7-3.3,1.7-5.4c0-3-1.7-4.5-3.7-6.3c-0.6-0.6-1.3-1.2-2-1.9
		c6.4,0.5,13.2,5.1,19.7,9.6c3.3,2.3,6.8,4.6,10.1,6.4c3.8,2,7,2.9,10,2.9c3.1,0,5.9-2.2,8.9-4.5c2.1-1.7,4.4-3.4,6.9-4.5
		C262.4,165.7,262.6,165.2,262.5,164.9"/>
	<path fill="#1D1D1B" d="M174.1,100.5V69.5c3.2,0.1,6.4,0.9,9.4,2.4c3.2,1.6,6.1,3.9,8.6,6.8c2.5,2.9,4.4,6.3,5.8,10.1
		c1.3,3.7,2.1,7.7,2.1,11.8H174.1z M173,56.5c-8.8,0-14.9,2.6-18.4,5c-2-1.2-2.9-2.4-2.9-3.8c0-5,14.2-5.4,21.3-5.4h0
		c7.2,0,21.3,0.4,21.3,5.4c0,1.4-0.9,2.6-2.9,3.8C187.9,59.1,181.8,56.5,173,56.5 M172.5,100.5H146c0.1-4.1,0.8-8.1,2.1-11.8
		c1.4-3.8,3.3-7.2,5.8-10.1c2.5-2.9,5.4-5.2,8.6-6.8c3.2-1.6,6.5-2.4,10-2.4V100.5z M212.7,98.6c-0.9-0.7-2.4-2.1-3.2-3.7
		c-1-2-5.1-10.1-5.7-11.2c-0.5-0.9-0.8-1.7-0.8-2.4c0-0.8,0.4-1.5,0.9-2.1c0.3-0.4,1.2-1.3,1.6-1.8c0.2-0.4,0.5-0.7,0.7-1
		c-1.5-2.6-3-4.5-5-6.8c-2.4-2.7-5.1-5-8-7c1.6-1,3.2-2.5,3.2-5c0-1.4-0.6-2.6-1.7-3.5c1.7-5.3,4.6-11.7,7.1-14.5l-5.3-2.2
		c1.4,2.1,1.5,4.6,1.2,6c-1.4-1-2.6-2.3-3-4c-0.3,1.6-1.1,4.2-2,5.8c1.5-0.7,2.8-1.1,4.3-0.4c-0.9,1.2-3.2,3.1-6.7,2.2
		c-1.9-0.5-3.8-1.5-3.7-2.9c0.1-0.9,0.7-1.9,1.9-1.8c1.2,0.1,1.2,1.9,0.9,2.7c1.5-0.9,3.1-5.3,0.7-6c-1.9-0.5-3.6,2-4.2,4
		c-0.4-2.4-1.3-4.6-3.2-4.5c-2.4,0.2-1.6,4.7-0.8,5.8c0.1-1.6,1-2.4,1.7-2.4c0.6,0,1.5,0.5,1.4,1.9c-0.2,1.4-2.2,2.3-4.6,2.3
		c-2.3,0-6.2-0.7-6.6-5c1.5,0.3,3.8,1.4,4.7,2.8c-0.3-2.6-0.3-4.5,0-7.2c-1.2,1.7-3.3,2.6-4.7,2.8c0.4-1.9,2-3.8,3.9-5h-9.7
		c1.8,1.2,3.4,3.1,3.9,5c-1.4-0.2-3.4-1.1-4.6-2.8c0.3,2.7,0.3,4.6,0,7.2c1-1.4,3.2-2.6,4.7-2.8c-0.4,4.3-4.3,5-6.6,5
		c-2.3,0-4.4-0.9-4.6-2.3c-0.1-1.5,0.7-1.9,1.4-1.9c0.7-0.1,1.6,0.8,1.7,2.4c0.9-1.1,1.7-5.7-0.8-5.8c-1.9-0.1-2.9,2.2-3.2,4.5
		c-0.6-2-2.3-4.5-4.2-4c-2.4,0.7-0.8,5.1,0.7,6c-0.4-0.8-0.3-2.5,0.9-2.7c1.2-0.1,1.8,1,1.9,1.8c0.1,1.5-1.8,2.5-3.7,2.9
		c-3.5,0.8-5.8-1-6.7-2.2c1.6-0.7,2.8-0.3,4.4,0.4c-0.8-1.6-1.7-4.2-2-5.8c-0.4,1.8-1.6,3.1-3,4.1c-0.3-1.4-0.2-3.9,1.2-6l-5.3,2.2
		c2.5,2.8,5.5,9.2,7.2,14.6c-1,0.9-1.6,2.1-1.6,3.5c0,2.5,1.6,4,3.2,5c-2.9,1.9-5.6,4.3-8,7c-3.6,4.1-6.5,8.9-8.5,14.2
		c0.7,0.7,3.9,4.2,4.7,5.2c1.3,1.7,2.1,3.3,2.1,4.6c0.1,2.4,0.6,3.4,1.9,5c0.4,0.5,1,2.4,1,3.6h26.4v28.8c-1,0.1-2.1,0.3-3,1.4
		c3.1,1.2,6,2.3,8.9,3.2c0.3-1.9,0.7-3,1.6-4.2c0,0-3.8-0.4-5.9-0.5v-28.7h25.8c-0.1,3.9-0.8,7.8-2.1,11.4
		c-1.4,3.8-3.3,7.2-5.8,10.1c-2.5,2.9-5.4,5.2-8.6,6.8c-0.5,0.3-0.5,0.6-1,0.8c-0.5,0.5-0.9,1.4-1.3,2.3c-0.3,0.9-0.4,1.5-0.6,2.6
		c1.2,0.4,1.9,0.6,3,0.8c9.1,2.3,11.3,1.6,11.8,1.2l0,0c2-1.6,3.9-3.4,5.7-5.4c3.6-4.1,6.5-8.9,8.5-14.3c2.1-5.5,3.1-11.4,3.1-17.4
		C212.7,100,212.8,99.7,212.7,98.6"/>
	<path fill="#1D1D1B" d="M188.5,82.1c-0.2,0.2-0.3,0.5-0.3,0.7c0.1,0.2,0.3,0.5,0.8,0.5c-0.3,0.2-0.5,0.6-0.6,1.1
		c0.5,0.1,0.9-0.1,1.2-0.3c-0.1,0.5,0,0.7,0.3,0.9c0.2,0.1,0.4,0.1,0.7,0c1.9,3.2,3.3,6.8,3.9,10.5c-0.2-0.2-0.6-0.3-1-0.3
		c0,0.5,0.2,0.9,0.5,1.2h-6.5c0-0.4-0.2-0.8-0.4-0.9c-0.3-0.1-0.6,0-0.9,0.3c0-0.4-0.2-0.8-0.5-1.1c-0.4,0.4-0.5,0.8-0.5,1.1
		c-0.3-0.3-0.6-0.4-0.9-0.3c-0.2,0.1-0.5,0.4-0.4,0.9h-5.5c0.2-0.3,0.4-0.6,0.4-1.1c-0.5,0-0.8,0.2-1.1,0.4v-8.9
		c0.4,0.1,0.8-0.1,0.9-0.4c0.1-0.3,0-0.6-0.3-0.9c0.4,0,0.8-0.2,1.1-0.5c-0.4-0.3-0.8-0.5-1.1-0.5c0.4-0.3,0.4-0.6,0.3-0.9
		c-0.1-0.3-0.5-0.5-0.9-0.4v-7.6c0.2,0.2,0.6,0.3,1,0.4c0-0.4-0.1-0.8-0.3-1.1c1.7,0.5,3.4,1.4,5,2.4
		C185.3,78.6,187,80.2,188.5,82.1 M195.8,95.4c0.5,0.3,0.3,1-0.3,1c-0.6-4.7-2.3-9.3-5-13.1c0,0,0,0,0.1-0.1c0.5-0.2,1-0.6,1.1-1.3
		c-0.8-0.1-1.4,0.3-1.7,0.7c-0.2-0.2-0.4-0.5-0.6-0.7c-1.6-2.1-3.5-3.9-5.6-5.2c-2-1.3-4.1-2.3-6.2-2.9c0-0.5,0.7-0.6,1-0.1
		c0.1-0.8-0.6-1.2-1-1.1c-0.2,0.1-0.4,0.3-0.5,0.6c-0.2-0.3-0.6-0.6-1.2-0.6c-0.1,0.5,0.1,0.9,0.4,1.2c-0.4,0-0.6,0.1-0.7,0.3
		c-0.2,0.4,0.1,1.1,0.9,1.2c-0.4-0.3-0.2-1,0.3-0.9v10.1c-0.5-0.2-1.1-0.1-1.7,0.4c0.6,0.5,1.2,0.6,1.7,0.5v11
		c-0.5,0-0.7-0.6-0.2-0.9c-0.8,0-1.2,0.7-1,1.1c0.1,0.3,0.4,0.5,0.8,0.4c-0.2,0.3-0.4,0.7-0.4,1.2c0.5,0,0.9-0.2,1.2-0.5
		c0,0.5,0.2,0.7,0.4,0.8c0.4,0.2,1.1-0.1,1.1-1c-0.3,0.4-0.9,0.3-0.9-0.2h7.6c-0.1,0.5-0.1,1.1,0.4,1.7c0.5-0.5,0.6-1.2,0.4-1.7h8.5
		c0,0.5-0.6,0.7-0.9,0.3c0,0.8,0.8,1.1,1.1,0.9c0.3-0.1,0.4-0.4,0.4-0.8c0.3,0.2,0.7,0.4,1.2,0.4c0-0.5-0.2-0.9-0.5-1.1
		c0.5,0,0.7-0.2,0.8-0.4C197,96.2,196.7,95.4,195.8,95.4"/>
	<path fill="#1D1D1B" d="M191.3,92.7c0.3-0.2,0.6-0.4,0.7-0.6c-0.4,0.1-0.6,0-0.7-0.1c0.2-0.2,0.6,0,0.2-0.5
		c-0.3-0.5-0.5-0.5-0.8-0.1c-0.3,0.3-2.4-0.1-2.3-1.6c0.2,0.3,0.4,0.5,0.7,0.6c0.1,0,0.2,0.1,0.2,0.1c0.1,0,0.2,0,0.3,0.1
		c0.2,0.1,0.4,0.1,0.6,0.1c0,0,0.1,0,0.1,0l0-0.1c0.4-0.1,0.8-0.3,0.8-0.8c0.1-0.8-0.7-1.2-1.6-2c-0.3-0.3-0.6-0.5-0.8-0.8
		c-0.3-0.6-0.1-1.2-0.9-2.3c0-0.3-0.1-0.6-0.2-1c-0.4,0.7-0.6,2.1,0.5,3.3c0.9,0.9,2.7,1.9,2.6,2.7c0,0.2-0.2,0.4-0.5,0.4
		c-0.1,0-0.2,0-0.3,0c0,0-0.1,0-0.2,0c-0.1,0-0.2-0.1-0.4-0.2c-0.2-0.1-0.4-0.2-0.6-0.5c-0.8-0.7-1.4-1.7-1.9-2.3
		c-0.8-1.1-0.5-2.1-0.3-3c0.6-0.8-0.4-2.5-0.9-2.9c0,0,0.1-0.4,0-0.9c-0.1,0.1-0.4,0.1-0.5,0.1c-0.2-0.3-0.2-0.4-0.4-0.4
		c-0.4,0-0.4-0.3-0.4-0.4c-0.2,0.2-0.3,0.4-0.5,0.4c-0.3,0-0.4,0-0.6,0.1c-0.2,0.2-0.3,0.2-0.6,0.2c-0.4,0-0.3,0.2-0.3,0.5
		c0,0.2,0,0.4,0.2,0.5c0,0,0.1,0,0.1,0l0.3,0.3l0.2-0.3c0.2-0.2,0.6-0.2,0.7,0.2c0.1,0.2,0.1,0.3-0.2,0.3c-0.3,0-0.5,0-0.7,0.1
		c-0.2,0-0.2,0.3-0.2,0.4c0,0.2,0.2,0.3,0.6,0.2c0.4-0.1,1.1-0.2,1.1,0.2c0,0.9-1.1,0.9-1.3,2c-0.3-0.2-0.5-0.4-0.6-0.6
		c-0.1-0.3-0.4-0.6-0.8-1c-0.2-0.2-0.5-0.5-0.8-0.6c-0.4-0.2-0.4-0.4-0.4-0.8c0-0.3,0.2-0.6,0.1-0.9c0,0-0.1-0.2-0.1-0.3
		c-0.1-0.2-0.3-0.3-0.5-0.3c0.1,0.1,0.2,0.1,0.2,0.3c-0.1,0.1-0.1,0.2-0.2,0.2c-0.1,0.1-0.1,0.2,0,0.3c0,0,0,0,0,0.1
		c0,0,0,0.1,0,0.2c0,0.1,0,0,0,0c-0.1-0.2-0.2-0.6-0.4-0.6c0,0-0.1,0-0.1,0c0,0,0,0,0-0.1c0-0.2-0.3-0.4-0.6-0.1
		c0.1,0,0.2,0,0.2,0.1c0,0.1-0.1,0.2-0.1,0.2c0,0.2,0.2,0.3,0.4,0.3c0,0,0.1,0,0.1,0c0,0,0,0.1,0,0.1c0,0,0,0,0,0
		c-0.4-0.2-0.6,0-0.6,0.2c0,0,0,0.1,0,0.2c-0.2,0.1-0.2,0.3,0.1,0.5c0-0.1,0-0.2,0.1-0.3c0,0,0,0,0.1,0c0,0.1,0.1,0.1,0.1,0.1
		c0,0,0.1,0,0.2-0.1c0,0,0.1,0,0.1,0c0,0,0.1,0.1,0.1,0.1c0,0,0,0,0,0.1c-0.3,0.3-0.2,0.5,0.1,0.6c-0.2,0.3-0.6,0.2-0.6-0.3
		c-0.4,0.6,0.2,1,0.7,0.8c0,0.2,0,0.6,0.1,0.6c0,0,0-0.1,0.1-0.1c0,0,0,0,0,0.1c0,0.1,0.1,0.3,0.2,0.3c0-0.1,0-0.1,0.1-0.2
		c0.1,0.1,0.2,0.3,0.2,0.4c0.2,0.4,0.7,1.5,1.8,2c-0.5,0.3-0.9,0.8-1.3,1.2c-0.3,0.3-0.8,0.6-1,0.5c-0.1-0.1-0.1-0.2-0.3-0.3
		c-0.1-0.1-0.3-0.1-0.4-0.1c0,0-0.1,0-0.2,0.1c-0.2-0.1-0.5,0-0.6,0.2c0.1,0,0.2,0,0.4,0.1c0,0.1,0,0.2,0,0.2c0,0.1,0.1,0.3,0.7,0.2
		c0,0,0.1,0,0.1,0.1c-0.1,0-0.1,0.1-0.3,0.1c-0.2-0.1-0.4-0.3-0.6,0c0,0-0.1,0.1-0.1,0.2c0,0,0,0,0,0c-0.2,0.1-0.4,0.5-0.2,0.7
		c0-0.1,0-0.3,0.2-0.3c0,0,0.1,0.1,0.1,0.1c0.2,0.2,0.3,0.4,0.7-0.2c0-0.1,0.1,0,0,0c0,0.3-0.3,0.6,0.1,0.7c0,0,0.1,0,0.1,0
		c0,0,0,0,0,0.1c0.1,0.3,0.5,0.4,0.6,0.3c-0.1,0-0.3-0.1-0.4-0.4c0.1,0,0.2,0,0.2,0c0.2-0.2,0-0.5,0.1-0.6c0,0,0.1,0,0.1,0
		c0.1,0.1,0.2,0.4,0.5,0.2c0.2-0.1,0.2-0.2,0.2-0.4c0.4-0.1,0.7-0.3,1-0.2c0-0.2,0.2-0.5,0.6-0.6c0.4-0.1,0.6,0,0.7,0.1
		c0-0.2,0.2-0.5,0.4-0.7c0,1.6,2.1,1.6,2.6,2.5c-0.7-0.3-1.4-0.4-1.8-0.3c-0.5,0.1-1.5,0.6-1.6,1.2c-0.1,0.5,0.4,1.4,0.9,1.7
		c-0.6,0.1-0.9-0.1-1.4,0.1c0,0,0,0-0.1,0c-0.5,0-0.6-0.8-1.1-0.6c0,0-0.1,0.1-0.1,0.1h0c-0.2,0-0.5,0.3-0.5,0.5
		c0.1-0.1,0.2-0.2,0.4-0.2c0,0,0,0.1,0,0.1c0,0.1,0,0.2,0.2,0.2c0.1,0,0.2-0.1,0.2-0.1c0,0,0.1,0,0.1,0.1c0,0.2-0.7-0.1-0.6,0.5
		c0,0,0.1,0.1,0.1,0.2c0,0.2,0.1,0.4,0.5,0.3c-0.1,0-0.2-0.1-0.2-0.2c0.1,0,0.1,0,0.1,0c0,0,0.1,0,0.1-0.1c0,0,0,0,0,0
		c0,0,0.1,0,0.1,0c0,0,0,0.1,0,0.2c0,0,0,0.2,0,0.2c0,0.2,0.3,0.5,0.6,0.2c-0.1,0-0.3,0-0.3-0.2c0,0,0.1-0.1,0.1-0.1
		c0,0,0.1-0.1,0.1-0.2c0-0.1,0-0.1,0.1-0.1c0,0,0.1,0,0.2,0c0.1,0,0.1,0,0.1,0.1c0.1,0.1,0.2,0.3,0.5,0.2c0.1,0,0.2-0.1,0.2-0.2
		c0.1,0,0.2,0.1,0.3,0.2c-0.1-0.2,0.1-0.4,0.6-0.1l0.4-0.3c0,0,0.5,0.2,0.7,0c0.3-0.3,0.1-0.3,0.1-0.5c-0.2-0.5-0.3-0.4-0.5-0.9
		c-0.2-0.8,1-1.3,1.6-1.1c0.1,0.5,0.9,1.9,2,2.3c0.7,0.3,1-0.6,1.3-0.5c0,0,0.1,0.1,0.1,0.2c0,0.4,0,0.7-0.1,0.9
		c-0.1,0.2-0.5,0-0.8,0c-0.2,0-0.3,0.1-0.3,0.1c-0.2,0-0.5,0.2-0.5,0.5c0.1-0.1,0.2-0.2,0.4-0.2c0,0,0,0.1,0,0.1
		c0.1,0.3,0.4,0.4,0.6,0.2c0,0,0.1,0,0.1,0c-0.2,0.1-0.5,0.5-0.2,0.6c0,0,0.1,0,0.2,0.1c0,0.2,0.1,0.4,0.3,0.4
		c-0.1-0.1-0.1-0.2,0-0.4c0.1,0,0.1,0,0.2,0c0.2,0,0.1-0.4,0.3-0.5c0,0,0,0,0,0c-0.1,0.2-0.1,0.5,0.1,0.6c0,0,0.1,0,0.2,0
		c0.1,0.2,0.3,0.3,0.6,0.2c-0.1,0-0.2-0.1-0.3-0.2c0.1-0.1,0.1-0.2,0.1-0.2c0.1-0.5-0.3-0.5-0.3-0.7c0-0.2,0.5-0.1,0.5-0.6
		c0,0,0,0,0-0.1c0.2-0.1,0.5-0.3,0.5-0.5C191.6,92.8,191.3,92.7,191.3,92.7L191.3,92.7z"/>
	<path fill="#1D1D1B" d="M167.2,107.1l-0.4,0c-0.4,0-0.9,0.2-1,0.7c0,0.6,0.4,0.9,0.9,0.9l0.3,0c0,0.1,0,0.2,0,0.4
		c-0.1,0.8-0.3,2.1-0.6,3.6l-4-5.7c1.9-0.7,3.3-1.5,4.1-1.5C167.2,105.5,167.4,105.8,167.2,107.1 M165.7,116.9l-6.2-8.9
		c0.7-0.2,1.4-0.3,2-0.6l4.7,6.7C166,115,165.9,116,165.7,116.9 M165.1,120.9l-8.8-12.7c0.3,0,0.6,0,0.8,0c0.5,0,0.9,0,1.4-0.1
		l7.1,10.1C165.4,119.3,165.2,120.2,165.1,120.9 M155.1,108.3l9.7,13.9C159.6,120.2,154.5,115.6,155.1,108.3 M169.5,107.2l-0.4,0
		l0-0.4c0.1-1.5-0.9-2.7-2.5-2.7c-1.5,0-4.4,1.9-8.4,1.9c-1.7,0-3.8-0.8-5-1.6l-0.5,1.2c0,0,0-0.1,0-0.1c0-0.5-0.5-1-1-1
		c-0.6,0-1,0.5-1,1c0,0.5,0.4,1,1,1c0.3,0,0.6-0.1,0.8-0.4l-0.5,1.2c0.2,0.1,0.3,0.1,0.5,0.2c-0.6,6.1,3.9,13.8,11.9,16.2
		c1.2-0.3,2.4-0.1,2.4,1.1c0,0.8-0.4,1.1-1.1,1.1c-0.5,0-0.8-0.3-0.8-0.6c0-0.5,0.9-0.2,1-0.6c0.1-0.5-0.2-0.7-0.7-0.7
		c-0.6,0-1.4,0.4-1.4,1.3c0,1.1,0.9,1.7,1.8,1.7c0.9,0,2.7-0.5,2.5-2.7c0.4,0,0.9-0.1,1-0.5l0.1-1.2l-0.4-0.1l0.3-13.9l0.3,0
		c0.5,0,1-0.2,1-0.8C170.4,107.5,169.9,107.3,169.5,107.2"/>
	<path fill="#1D1D1B" d="M162.5,77.8c0-0.1,0.1-0.2,0.1-0.2c0.1,0,0.2,0,0.2-0.1c0-0.1-0.1-0.2-0.2-0.3c0.1,0,0.2-0.1,0.1-0.1
		c-0.1-0.1-0.2,0-0.2,0c0-0.1,0.1-0.1,0.1-0.1c0,0,0.1,0,0.2,0l0.5,0.2c0.1,0,0.1,0.1,0.1,0.1c0,0.1,0,0.1,0,0.2c0,0,0-0.2-0.1-0.2
		c-0.1,0-0.1,0.1,0,0.2c-0.1,0-0.2-0.1-0.3,0c-0.1,0.1,0,0.2,0,0.2c0,0,0,0.1,0,0.3c0,0.1-0.2,0.3-0.4,0.2
		C162.4,78.1,162.4,77.9,162.5,77.8 M163,76.5c-0.1,0.1-0.3,0.3-0.4,0.1c-0.1-0.2,0-0.2-0.1-0.4C162.6,76.3,162.9,76.5,163,76.5
		 M163.4,76.7c0.1,0.1,0.4,0.2,0.6,0.2c-0.3,0.1-0.2,0.2-0.4,0.2C163.5,77.1,163.4,76.9,163.4,76.7 M162,77C162,77,162,77,162,77
		C162,77,162,77,162,77 M167.8,79.2c1.9,0,2.8-0.6,2.8-1.2c0-2.1-5.2-0.8-5.2-2.1c0-0.2,0.2-0.4,0.4-0.6h0.1
		c2.6-0.3,2.7-2.1,4.5-2.4c-2.2-0.3-2.5,1.4-3.5,1.5c0.5-0.2,0.7-0.9,0.6-1.1c-0.5,0.6-1.5,0.7-2,1.4c-0.1,0.1-0.1,0.2-0.1,0.4
		c-0.3,0.2-0.6,0.5-0.6,0.8c0,2,5.3,0.6,5.3,2.1c0,0.5-0.9,0.8-2.4,0.8c-1.1,0-1.9-0.8-3.9-0.2c0-0.3,0.7-1,0.4-1.3
		c0.2-0.1,0.3-0.2,0.3-0.4c-0.1-0.1-0.2-0.2-0.4-0.2c0.1-0.1,0-0.2-0.1-0.3c0,0-0.1-0.2-0.1-0.3c-0.1-0.1-0.2-0.2-0.5-0.3
		c-0.2-0.1-0.4-0.1-0.5-0.1c-0.1,0-0.3,0-0.3,0c-0.1,0-0.2,0-0.3,0.1c-0.1-0.1-0.2-0.2-0.4-0.2c-0.1,0.2-0.1,0.3,0,0.6
		c-0.2,0-0.4,0.5-0.6,0.5c0.1,0.1,0.1,0.2,0.2,0.2c-0.2,0.3-0.2,0.6-0.4,0.6c0,0.1,0.1,0.1,0.1,0.2c-0.2,0.4-0.2,0.9-0.3,1.2
		c-0.1-0.1-0.3-0.2-0.4-0.3c-0.3-0.2-0.3-0.3-0.2-0.6c0-0.3,0.2-0.5,0.2-0.7c0,0,0-0.2-0.1-0.2c0-0.2-0.3-0.3-0.4-0.3
		c0.1,0,0.1,0.1,0.1,0.3c-0.1,0-0.1,0.1-0.1,0.1c-0.1,0.1-0.1,0.2,0,0.3c0,0,0,0,0,0c0,0,0,0.1,0,0.1c0,0,0,0,0,0
		c0-0.2-0.1-0.5-0.3-0.5c0,0-0.1,0-0.1,0c0,0,0,0,0,0c0-0.2-0.2-0.3-0.5-0.1c0,0,0.2,0,0.2,0.1c0,0.1-0.1,0.2-0.1,0.2
		c0,0.2,0.1,0.3,0.3,0.3c0,0,0.1,0,0.1,0c0,0,0,0.1,0,0.1c0,0,0,0,0,0c-0.4-0.2-0.5,0-0.6,0.1c0,0,0,0.1,0,0.2
		c-0.2,0.1-0.2,0.3,0,0.4c0-0.1,0-0.2,0.1-0.2c0,0,0,0,0,0c0,0,0.1,0.1,0.1,0.1c0,0,0.1,0,0.2-0.1c0,0,0.1,0,0.1,0c0,0,0,0,0.1,0.1
		c0,0,0,0,0,0.1c-0.3,0.2-0.3,0.4,0,0.5c0,0,0,0,0,0.1c-0.1,0.4-0.7,0.3-0.6-0.1c-0.4,0.5,0.1,0.8,0.6,0.6c0,0,0,0,0.1,0
		c0,0.1,0.1,0.2,0.1,0.2c0,0,0-0.1,0.1-0.1c0,0,0,0,0,0c0,0.1,0,0.2,0.2,0.3c0-0.1,0-0.2,0.1-0.2c0.1,0,0.2,0.4,0.5,0.6
		c-0.4,0.2-1.1,0.4-1.2,0.4c-0.1,0-0.7-0.1-0.9,0c-0.3,0.2-1,0.4-1.3,0.1c-0.1-0.1,0-0.2-0.1-0.4c-0.1-0.1-0.2-0.2-0.2-0.2
		c0,0-0.1,0-0.2,0c-0.1-0.1-0.4-0.2-0.5-0.1c0.1,0,0.2,0,0.3,0.2c0,0-0.1,0.1-0.1,0.2c-0.1,0.1,0,0.2,0.4,0.4c0,0,0.1,0,0,0.1
		c-0.1,0-0.2,0-0.3,0c-0.2-0.1-0.2-0.3-0.4-0.2c0,0-0.1,0-0.1,0.1c0,0,0,0-0.1,0c-0.2,0-0.5,0.2-0.4,0.5c0,0,0.1-0.2,0.3-0.2
		c0,0.1,0,0.1,0,0.2c0,0.2,0.1,0.4,0.6,0.1c0.1,0,0.1,0,0,0c-0.1,0.2-0.4,0.4-0.2,0.6c0,0,0.1,0,0.1,0.1c0,0,0,0,0,0
		c-0.1,0.3,0.2,0.5,0.4,0.4c-0.1-0.1-0.2-0.2-0.1-0.4c0.1,0,0.1,0,0.1,0c0.2-0.1,0.1-0.4,0.3-0.5c0,0,0.1,0,0.1,0
		c0,0.1,0.1,0.4,0.3,0.4c0.3,0,0.4-0.3,0.4-0.4c0,0,0,0,0,0c0.1,0.1,0.2,0.2,0.1,0.3c0.1,0,0.2-0.1,0.2-0.2c0.1,0.1,0.1,0.3-0.1,0.5
		c0.1,0,0.4-0.2,0.4-0.5c0.1,0,0.1,0.1,0.1,0.2c0,0,0,0,0,0c0.1,0,0.3,0,0.6,0c0,0,0,0,0,0c0,0.1,0,0.2,0,0.3c0,0,0.1-0.1,0.1-0.1
		c0.1,0,0,0.3,0.2,0.4c0-0.7,0.4-0.4,0.9-0.7c0.1,0,0.1,0,0,0c0,0.1-0.1,0.2-0.2,0.2c0.2,0,0.5-0.2,0.5-0.4c0,0,0.1-0.1,0.3-0.2
		c0.2,0,0.4,0,0.5-0.2c0,0.1,0.1,0.3,0,0.3c0.5,0,0.9-0.5,1.1-0.5c1-0.2-0.6-0.9,1.4-0.8c0.1,0,0.5-0.1,0.6-0.2
		c-0.2,0.3-0.2,0.9,0.1,0.9c0.1,0,0.4,0.1,0.5,0.2c0,0,0,0,0,0c-0.2,0-0.4,0.1-0.4,0.1c-0.5,0.3-0.5-0.7-1-0.5c0,0-0.1,0.1-0.1,0.1
		c-0.2,0-0.5,0.2-0.4,0.5c0.1-0.1,0.2-0.2,0.3-0.2c0,0,0,0.1,0,0.1c0,0.1,0,0.1,0.2,0.1c0.1,0,0.1,0,0.2,0c0,0,0,0,0,0.1
		c0,0.2-0.6-0.1-0.5,0.4c0,0,0,0.1,0.1,0.2c0,0.2,0.1,0.3,0.4,0.2c0,0-0.2-0.1-0.1-0.2c0.1,0,0.1,0,0.1,0c0,0,0,0,0.1-0.1
		c0,0,0,0,0,0c0,0,0.1,0,0.1,0c0,0.1,0,0.1,0,0.1c0,0,0,0.1,0.1,0.1c0,0.2,0.2,0.4,0.5,0.2c-0.1,0-0.2,0-0.3-0.1c0.1,0,0.1,0,0.1,0
		c0.1,0,0.1-0.1,0.1-0.2c0,0,0,0,0,0c0,0,0.1,0,0.1,0c0,0,0.1,0,0.1,0c0,0.1,0.2,0.2,0.4,0.2c0.3-0.1,0-0.4,0.3-0.5c0,0,0.1,0,0.2,0
		c0.3,0.1,0.6,0,0.7-0.1c0.1-0.1,0-0.6-0.2-0.8c-0.2-0.1,0-0.3-0.2-0.5c0.3,0.1,0.6,0.3,1,0.3c0.7,0,0-0.1,0.4-0.3
		c0.3-0.2,0.8-0.1,0.9-0.1c0.1,0,0.2,0.1,0.2,0.2c-0.1,0.4,0,0.4,0,0.6c-0.1,0.2-0.4,0-0.6,0c-0.1,0-0.2,0.1-0.2,0.1
		c-0.2,0-0.4,0.2-0.4,0.4c0.1,0,0.2-0.1,0.3-0.2c0,0,0,0.1,0,0.1c0,0.3,0.3,0.3,0.5,0.2c0,0,0.1,0,0.1,0c-0.2,0.1-0.4,0.3-0.2,0.5
		c0,0,0.1,0,0.1,0.1c0,0.2,0.1,0.3,0.2,0.3c0-0.1-0.1-0.1,0-0.3c0,0,0.1,0,0.1,0c0.2,0,0.1-0.3,0.3-0.4c0,0,0,0,0,0
		c0,0.2-0.1,0.4,0.1,0.5c0,0,0.1,0,0.1,0c0,0.1,0.2,0.2,0.4,0.1c0,0-0.2-0.1-0.2-0.1c0.1-0.1,0.1-0.1,0.1-0.2
		c0.1-0.4-0.2-0.4-0.2-0.6c0-0.2,0.4-0.1,0.4-0.5c0-0.1,0-0.2-0.2-0.2c0,0,0,0,0,0h0c0.1,0,0.2,0,0.3-0.1c-0.3,0-0.2-0.2-0.2-0.4
		c0,0,0,0,0-0.1c0.1-0.1,0.2-0.2,0.1-0.4c-0.1,0.2-0.4,0.3-0.5,0c0,0,0-0.2-0.3-0.2C169,79.5,168.7,79.3,167.8,79.2
		C167.8,79.2,167.7,79.2,167.8,79.2"/>
	<path fill="#1D1D1B" d="M159.3,89.1L159.3,89.1C159.3,89.1,159.3,89.1,159.3,89.1 M157.8,85.9c0.1-0.1,0.1-0.2,0.2-0.2
		c0.1,0,0.2,0,0.2-0.1c0-0.2-0.1-0.2-0.2-0.3c0.1,0,0.2-0.1,0.1-0.2c-0.1-0.1-0.2,0.1-0.2,0c0-0.1,0.1-0.1,0.1-0.2
		c0.1,0,0.1,0,0.2,0l0.6,0.3c0.1,0,0.1,0.1,0.1,0.1c0,0.1,0,0.2,0,0.2c-0.1,0-0.1-0.2-0.2-0.2c-0.1,0-0.1,0.1,0,0.2
		c-0.1,0-0.3-0.1-0.3,0c-0.1,0.1,0,0.2,0,0.3c0,0.1,0,0.2,0,0.3c0,0.1-0.2,0.3-0.4,0.2C157.7,86.2,157.7,86,157.8,85.9 M158.5,84.4
		c-0.1,0.2-0.3,0.3-0.5,0.1c-0.2-0.1,0-0.2-0.2-0.5C158,84.2,158.4,84.4,158.5,84.4 M158.9,84.6c0.1,0.1,0.5,0.2,0.7,0.3
		c-0.3,0.1-0.2,0.2-0.5,0.2C159,85.1,158.9,84.8,158.9,84.6 M156,87.3C156,87.3,156,87.2,156,87.3C156,87.3,156,87.3,156,87.3
		 M170.4,86.2c0-0.6-0.6-0.9-2.5-0.9c-1.9,0-6,0.7-6-0.3c0-0.5,0.8-0.5,1.8-0.4c0.1,0.1,0.2,0.2,0.4,0.2c2.4,0.7,5.2-0.6,6.6-0.2
		c-1.7-1.3-3.1,0-4.9-0.3c1.1,0,1.4-0.3,1.5-0.6c-0.8,0.5-2.4-0.3-3.4,0.3c0,0-0.1,0.1-0.1,0.1c-1.3,0-2.4,0-2.4,0.8
		c0,1.8,4.9,0.8,6.5,0.8c1.6,0,1.9,0.2,1.9,0.5c0,0.4-1.5,0.6-2.4,0.6c-1.4,0-5.4-0.7-7.9-0.2c0.2-0.4,0.6-0.9,0.4-1.2
		c0.2-0.1,0.4-0.3,0.4-0.5c-0.1-0.1-0.3-0.2-0.4-0.2c0.1-0.1,0-0.2-0.1-0.3c0,0-0.1-0.3-0.1-0.3c-0.1-0.1-0.3-0.2-0.5-0.4
		c-0.3-0.1-0.4-0.1-0.6-0.2c-0.1,0-0.3,0-0.3,0c-0.1,0-0.3,0-0.3,0.1c-0.1-0.1-0.3-0.1-0.4-0.2c-0.1,0.2-0.1,0.3-0.1,0.6
		c-0.2,0-0.4,0.6-0.6,0.5c0.1,0.2,0.1,0.2,0.2,0.2c-0.2,0.3-0.3,0.7-0.5,0.7c0.1,0.2,0.2,0.2,0.3,0.3c0,0.3,0,0.5-0.1,0.7l-0.4-0.1
		c0,0-0.1,0-0.1,0c-0.1,0-0.1,0-0.2,0c0,0,0.1,0,0.2,0l-0.2-0.1c-0.2-0.2-0.5-0.5-0.8-0.7c-0.4-0.2-0.4-0.4-0.3-0.8
		c0-0.3,0.2-0.6,0.2-0.9c0,0,0-0.2-0.1-0.3c0-0.2-0.3-0.4-0.5-0.3c0.1,0.1,0.2,0.2,0.2,0.3c-0.1,0.1-0.1,0.2-0.2,0.2
		c-0.1,0.1-0.1,0.2,0,0.3c0,0,0,0,0,0.1s0,0.1,0,0.1c0,0.1,0,0,0,0c-0.1-0.2-0.2-0.6-0.4-0.6c0,0-0.1,0-0.2,0c0,0,0,0,0,0
		c0-0.2-0.2-0.5-0.5-0.1c0,0,0.2,0,0.2,0.1c0,0.1-0.1,0.2-0.1,0.2c0,0.3,0.1,0.3,0.4,0.3c0,0,0.1,0,0.1,0c0,0,0,0.1,0,0.1
		c0,0,0,0,0,0c-0.4-0.2-0.6,0-0.6,0.2c0,0,0,0.1,0,0.2c-0.2,0.1-0.2,0.3,0.1,0.5c0-0.1,0-0.2,0.1-0.3c0,0,0,0,0.1,0
		c0,0,0.1,0.1,0.1,0.1c0,0,0.1,0,0.2-0.1c0,0,0.1,0,0.1,0c0,0,0.1,0,0.1,0.1c0,0,0,0.1,0,0.1c-0.3,0.3-0.3,0.5,0.1,0.6
		c0,0,0.1,0,0.1,0.1c-0.1,0.5-0.8,0.4-0.7-0.1c-0.4,0.6,0.2,1.1,0.8,0.8c0,0,0,0,0.1,0c0,0.1,0.1,0.2,0.2,0.2c0,0,0-0.1,0.1-0.1
		c0,0,0,0,0,0.1c0,0.1,0,0.3,0.2,0.3c0-0.1,0-0.2,0.1-0.2c0.1,0,0.3,0.4,0.7,0.6c0.4,0.1,0.6,0.5,0.8,0.3c0,0.4,0.3,0.8,0.2,0.8
		c-0.1,0-1.1-0.1-1.3,0.1c-0.4,0.2-1.2,0.5-1.5,0.1c-0.1-0.1-0.1-0.2-0.2-0.4c-0.1-0.1-0.2-0.2-0.3-0.2c0,0-0.1,0-0.2,0
		c-0.1-0.1-0.5-0.2-0.6-0.1c0.1,0,0.2,0,0.3,0.2c0,0-0.1,0.2-0.1,0.2c-0.1,0.1,0,0.3,0.5,0.5c0,0,0.1,0.1,0,0.1c-0.1,0-0.2,0-0.3,0
		c-0.2-0.2-0.2-0.4-0.5-0.3c0,0-0.1,0.1-0.2,0.1c0,0,0,0-0.1,0c-0.2,0-0.6,0.3-0.4,0.5c0-0.1,0.1-0.2,0.3-0.3c0,0.1,0,0.1,0,0.2
		c0,0.3,0.2,0.5,0.7,0.1c0.1,0,0.1,0,0,0c-0.1,0.2-0.5,0.5-0.2,0.6c0,0,0.1,0.1,0.1,0.1c0,0,0,0,0,0c0,0.3,0.3,0.6,0.5,0.6
		c-0.1-0.1-0.2-0.2-0.2-0.5c0,0,0.1,0,0.1,0c0.3-0.1,0.2-0.4,0.3-0.5c0.1,0,0.1,0,0.1,0c0,0.2,0.1,0.5,0.4,0.4
		c0.3,0,0.5-0.3,0.4-0.5c0,0,0,0,0,0c0.1,0.1,0.2,0.2,0.2,0.3c0.1,0,0.2-0.1,0.2-0.2c0.1,0.2,0.1,0.4-0.1,0.6c0.1,0,0.5-0.2,0.5-0.5
		c0,0.1,0.1,0.1,0.1,0.2c0,0,0,0,0,0c0.1,0,0.3,0.1,0.6,0c0.1,0,0.1,0,0.1,0c0,0.1,0,0.3,0,0.3c0,0,0.1-0.2,0.1-0.2
		c0.1,0,0,0.3,0.2,0.5c0.1-0.8,0.5-0.5,1-0.8c0.1-0.1,0.1,0,0,0c0,0.1-0.1,0.2-0.2,0.3c0.6,0.1,1.5-0.7,1.6-1.1c0.2,0,0.4-0.1,0.5,0
		c1.6,0.1,0.5-1.4,3.1-1c0.2,0,0.5-0.2,0.6-0.3c-0.2,0.3-0.2,1.1,0.2,1.1c0.2,0,0.5,0.1,0.6,0.3c0,0,0,0,0,0c-0.2,0-0.4,0.1-0.5,0.1
		c-0.5,0.4-0.6-0.8-1.2-0.6c0,0-0.1,0.1-0.2,0.1c-0.2,0-0.6,0.3-0.5,0.5c0.1-0.1,0.2-0.2,0.4-0.2c0,0,0,0.1,0,0.1
		c0,0.1,0,0.2,0.2,0.2c0.1,0,0.1-0.1,0.2-0.1c0,0,0.1,0,0.1,0.1c0,0.2-0.7-0.1-0.6,0.5c0,0,0.1,0.1,0.1,0.2c0,0.2,0.1,0.4,0.4,0.3
		c-0.1,0-0.2-0.1-0.1-0.2c0.1,0,0.1,0,0.1,0c0,0,0.1,0,0.1-0.1c0,0,0,0,0,0c0,0,0,0,0,0c0,0,0,0.1,0,0.1c0,0,0,0.2,0.1,0.2
		c0,0.2,0.3,0.5,0.6,0.2c-0.1,0-0.3,0-0.3-0.2c0.1,0,0.1-0.1,0.1-0.1c0,0,0.1-0.1,0.1-0.2c0,0,0,0,0.1,0c0,0,0.1,0,0.1,0
		c0.1,0,0.1,0,0.1,0c0.1,0.1,0.3,0.3,0.5,0.2c0.4-0.1,0.1-0.5,0.4-0.6c0.1,0,0.2,0,0.2,0c0.3,0.1,0.8,0.1,0.9-0.1
		c0.1-0.2,0-0.7-0.3-0.9c-0.2-0.1,0-0.3-0.2-0.6c0.4,0.1,0.7,0.3,1.2,0.3c0.9,0,1.1-0.1,1.4-0.3c0.4-0.3,0.9-0.1,1-0.1
		c0.1,0,0.2,0.1,0.2,0.2c-0.1,0.5,0,0.5-0.1,0.7c-0.1,0.2-0.5,0-0.7,0c-0.1,0-0.2,0.1-0.3,0.1c-0.2,0-0.5,0.2-0.4,0.5
		c0.1-0.1,0.2-0.2,0.4-0.2c0,0,0,0.1,0,0.1c0,0.3,0.4,0.4,0.6,0.2c0,0,0.1,0,0.1,0c-0.2,0.1-0.5,0.4-0.2,0.5c0,0,0.1,0.1,0.2,0.1
		c0,0.2,0.1,0.4,0.3,0.4c-0.1-0.1-0.1-0.2,0-0.4c0.1,0,0.1,0,0.1,0c0.2,0,0.1-0.4,0.3-0.5c0,0,0,0,0,0c-0.1,0.2-0.1,0.5,0.1,0.5
		c0,0,0.1,0,0.2,0c0.1,0.2,0.3,0.3,0.5,0.2c-0.1,0-0.2-0.1-0.2-0.2c0-0.1,0.1-0.2,0.1-0.2c0.1-0.5-0.3-0.5-0.3-0.6
		c0-0.2,0.4-0.1,0.4-0.5c0-0.1,0-0.2-0.2-0.3c0,0,0,0,0,0h0c0.1,0,0.3,0,0.3-0.2c-0.3,0-0.2-0.2-0.3-0.4c0,0,0-0.1,0-0.1
		c0.1-0.1,0.2-0.2,0.1-0.5c-0.1,0.1-0.5,0.3-0.5,0c0,0,0-0.2-0.4-0.2c-0.6,0-1-0.1-2-0.2C168.6,87.2,170.4,86.9,170.4,86.2"/>
	<path fill="#1D1D1B" d="M155.7,94.1c0.1-0.1,0.1-0.2,0.2-0.2c0.1,0,0.2,0,0.2-0.1c0.1-0.1-0.1-0.2-0.2-0.3c0.1,0,0.2-0.1,0.1-0.2
		c-0.1-0.1-0.2,0.1-0.2,0c0-0.1,0.1-0.1,0.1-0.1c0-0.1,0.1,0,0.2,0l0.5,0.3c0.1,0,0.1,0.1,0.1,0.2c0,0,0,0.2,0,0.2
		c-0.1,0-0.1-0.2-0.2-0.2c-0.1,0-0.1,0.1,0,0.2c-0.1,0-0.3-0.1-0.3,0c-0.1,0.1,0,0.2,0,0.3c0,0,0,0.2,0,0.3
		c-0.1,0.1-0.2,0.3-0.4,0.2C155.6,94.4,155.6,94.2,155.7,94.1 M156.3,92.6c-0.1,0.2-0.3,0.3-0.4,0.1c-0.1-0.2,0-0.2-0.2-0.5
		C155.9,92.4,156.2,92.6,156.3,92.6 M156.8,92.9c0.1,0.1,0.5,0.2,0.7,0.3c-0.3,0.1-0.2,0.2-0.5,0.2C156.8,93.3,156.7,93,156.8,92.9
		 M169.6,94.3c0-0.5-0.6-0.9-2.4-0.9c-1.8,0-7.2,0.6-7.2-0.3c0-0.6,1.8-0.4,3.2-0.3c0,0.1,0.2,0.2,0.4,0.3c2.3,0.6,4.6-0.9,6.3-0.3
		c-1.3-1.2-2.9,0.1-4.7-0.2c1,0,2.1-0.2,2.1-0.5c-0.8,0.5-3-0.3-3.9,0.2c-0.1,0.1-0.1,0.1-0.2,0.1c-1.7,0-3.7-0.2-3.7,0.8
		c0,1.8,6.2,0.7,7.6,0.7c1.5,0,1.8,0.2,1.8,0.4c0,0.4-1.5,0.5-2.3,0.5c-1.4,0-7.1-0.8-9.4-0.1c0.1-0.4,0.7-1,0.4-1.3
		c0.2-0.1,0.4-0.3,0.4-0.4c-0.1-0.1-0.3-0.2-0.4-0.2c0.1-0.1,0-0.2-0.1-0.3c0,0-0.1-0.3-0.1-0.3c-0.1-0.1-0.3-0.2-0.5-0.3
		c-0.2-0.1-0.4-0.1-0.5-0.1c-0.1,0-0.3,0-0.3,0c-0.1,0-0.3,0-0.3,0.1c-0.1-0.1-0.2-0.1-0.4-0.2c-0.1,0.2-0.1,0.3-0.1,0.6
		c-0.2,0-0.4,0.5-0.6,0.5c0.1,0.2,0.1,0.2,0.2,0.2c-0.2,0.3-0.2,0.7-0.4,0.7c0.1,0.1,0.1,0.2,0.2,0.2c0,0.2-0.1,0.4-0.1,0.5
		l-0.2-0.1c-0.1,0-0.2,0-0.3,0c-0.1,0-0.2,0-0.3,0c-0.3,0-0.5-0.5-0.9-0.7c-0.4-0.2-0.4-0.4-0.4-0.7c0-0.3,0.2-0.6,0.1-0.9
		c0,0-0.1-0.2-0.1-0.3c-0.1-0.2-0.3-0.4-0.5-0.3c0.1,0.1,0.2,0.1,0.2,0.3c-0.1,0.1-0.1,0.1-0.1,0.2c-0.1,0.1-0.1,0.2,0,0.3
		c0,0,0,0,0,0.1c0,0,0,0.1,0,0.1c0,0,0,0-0.1,0c-0.1-0.2-0.2-0.5-0.4-0.6c0,0-0.1,0-0.1,0c0,0,0,0,0,0c0-0.2-0.2-0.4-0.5-0.1
		c0.1,0,0.2,0,0.2,0.1c0,0.1-0.1,0.2-0.1,0.2c0,0.2,0.2,0.3,0.4,0.3c0,0,0,0,0.1,0c0,0,0,0.1,0,0.1c0,0,0,0,0,0
		c-0.4-0.2-0.6,0-0.6,0.2c0,0,0,0.1,0,0.2c-0.1,0.1-0.2,0.3,0.1,0.5c0-0.1,0-0.2,0.1-0.2c0,0,0,0,0,0c0,0,0.1,0.1,0.1,0.1
		c0,0,0.1,0,0.2-0.1c0,0,0.1,0,0.1,0c0,0,0.1,0,0.1,0.1c0,0,0,0.1,0,0.1c-0.3,0.3-0.2,0.5,0.1,0.6c0,0,0.1,0,0.1,0.1
		c0,0.5-0.7,0.4-0.7-0.1c-0.4,0.6,0.3,1,0.8,0.7c0,0,0,0,0,0c0,0.1,0.1,0.2,0.2,0.2c0,0,0-0.1,0.1-0.1c0,0,0,0,0,0
		c0,0.1,0.1,0.3,0.2,0.3c0-0.1,0-0.2,0.1-0.2c0.1,0,0.4,0.7,1.2,1.1c0.1,0,0.3,0,0.4-0.2c0,0,0.1,0.1,0.2,0.2c0,0.3,0.2,0.7,0.2,0.7
		c-0.1,0-1.2-0.1-1.5,0.1c-0.3,0.2-1.1,0.5-1.4,0.1c-0.1-0.1-0.1-0.2-0.2-0.4c-0.1-0.1-0.2-0.2-0.3-0.2c0,0-0.1,0-0.2,0
		c-0.1-0.2-0.4-0.2-0.6-0.1c0.1,0,0.2,0,0.3,0.2c0,0-0.1,0.1-0.1,0.2c-0.1,0.1,0,0.3,0.5,0.5c0,0,0.1,0,0,0.1c-0.1,0-0.2,0.1-0.3,0
		c-0.2-0.2-0.2-0.4-0.5-0.3c0,0-0.1,0-0.2,0.1c0,0,0,0-0.1,0c-0.2,0-0.6,0.3-0.4,0.5c0-0.1,0.1-0.2,0.3-0.2c0,0.1,0,0.1,0,0.2
		c0,0.3,0.2,0.5,0.7,0.1c0,0,0,0,0,0c-0.1,0.2-0.5,0.5-0.2,0.6c0,0,0.1,0,0.1,0.1c0,0,0,0,0,0c0,0.3,0.3,0.5,0.5,0.5
		c-0.1-0.1-0.2-0.2-0.2-0.5c0.1,0,0.1,0.1,0.2,0c0.3-0.1,0.1-0.4,0.3-0.5c0,0,0.1,0,0.1,0c0,0.1,0.1,0.4,0.4,0.4
		c0.3,0,0.4-0.3,0.4-0.4c0,0,0,0,0,0c0.1,0.1,0.2,0.2,0.2,0.3c0,0,0.2-0.1,0.2-0.2c0.1,0.1,0.1,0.3-0.1,0.5c0.1,0,0.4-0.2,0.5-0.5
		c0.1,0,0.1,0.1,0.1,0.2c0,0,0,0,0,0c0.1,0,0.3,0.1,0.6,0c0,0,0,0,0,0c0,0.2,0,0.3,0,0.3c0,0,0.1-0.2,0.1-0.2c0.1,0,0,0.3,0.2,0.5
		c0.1-0.8,1-0.4,1.5-0.7c0.1,0,0.1,0,0,0c0,0.1-0.1,0.2-0.2,0.3c0.2,0,0.4-0.1,0.6-0.3c0,0,0,0-0.1,0.1l0.8-0.3c0-0.1,0-0.2,0-0.2
		c0.1,0,0.2-0.1,0.3-0.1c0,0,0,0,0,0c0.5,0,0.5-0.4,0.6-0.3c2.9,0.4,1.2-1.2,4.6-0.9c0.2,0,0.2-0.1,0.4-0.2
		c-0.2,0.3-0.2,0.9,0.1,0.9c0.2,0,0.5,0.1,0.6,0.3c0,0,0,0,0,0c-0.2,0-0.4,0.1-0.5,0.1c-0.5,0.3-0.5-0.8-1.1-0.6
		c0,0-0.1,0.1-0.2,0.1c-0.2,0-0.5,0.3-0.5,0.5c0-0.1,0.2-0.2,0.3-0.2c0,0,0,0.1,0,0.1c0,0.1,0,0.2,0.2,0.2c0.1,0,0.2-0.1,0.2-0.1
		c0,0,0.1,0,0.1,0.1c0,0.2-0.7-0.1-0.6,0.5c0,0,0.1,0.1,0.1,0.2c0,0.2,0.1,0.4,0.4,0.3c-0.1,0-0.2-0.1-0.2-0.2c0,0,0.1,0,0.2,0
		c0,0,0,0,0.1-0.1c0,0,0,0,0,0c0,0,0.1,0,0.1,0c0,0.1,0,0.1,0,0.1c0,0,0,0.2,0.1,0.2c0,0.2,0.3,0.4,0.6,0.2c-0.1,0-0.3-0.1-0.3-0.1
		c0,0,0.1-0.1,0.1-0.1c0.1,0,0.1-0.1,0.1-0.2c0,0,0,0,0.1,0c0,0,0.1,0,0.1,0c0.1,0,0.1,0,0.1,0c0,0.1,0.2,0.2,0.4,0.2
		c0.4-0.1,0.1-0.5,0.4-0.5c0,0,0.2,0,0.2,0c0.3,0.1,0.7,0,0.8-0.1c0.1-0.1,0-0.7-0.3-0.8c-0.2-0.1,0-0.3-0.2-0.6
		c0.3,0.1,0.7,0.3,1.1,0.3c0.8,0,1-0.1,1.4-0.3c0.4-0.2,0.8-0.1,1-0.1c0.1,0,0.2,0.1,0.2,0.2c-0.1,0.4,0,0.5,0,0.6
		c-0.1,0.2-0.4,0-0.7,0c-0.1,0-0.3,0.1-0.3,0.1c-0.2,0-0.4,0.2-0.4,0.5c0.1,0,0.2-0.2,0.4-0.2c0,0,0,0.1,0,0.1
		c0,0.3,0.3,0.4,0.5,0.2c0,0,0.1,0,0.1,0c-0.2,0.1-0.5,0.4-0.2,0.5c0,0,0.1,0,0.1,0.1c0,0.2,0.1,0.3,0.3,0.4c0-0.1-0.1-0.1,0-0.3
		c0.1,0,0.1,0,0.1,0c0.2,0,0.1-0.4,0.3-0.5c0,0,0,0,0,0c-0.1,0.2-0.1,0.5,0.1,0.5c0,0,0.1,0,0.1,0c0,0.1,0.2,0.3,0.5,0.1
		c-0.1,0-0.2-0.1-0.2-0.2c0.1,0,0.1-0.2,0.1-0.2c0.1-0.4-0.2-0.4-0.2-0.6c0-0.2,0.4-0.1,0.4-0.5c0-0.1,0-0.2-0.2-0.3c0,0,0,0,0,0v0
		c0.1,0,0.2,0,0.3-0.1c-0.3,0-0.2-0.2-0.3-0.4c0-0.1,0-0.1,0-0.1c0.1-0.1,0.2-0.2,0.1-0.5c-0.1,0.1-0.4,0.3-0.5,0c0,0,0-0.2-0.4-0.2
		c-0.5,0.1-0.9-0.1-1.9-0.2C167.8,95.2,169.6,95,169.6,94.3"/>
	<path fill="#1D1D1B" d="M183.2,108.5L183.2,108.5C183.2,108.5,183.2,108.5,183.2,108.5 M180.6,104.4
		C180.6,104.4,180.5,104.4,180.6,104.4C180.5,104.4,180.6,104.4,180.6,104.4 M180.4,105L180.4,105L180.4,105z M180.9,105.8
		c0.1-0.1,0.1-0.2,0.2-0.2c0.1,0,0.2,0,0.2-0.1c0-0.1-0.1-0.2-0.2-0.3c0.1,0,0.2-0.1,0.1-0.2c-0.1-0.1-0.2,0.1-0.2,0
		c0-0.1,0.1-0.1,0.1-0.1c0,0,0.1,0,0.2,0l0.6,0.3c0.1,0,0.1,0.1,0.1,0.1c0,0.1,0,0.2,0,0.2c-0.1,0-0.1-0.2-0.1-0.2
		c-0.1,0-0.1,0.1,0,0.2c-0.1,0-0.3-0.1-0.3,0c-0.1,0.1-0.1,0.2,0,0.3c0,0,0,0.2,0,0.3c-0.1,0.1-0.2,0.3-0.4,0.2
		C180.8,106.1,180.8,105.9,180.9,105.8 M181.5,104.4c-0.1,0.2-0.3,0.3-0.4,0.1c-0.2-0.2,0-0.2-0.2-0.5
		C181.1,104.1,181.4,104.3,181.5,104.4 M182,104.6c0.1,0.1,0.5,0.2,0.7,0.3c-0.3,0.1-0.2,0.2-0.4,0.2C182,105,181.9,104.8,182,104.6
		 M194.7,107.9C194.7,107.8,194.7,107.8,194.7,107.9c0.1-0.1,0.2-0.3,0.2-0.5c-0.1,0.2-0.5,0.3-0.5,0c0,0,0-0.2-0.3-0.2
		c-0.5,0.1-1-0.1-2.1-0.1c-0.1,0-0.1-0.1,0-0.1c1-0.1,2.9-0.2,2.9-0.9c0-0.5-0.6-0.9-2.4-0.9c-1.8,0-7.2,0.6-7.2-0.3
		c0-0.6,1.8-0.4,3.2-0.3c0.1,0.1,0.2,0.2,0.4,0.2c2.3,0.6,4.9-1.1,6.2-0.6c-1.8-0.6-2.9,0.4-4.6,0.1c1,0,2.1-0.2,2.1-0.5
		c-0.8,0.5-3-0.3-3.9,0.2c-0.1,0-0.1,0.1-0.2,0.1c-1.7,0-3.7-0.2-3.7,0.8c0,1.7,6.1,0.7,7.6,0.7c1.5,0,1.8,0.2,1.8,0.4
		c0,0.4-1.5,0.5-2.3,0.5c-1.4,0-7.1-0.8-9.4-0.1c0.1-0.4,0.7-1,0.4-1.3c0.2-0.1,0.4-0.3,0.4-0.4c-0.1-0.1-0.3-0.2-0.4-0.2
		c0.1-0.1,0-0.2-0.1-0.3c0,0-0.1-0.3-0.1-0.3c-0.1-0.1-0.3-0.2-0.5-0.3c-0.2-0.1-0.4-0.1-0.5-0.1c0,0-0.3,0-0.3,0
		c-0.1,0-0.3,0-0.3,0.1c-0.1-0.1-0.3-0.1-0.4-0.2c-0.1,0.2-0.1,0.3,0,0.6c-0.2,0-0.4,0.5-0.6,0.5c0.1,0.2,0.1,0.2,0.2,0.2
		c-0.2,0.3-0.2,0.7-0.5,0.7c0.1,0.2,0.2,0.2,0.3,0.3c0,0.2,0,0.4,0,0.5l-0.3-0.1c-0.1,0-0.3,0-0.3,0c-0.1,0-0.2,0-0.3,0
		c-0.3,0-0.5-0.5-1-0.8c-0.4-0.2-0.4-0.4-0.4-0.7c0-0.3,0.1-0.6,0.1-0.9c0,0-0.1-0.2-0.1-0.3c-0.1-0.2-0.3-0.3-0.5-0.3
		c0.1,0.1,0.2,0.1,0.2,0.3c-0.1,0.1-0.1,0.2-0.2,0.2c0,0.1-0.1,0.2,0,0.3c0,0,0,0.1,0,0.1c0,0,0,0.1,0,0.1c0,0.1,0,0,0,0
		c-0.1-0.2-0.2-0.5-0.4-0.5c0,0-0.1,0-0.2,0c0,0,0,0,0,0c0-0.2-0.2-0.4-0.5-0.1c0.1,0,0.2,0,0.2,0.1c0,0.1-0.1,0.2-0.1,0.2
		c0,0.2,0.2,0.3,0.4,0.3c0.1,0,0.1,0,0.1,0c0,0,0,0.1,0,0.1c0,0,0,0,0,0c-0.4-0.2-0.6,0-0.6,0.2c0,0,0,0.1,0,0.2
		c-0.1,0.1-0.2,0.3,0.1,0.5c0-0.1,0-0.2,0.1-0.3c0,0,0,0,0.1,0c0,0,0.1,0.1,0.1,0.1c0,0,0.1,0,0.2-0.1c0,0,0.1,0,0.1,0
		c0,0,0.1,0,0.1,0.1c0,0,0,0,0,0.1c-0.3,0.3-0.2,0.5,0.1,0.6c0,0,0,0,0,0.1c0,0.5-0.7,0.4-0.6-0.1c-0.4,0.6,0.3,1,0.8,0.7
		c0,0,0,0,0.1,0c0,0.1,0.1,0.2,0.2,0.2c0,0,0-0.1,0.1-0.1c0,0,0,0,0,0.1c0,0.1,0.1,0.3,0.2,0.3c0-0.1,0-0.2,0.1-0.2
		c0.1,0,0.4,0.7,1.1,1.1c0-0.1,0.3-0.2,0.4-0.3c0,0.1,0.1,0.3,0.2,0.3l0.1-0.1c0,0.3,0.4,0.7,0.3,0.7c-0.1,0-0.8-0.1-1,0
		c-0.3,0.2-1.1,0.5-1.4,0.2c-0.1-0.2,0-0.2-0.2-0.4c-0.1-0.1-0.2-0.2-0.3-0.2c0,0-0.1,0-0.2,0c-0.1-0.2-0.4-0.2-0.5-0.1
		c0.1,0,0.2,0.1,0.3,0.2c0,0.1-0.1,0.1-0.1,0.2c-0.1,0.1,0,0.3,0.5,0.5c0,0,0.1,0,0,0.1c-0.1,0-0.2,0-0.3,0
		c-0.2-0.1-0.2-0.4-0.5-0.2c0,0-0.1,0-0.2,0.1c0,0,0,0-0.1,0c-0.2,0-0.6,0.3-0.4,0.5c0-0.1,0.1-0.2,0.3-0.2c0,0.1,0,0.1,0,0.1
		c0.1,0.3,0.2,0.5,0.7,0.1c0.1,0,0.1,0,0,0c-0.1,0.2-0.5,0.5-0.2,0.6c0,0,0.1,0.1,0.1,0.1c0,0,0,0,0,0.1c0,0.3,0.3,0.5,0.4,0.5
		c-0.1-0.1-0.2-0.2-0.2-0.5c0.1,0,0.1,0.1,0.2,0c0.3-0.1,0.1-0.4,0.3-0.5c0,0,0.1,0,0.1,0c0,0.1,0.1,0.4,0.4,0.4
		c0.3,0,0.4-0.3,0.4-0.4c0,0,0,0,0,0c0.1,0.1,0.2,0.2,0.1,0.3c0.1,0,0.2-0.1,0.2-0.2c0.1,0.2,0.1,0.3-0.1,0.5c0.1,0,0.4-0.2,0.5-0.5
		c0.1,0,0.1,0.1,0.1,0.2c0,0,0,0,0,0c0.1,0,0.3,0.1,0.6,0c0,0,0,0,0,0c0,0.1,0,0.3,0,0.3c0,0,0.1-0.2,0.1-0.2c0.1,0,0,0.3,0.2,0.5
		c0.1-0.8,0.5-0.5,1-0.8c0.1,0,0.1,0,0.1,0c0,0.1-0.1,0.2-0.2,0.3c0.2,0.1,0.9-0.3,0.9-0.6c0-0.1,0.3-0.1,0.5-0.2
		c0.5,0,0.4-0.4,0.6-0.3c2.9,0.4,1.2-1.2,4.6-0.9c0.2,0,0.2-0.2,0.4-0.3c-0.2,0.3-0.2,1,0.2,1.1c0.2,0,0.5,0.1,0.6,0.2
		c0,0,0,0.1,0,0.1c-0.2,0-0.4,0.1-0.5,0.1c-0.5,0.3-0.5-0.8-1.1-0.6c0,0-0.1,0.1-0.2,0.1c-0.2,0-0.5,0.3-0.5,0.5
		c0.1-0.1,0.2-0.2,0.4-0.2v0.1c0,0.1,0,0.2,0.2,0.2c0.1,0,0.1,0,0.2,0c0,0,0.1,0,0.1,0c0,0.2-0.7-0.1-0.6,0.5c0,0,0.1,0.2,0.1,0.2
		c0,0.2,0.1,0.4,0.4,0.3c-0.1,0-0.2-0.1-0.1-0.2c0,0,0.1,0,0.1,0c0,0,0.1,0,0.1-0.1c0,0,0,0,0,0c0.1,0,0.1,0,0.1,0
		c0,0-0.1,0.1,0,0.1c0,0,0,0.2,0,0.2c0,0.2,0.3,0.5,0.6,0.2c-0.1,0-0.3,0-0.3-0.1c0.1,0,0.1-0.1,0.2-0.1c0,0,0.1-0.1,0.1-0.2
		c0-0.1,0-0.1,0-0.1c0.1,0,0.1,0,0.2,0c0.1,0,0.1,0,0.1,0c0.1,0.1,0.2,0.2,0.4,0.2c0.4-0.1,0.1-0.5,0.4-0.5c0.1,0,0.1,0,0.2,0
		c0.3,0.1,0.7,0.1,0.8-0.1c0.1-0.1,0-0.7-0.3-0.8c-0.2-0.1,0-0.3-0.2-0.6c0.3,0.1,0.7,0.3,1.1,0.3c0.8,0,1.1-0.1,1.4-0.3
		c0.4-0.3,0.9-0.1,1-0.1c0.1,0,0.2,0.1,0.1,0.2c-0.1,0.4,0,0.5-0.1,0.6c-0.1,0.1-0.4,0-0.7,0c-0.1,0-0.2,0.1-0.2,0.1
		c-0.2,0-0.5,0.2-0.5,0.5c0.1,0,0.2-0.2,0.4-0.2v0.1c0,0.3,0.3,0.4,0.5,0.2c0,0,0.1,0,0,0c-0.2,0.1-0.5,0.4-0.2,0.5
		c0,0,0.1,0,0.1,0.1c0,0.2,0.1,0.3,0.2,0.4c0-0.1-0.1-0.2,0-0.3h0.1c0.2,0,0.1-0.4,0.3-0.5c0,0,0,0,0,0c-0.1,0.2-0.1,0.5,0,0.5
		c0,0,0.1,0,0.1,0c0,0.1,0.2,0.3,0.5,0.1c-0.1,0-0.2-0.1-0.2-0.2c0.1-0.1,0.1-0.2,0.1-0.2c0.2-0.4-0.2-0.5-0.2-0.6
		c0-0.2,0.4-0.1,0.5-0.5c0-0.1,0-0.2-0.2-0.3c0,0,0,0,0,0c0.1,0,0.2,0,0.3-0.1C194.6,108.3,194.7,108,194.7,107.9"/>
	<path fill="#1D1D1B" d="M181.9,112.8c-0.2,0-0.3-0.3-0.2-0.5c0.1,0.1,0.5,0.2,0.6,0.3C182.1,112.7,182.1,112.8,181.9,112.8
		 M181.6,113.2c-0.1,0-0.1-0.2-0.1-0.2c-0.1,0-0.1,0.1,0,0.2c-0.1,0-0.2-0.1-0.3,0c0,0.1,0,0.2,0,0.3c0,0.1,0,0.2,0,0.3
		c0,0.1-0.2,0.3-0.4,0.2c-0.2-0.1-0.2-0.3-0.1-0.4c0.1-0.1,0.1-0.2,0.2-0.2c0.1,0,0.2,0,0.2-0.1c0.1-0.1-0.1-0.2-0.2-0.3
		c0.1,0,0.2-0.1,0.1-0.1c-0.1-0.1-0.2,0-0.2,0c0-0.1,0-0.1,0.1-0.1c0,0,0.1,0,0.2,0l0.5,0.2c0,0,0.1,0.1,0.1,0.1
		C181.7,113,181.7,113.2,181.6,113.2 M181.3,112.2c-0.1,0.1-0.3,0.3-0.4,0.1c-0.1-0.1,0-0.2-0.1-0.5
		C180.9,112,181.2,112.1,181.3,112.2 M186.8,112.3c0,0.1,0.2,0.2,0.4,0.3c2.2,0.6,4.6-1,5.9-0.6c-1.7-0.6-2.8,0.4-4.4,0.1
		c1,0,2-0.2,2-0.5c-0.7,0.5-2.8-0.3-3.7,0.2c-0.1,0-0.1,0.1-0.1,0.1c-1.2,0-2.1,0-2.1,0.8c0,1.7,4.5,0.7,5.9,0.7
		c1.4,0,1.2,0.1,1.2,0.4c0,0.4-1.6,0.5-2.4,0.5c-1.2,0-4.9-0.6-7.1-0.2c0.2-0.4,0.6-0.8,0.4-1.1c0.2-0.1,0.3-0.3,0.4-0.4
		c-0.1-0.1-0.3-0.2-0.4-0.2c0.1-0.1,0-0.2-0.1-0.3c0,0-0.1-0.3-0.1-0.3c-0.1-0.1-0.2-0.2-0.5-0.3c-0.3-0.1-0.4-0.1-0.5-0.1
		c0,0-0.3,0-0.3,0c-0.1,0-0.3,0-0.3,0.1c-0.1-0.1-0.2-0.1-0.4-0.1c-0.1,0.2-0.1,0.3-0.1,0.6c-0.2,0-0.4,0.5-0.6,0.5
		c0.1,0.1,0.1,0.2,0.2,0.2c-0.2,0.3-0.2,0.6-0.4,0.7c0.1,0.1,0.1,0.1,0.2,0.2c-0.1,0.2-0.1,0.4-0.1,0.6l-0.2-0.1c0,0-0.1,0-0.1,0
		c-0.3,0-0.4,0-0.9-0.3c-0.3-0.2-0.3-0.4-0.3-0.7c0-0.3,0.1-0.5,0.1-0.8c0,0,0-0.2-0.1-0.3c-0.1-0.2-0.3-0.3-0.5-0.3
		c0.1,0,0.2,0.1,0.2,0.3c-0.1,0.1-0.1,0.1-0.1,0.1c-0.1,0.1-0.1,0.2,0,0.3c0,0,0,0,0,0.1c0,0,0,0.1,0,0.1c0,0.1,0,0,0,0
		c-0.1-0.2-0.2-0.5-0.4-0.5c0,0-0.1,0-0.1,0c0,0,0,0,0,0c0-0.2-0.2-0.4-0.5-0.1c0.1,0,0.2,0,0.2,0.1c0,0.1-0.1,0.2-0.1,0.2
		c0,0.2,0.2,0.3,0.4,0.3c0,0,0.1,0,0.1,0c0,0,0,0,0,0.1c0,0,0,0,0,0c-0.4-0.2-0.5,0-0.6,0.2c0,0,0,0.1,0,0.2
		c-0.1,0.1-0.2,0.3,0.1,0.4c0-0.1,0-0.2,0.1-0.2c0,0,0,0,0.1,0c0,0,0.1,0.1,0.1,0.1c0,0,0.1,0,0.2-0.1c0,0,0,0,0.1,0
		c0,0,0.1,0,0.1,0.1c0,0,0,0,0,0.1c-0.3,0.2-0.2,0.5,0.1,0.5c0,0,0,0,0,0.1c0,0.5-0.6,0.4-0.6-0.1c-0.3,0.5,0.3,0.9,0.7,0.7
		c0,0,0,0,0.1,0c0,0.1,0.1,0.2,0.2,0.2c0,0,0-0.1,0.1-0.1c0,0,0,0,0,0c0,0.1,0.1,0.3,0.2,0.3c0-0.1,0-0.2,0.1-0.2
		c0.1,0,0.1-0.2,0.6,0.1c0,0.1,0.1,0.2,0.2,0.2l0.4-0.1c0,0.3,0.1,0.8,0,0.8c-0.1,0-0.7-0.1-1,0c-0.3,0.2-1.1,0.5-1.3,0.1
		c-0.1-0.1-0.1-0.2-0.2-0.4c-0.1-0.1-0.2-0.2-0.2-0.2h-0.2c-0.1-0.1-0.4-0.2-0.5-0.1c0.1,0,0.2,0,0.3,0.2c0,0-0.1,0.1-0.1,0.1
		c-0.1,0.1,0,0.3,0.5,0.4c0,0,0.1,0,0,0.1c-0.1,0-0.2,0.1-0.3,0c-0.2-0.2-0.2-0.4-0.4-0.2c0,0-0.1,0-0.2,0.1c0,0,0,0-0.1,0
		c-0.2,0-0.5,0.3-0.4,0.5c0-0.1,0.1-0.2,0.3-0.2c0,0.1,0,0.1,0,0.2c0,0.3,0.1,0.5,0.7,0.1c0,0,0,0,0,0c-0.1,0.2-0.5,0.4-0.2,0.6
		c0,0,0,0,0.1,0.1c0,0,0,0,0,0.1c0,0.3,0.3,0.5,0.4,0.5c-0.1-0.1-0.2-0.2-0.2-0.4c0.1,0,0.1,0,0.2,0c0.2-0.1,0.1-0.4,0.3-0.5
		c0,0,0.1,0,0.1,0c0,0.1,0.1,0.4,0.4,0.4c0.3,0,0.4-0.3,0.4-0.4c0,0,0,0,0,0c0.1,0,0.2,0.2,0.1,0.3c0,0,0.1-0.1,0.2-0.2
		c0.1,0.1,0.1,0.3-0.1,0.5c0.1,0,0.4-0.2,0.5-0.5c0.1,0,0.1,0.1,0.1,0.2c0,0,0,0,0,0c0.1,0,0.3,0.1,0.6,0c0,0,0,0,0,0
		c0,0.1,0,0.2,0,0.3c0,0,0.1-0.2,0.1-0.2c0.1,0,0,0.3,0.2,0.5c0.1-0.7,0.7-0.6,1.1-0.8c0.1-0.1,0.1,0,0.1,0c0,0.1-0.1,0.2-0.2,0.2
		c0.5,0.3,1-0.4,1.2-0.8c0.1,0,0.1-0.1,0.1-0.1c0,0.1,0,0.1-0.1,0.2c0.5,0,0.4-0.4,0.6-0.3c1.4,0.1,0.3-1.2,2.7-0.8
		c0.1,0,0.4-0.1,0.6-0.2c-0.2,0.3-0.2,0.9,0.1,1c0.2,0,0.5,0.1,0.6,0.2c0,0,0,0,0,0.1c-0.2,0-0.4,0.1-0.5,0.1
		c-0.5,0.3-0.5-0.7-1-0.5c0,0-0.1,0.1-0.1,0.1c-0.2,0-0.5,0.3-0.5,0.5c0.1-0.1,0.2-0.2,0.4-0.2c0,0.1,0,0.1,0,0.1
		c0,0.1,0,0.2,0.2,0.2c0.1,0,0.1-0.1,0.2-0.1c0,0,0.1,0,0.1,0.1c0,0.2-0.6-0.1-0.5,0.5c0,0,0.1,0.1,0.1,0.2c0,0.2,0.1,0.4,0.4,0.2
		c0,0-0.2-0.1-0.1-0.2c0.1,0,0.1,0,0.1,0c0,0,0,0,0.1-0.1c0,0,0,0,0,0c0,0,0.1,0,0.1,0c0,0,0,0.1,0,0.1c0,0,0,0.2,0,0.2
		c0,0.2,0.3,0.4,0.6,0.2c-0.1,0-0.3,0-0.3-0.2c0.1,0,0.1-0.1,0.2-0.1c0,0,0-0.1,0-0.2c0,0,0,0,0.1,0c0,0,0.1,0,0.1,0
		c0.1,0,0.1,0,0.1,0c0.1,0.1,0.2,0.2,0.4,0.2c0.4-0.1,0-0.4,0.3-0.5c0,0,0.1,0,0.2,0c0.3,0.1,0.7,0.1,0.8-0.1c0.1-0.2,0-0.6-0.3-0.8
		c-0.2-0.1,0-0.3-0.1-0.6c0.3,0.2,0.6,0.3,1,0.3c0.8,0,1.1-0.1,1.5-0.3c0.4-0.2,0.8-0.1,1-0.1c0.1,0,0.2,0.1,0.1,0.2
		c-0.2,0.4-0.1,0.4-0.2,0.6c-0.1,0.2-0.4,0-0.6,0c-0.1,0-0.2,0.1-0.2,0.1c-0.2,0-0.5,0.2-0.5,0.4c0.1,0,0.2-0.2,0.4-0.2
		c0,0,0,0.1,0,0.1c0,0.3,0.2,0.4,0.5,0.2c0,0,0.1,0,0,0c-0.2,0.1-0.5,0.4-0.3,0.5c0,0,0.1,0,0.1,0.1c-0.1,0.2,0,0.3,0.1,0.4
		c0-0.1,0-0.2,0.1-0.3c0.1,0,0.1,0,0.1,0c0.2,0,0.2-0.3,0.4-0.4c0,0,0,0,0,0c-0.1,0.2-0.2,0.4-0.1,0.5c0,0,0.1,0,0.1,0
		c0,0.2,0.2,0.3,0.4,0.2c0,0-0.2-0.1-0.2-0.2c0.1-0.1,0.2-0.2,0.2-0.2c0.2-0.4-0.1-0.4-0.1-0.6c0-0.2,0.4-0.1,0.5-0.5
		c0-0.1,0-0.2-0.1-0.3c0,0,0,0,0,0c0.1,0,0.2,0,0.3-0.1c-0.3,0-0.1-0.2-0.1-0.4c0,0,0,0,0-0.1c0.1-0.1,0.2-0.2,0.2-0.5
		c-0.1,0.1-0.5,0.3-0.5,0c0,0,0-0.2-0.3-0.1c-0.5,0-1.2,0-2.2-0.1c-0.1,0-0.1,0,0-0.1c1-0.1,2.9-0.2,2.9-0.8c0-0.5-0.1-0.8-1.8-0.8
		c-1.7,0-5.5,0.6-5.5-0.3C185.1,112.2,185.9,112.2,186.8,112.3"/>
	<path fill="#1D1D1B" d="M180,121.3c0.1-0.1,0.1-0.2,0.2-0.2c0.1,0,0.2,0,0.2-0.1c0-0.1-0.1-0.2-0.2-0.2c0.1,0,0.2-0.1,0.1-0.1
		c-0.1-0.1-0.2,0-0.2,0c0-0.1,0.1-0.1,0.1-0.2c0.1,0,0.1,0,0.2,0l0.5,0.3c0.1,0,0.1,0.1,0.1,0.1c0,0,0,0.1,0,0.2c0,0,0-0.2-0.1-0.2
		c-0.1,0-0.1,0,0,0.2c-0.1,0-0.2-0.1-0.3,0c-0.1,0.1,0,0.2,0,0.3c0,0,0,0.1,0,0.2c0,0.1-0.2,0.3-0.4,0.2
		C179.9,121.6,179.9,121.4,180,121.3 M180.6,120c-0.1,0.1-0.3,0.3-0.4,0.1c-0.1-0.1,0-0.2-0.1-0.4C180.2,119.8,180.5,120,180.6,120
		 M180.9,120.2c0.1,0.1,0.4,0.2,0.6,0.2c-0.3,0.1-0.2,0.2-0.4,0.2C181,120.6,180.9,120.4,180.9,120.2 M185,120.1
		c0,0.1,0.2,0.2,0.4,0.3c2.1,0.6,4.6-1,5.9-0.6c-1.7-0.6-2.8,0.5-4.4,0.1c1,0,2-0.2,2-0.4c-0.7,0.5-2.8-0.3-3.7,0.2
		c-0.1,0-0.1,0.1-0.2,0.1c-0.7,0.1-1.2,0.5-1.2,1c0,1.4,5.5,0.3,5.5,0.8c0,0.4-1.1,0.7-2.5,0.7c-1.1,0-3-0.7-5.4-0.1v0
		c0.2-0.4,0.7-1,0.5-1.3c0.2-0.1,0.3-0.3,0.3-0.4c-0.1-0.1-0.3-0.2-0.4-0.2c0-0.1,0-0.2-0.1-0.3c0,0-0.1-0.2-0.1-0.3
		c-0.1-0.1-0.2-0.2-0.5-0.3c-0.2-0.1-0.4-0.1-0.5-0.2c-0.1,0-0.3,0.1-0.3,0.1c-0.1,0-0.3,0-0.3,0.1c-0.1-0.1-0.2-0.1-0.4-0.2
		c-0.1,0.2-0.1,0.3,0,0.6c-0.2,0-0.4,0.5-0.6,0.4c0.1,0.1,0.1,0.2,0.2,0.2c-0.2,0.3-0.2,0.6-0.4,0.6c0.1,0.1,0.2,0.2,0.2,0.2
		c-0.1,0.4-0.1,0.9-0.1,1.3c-0.3-0.4-0.8-1.2-1.2-1.3c-0.3-0.2-0.3-0.3-0.3-0.7c0-0.3,0.1-0.5,0.1-0.8c0,0,0-0.2-0.1-0.3
		c0-0.2-0.3-0.3-0.4-0.3c0.1,0,0.2,0.1,0.2,0.3c-0.1,0-0.1,0.1-0.1,0.1c-0.1,0.1-0.1,0.2,0,0.3c0,0,0,0,0,0.1c0,0,0,0.1,0,0.1
		c0,0.1,0,0,0,0c-0.1-0.2-0.2-0.5-0.3-0.5c0,0-0.1,0-0.1,0c0,0,0,0,0,0c0-0.2-0.2-0.3-0.5-0.1c0.1,0,0.2,0,0.2,0.1
		c0,0.1,0,0.2,0,0.2c0,0.2,0.1,0.3,0.4,0.3c0,0,0.1,0,0.1,0c0,0,0,0,0,0.1c0,0,0,0,0,0c-0.4-0.2-0.5,0-0.5,0.1c0,0,0,0.1,0,0.2
		c-0.1,0.1-0.1,0.3,0.1,0.4c0-0.1,0-0.2,0.1-0.2c0,0,0,0,0.1,0c0,0,0.1,0.1,0.1,0.1c0,0,0.1,0,0.2-0.1c0,0,0,0,0.1,0
		c0,0,0.1,0,0.1,0.1c0,0,0,0,0,0.1c-0.2,0.2-0.2,0.5,0.1,0.5c0,0,0.1,0,0.1,0.1c0,0.4-0.6,0.4-0.6-0.1c-0.3,0.5,0.3,0.9,0.7,0.6
		c0,0,0.1,0,0.1,0c0,0.1,0,0.1,0.1,0.1c0,0,0-0.1,0.1-0.1c0,0,0,0,0,0c0,0.1,0,0.3,0.2,0.3c0-0.1,0-0.2,0.1-0.2c0.1,0,0,0.7,0.6,1.1
		c0.1,0.4,0.4,0.6,0.8,0.6c0.1,0.3,0.3,0.5,0.2,0.5c-0.1,0-0.9-0.1-1.1,0c-0.2,0.1-0.4,0.2-0.7,0.2l0,0.1c0,0,0,0,0-0.1
		c-0.2,0-0.4,0-0.5-0.1c-0.1-0.1,0-0.2-0.1-0.4c-0.1-0.1-0.2-0.2-0.3-0.2c0,0-0.1,0-0.2,0c-0.1-0.1-0.4-0.1-0.5,0
		c0.1,0,0.2,0,0.3,0.2c0,0.1-0.1,0.1-0.1,0.1c-0.1,0.1,0,0.3,0.4,0.4c0,0,0.1,0.1,0,0.1c-0.1,0-0.2,0-0.2,0
		c-0.2-0.1-0.2-0.3-0.4-0.2c0,0-0.1,0-0.1,0.1c0,0,0,0-0.1,0c-0.2,0-0.5,0.2-0.4,0.5c0-0.1,0.1-0.2,0.2-0.2c0,0.1,0,0.1,0.1,0.1
		c0,0.3,0.1,0.4,0.6,0.1c0.1,0,0.1,0,0,0c-0.1,0.2-0.4,0.4-0.2,0.5c0,0,0.1,0.1,0.1,0.1c0,0,0,0,0,0.1c0,0.3,0.2,0.5,0.4,0.5
		c-0.1-0.1-0.2-0.2-0.2-0.4c0.1,0,0.1,0,0.2,0c0.2-0.1,0.1-0.4,0.2-0.5c0,0,0,0,0,0c0,0.1,0.1,0.4,0.4,0.4c0.3,0,0.4-0.3,0.4-0.4
		c0,0,0,0,0,0c0.1,0,0.2,0.2,0.1,0.3c0,0,0.2-0.1,0.2-0.2c0.1,0.1,0.1,0.3-0.1,0.5c0.1,0,0.4-0.1,0.4-0.5c0.1,0,0.1,0.1,0.1,0.2
		c0,0,0,0,0,0c0.1,0,0.3,0.1,0.5,0c0,0,0.1,0,0.1,0c0,0.1,0,0.2,0,0.3c0,0,0.1-0.1,0.1-0.1c0.1,0,0,0.3,0.2,0.4
		c0.1-0.7,0.4-0.4,0.9-0.7c0,0,0.1,0,0,0c0,0.1-0.1,0.2-0.2,0.2c0.2,0,0.7-0.2,0.7-0.5c0-0.1,0.3-0.4,0.4-1.2c0,0,0.1,0,0.2,0
		c0.6,0,0.8-0.5,1.4-0.5c-0.1,0.2-0.2,0.6-0.2,0.8c0,0.3,0.4,0.7,0.5,0.8c0,0,0,0,0,0.1c-0.2,0-0.4,0.1-0.4,0.1
		c-0.5,0.3-0.5-0.7-1-0.5c0,0-0.1,0.1-0.1,0.1c-0.2,0-0.5,0.2-0.4,0.5c0.1-0.1,0.2-0.2,0.3-0.2v0.1c0,0.1,0,0.2,0.2,0.2
		c0.1,0,0.1,0,0.2,0c0,0,0.1,0,0.1,0.1c0,0.2-0.6-0.1-0.5,0.4c0,0,0.1,0.1,0.1,0.2c0,0.1,0.1,0.3,0.4,0.2c-0.1,0-0.2-0.1-0.1-0.2
		c0,0,0.1,0,0.1,0c0,0,0.1,0,0.1-0.1c0,0,0,0,0,0c0,0,0.1,0,0.1,0c0,0-0.1,0.1-0.1,0.1c0,0,0,0.1,0.1,0.2c0,0.2,0.2,0.4,0.5,0.2
		c-0.1,0-0.2,0-0.3-0.1c0.1,0,0.1-0.1,0.1-0.1c0,0,0.1-0.1,0.1-0.2c0-0.1,0-0.1,0-0.1c0,0,0.1,0,0.1,0c0,0,0.1,0,0.1,0
		c0.1,0.1,0.2,0.2,0.4,0.1c0.3-0.1,0.1-0.4,0.3-0.5c0,0,0.1,0,0.2,0c0.3,0.1,0.5,0.1,0.6,0c0.1-0.1,0-0.6-0.3-0.8
		c-0.2-0.1,0.2-1.1-0.6-1.6c0.4,0.1,1.6,0.3,1.8,0c0.4,0.1,0.8,0.3,0.9,0.4c0,0.1,0.1,0.2,0,0.2c-0.3,0.2-0.3,0.3-0.5,0.4h0
		c-0.1-0.1-0.2-0.3-0.3-0.3c-0.1-0.1-0.2,0-0.2,0c-0.2,0-0.4,0-0.5,0.2c0.1,0,0.2-0.1,0.4,0c0,0,0,0.1,0,0.1c0,0.1,0,0.1,0.1,0.2
		c0,0,0,0,0,0c0,0,0,0,0,0c-0.2,0-0.5,0-0.5,0.2c0,0,0,0.1,0,0.1c-0.1,0.1-0.2,0.3-0.1,0.4c0-0.1,0.1-0.1,0.2-0.2
		c0,0,0.1,0.1,0.1,0.1c0.1,0.1,0.3-0.2,0.5-0.1c0,0,0,0,0,0c-0.2,0.1-0.4,0.2-0.3,0.3c0,0,0,0.1,0.1,0.1c-0.1,0.2,0,0.3,0.2,0.4
		c0,0-0.1-0.2,0-0.3c0.1,0,0.2,0,0.2,0c0.4-0.2,0.1-0.4,0.3-0.5c0.1-0.1,0.3,0.2,0.6,0c0,0,0.1-0.2,0-0.3c0,0,0,0,0,0v0
		c0.1,0.1,0.1,0.2,0.3,0.1c-0.2-0.2,0-0.3,0.1-0.4c0,0,0,0,0.1,0c0.1,0,0.3,0,0.4-0.2c-0.2,0-0.6-0.2-0.3-0.3
		c0.4-0.1,0.4-0.3,0.3-0.5c-0.3-0.4-0.9-0.4-0.9-0.8c0.2,0,0.5,0,0.5,0c1.9,0,3.1-0.5,3-1.1c-0.1-1.3-5.6,0.1-5.6-0.8
		C184.2,120.4,184.5,120.2,185,120.1"/>
	<path fill="#1D1D1B" d="M94.7,22.9c0-0.7-0.6-1.4-1.4-1.4c-0.7,0-1.3,0.6-1.3,1.4c0,0.8,0.6,1.4,1.3,1.4
		C94.1,24.3,94.7,23.6,94.7,22.9"/>
	<path fill="#1D1D1B" d="M94.2,19.3c0-0.7-0.6-1.4-1.4-1.4c-0.7,0-1.3,0.6-1.3,1.4c0,0.7,0.6,1.3,1.3,1.3
		C93.6,20.6,94.2,20,94.2,19.3"/>
	<path fill="#1D1D1B" d="M95,17.7c0.8,0,1.4-0.6,1.4-1.3c0-0.8-0.6-1.4-1.4-1.4c-0.7,0-1.3,0.6-1.3,1.4C93.6,17.1,94.2,17.7,95,17.7
		"/>
	<path fill="#1D1D1B" d="M98.6,17.5c0.8,0,1.4-0.6,1.4-1.3c0-0.7-0.6-1.4-1.4-1.4c-0.7,0-1.3,0.6-1.3,1.4
		C97.2,16.9,97.8,17.5,98.6,17.5"/>
	<path fill="#1D1D1B" d="M113.9,15c0.5,0.5,1.4,0.5,1.9,0c0.5-0.5,0.5-1.4,0-1.9c-0.5-0.5-1.4-0.5-1.9,0
		C113.4,13.6,113.4,14.4,113.9,15"/>
	<path fill="#1D1D1B" d="M113.6,12.1c0.5-0.5,0.5-1.4,0-1.9c-0.5-0.5-1.4-0.5-1.9,0c-0.5,0.5-0.5,1.4,0,1.9
		C112.3,12.6,113.1,12.6,113.6,12.1"/>
	<path fill="#1D1D1B" d="M110.1,11.5c0.5-0.5,0.5-1.4,0-1.9c-0.5-0.5-1.4-0.5-1.9,0c-0.5,0.5-0.5,1.4,0,1.9
		C108.7,12,109.5,12,110.1,11.5"/>
	<path fill="#1D1D1B" d="M107,13.8c0.5-0.5,0.5-1.4,0-1.9c-0.5-0.5-1.4-0.5-1.9,0c-0.5,0.5-0.5,1.4,0,1.9
		C105.6,14.3,106.5,14.3,107,13.8"/>
	<path fill="#1D1D1B" d="M98.4,11.9l1.1,2.4l1.4-1.7c0,0,0.1,0,0.2,0.1c0.1,0.8,0.2,2.2,0.2,3c0,1,0.8,1.7,1.7,1.7
		c0.9,0,1.7-0.8,1.7-1.7c0-0.7-0.4-1.2-0.9-1.5c-0.7-0.5-1.4-1.2-1.9-1.8c0-0.1,0.1-0.1,0.1-0.2l2.3,0.2l-0.9-2.4l-1.7,1.4
		c0,0-0.1,0-0.1,0l-0.1-2.5L99,9.7l1.6,1.9c-0.1,0.1-0.1,0.1-0.1,0.2L98.4,11.9z"/>
	<path fill="#1D1D1B" d="M114,16.1c0.5,0.8,0.7,1.2,0.8,1.9c-0.4-0.2-0.9-0.6-1.4-1.3l0.3,3.1c0.4-0.6,0.7-0.9,1.1-1.1
		c-0.1,2.1-0.9,2.9-1.6,3c-0.9,0.2-1.5-0.4-1.6-1.1c-0.2-0.9,0.6-1.5,1.4-0.7c0.1-1.9-1.4-1.9-2-1.1c0.8-1.8,0.5-3-1.2-4
		c-1,1.7-0.6,2.8,0.7,4.1c-1.3-0.6-2.4,0.4-1.3,1.8c0.2-1.2,1.3-0.9,1.5,0c0.2,0.8-0.6,1.9-1.9,2.3c-1.9,0.6-2.6-0.7-3-1.7
		c0.4-0.3,1.4-0.2,2.5,0.5l-0.9-3.1c-0.5,1.1-1.1,1.5-1.9,1.9c0-0.9,0.6-2.7,0.6-2.7l-3.7,1.5c0,0,1.7,0.8,2.3,1.5
		c-0.8,0.3-1.5,0.4-2.6,0l1.5,2.9c0.3-1.3,0.9-2,1.4-2.1c0.4,1.1,0.8,2.4-1,3.3c-1.2,0.6-2.5,0.5-3-0.3c-0.5-0.9,0.1-1.8,1.1-1.1
		c-0.2-1.8-1.7-1.8-2.2-0.4c0-1.8-0.5-2.9-2.4-3.4c-0.5,1.8,0.2,2.9,2,3.7c-1-0.1-2.1,0.9-0.7,2.2c0-1.2,1-1.3,1.5-0.5
		c0.4,0.5,0.3,1.4-0.4,1.9c-0.6,0.4-1.8,0.4-3.3-1c0.5-0.2,0.9-0.1,1.6,0l-2-2.4c0.1,0.9,0,1.5-0.1,1.9c-0.4-0.5-0.6-0.9-0.8-1.9
		l-1.5,1.4c1.4,0.9,3.1,2.2,5.1,5c2.1-1.3,5.9-3.2,8.2-4.1c2.4-0.9,6.4-2.3,8.8-2.8c-0.5-3.4-0.3-5.5,0.2-7.2L114,16.1z"/>
	<path fill="#1D1D1B" d="M118.3,34c-1.9,1.5-4.4,0.1-5.5-1.8c2.6-1.1,5.6-2.3,7.6-3.5C118.5,31.5,119.8,32.8,118.3,34 M117.9,53.6
		c-2.4,1.1-4.3-1.1-4.8-2.5c-0.5-1.5-0.9-2.7-0.3-3.2c1.1-1,1.4-1.9,0.8-3.1c-0.7-1.5-2.3-0.8-4-0.4c0.8-1.4,0.8-2.5-0.2-2.3
		c-1.3,0.1-1.3,2.2-2,2c-0.7-0.2-0.3-1.4-0.3-2.1c0-0.9,0.6-1.2,1.5-1.6l7-2.7c0.9-0.3,1.5-0.5,2.2,0.1c0.4,0.5,1.6,1,1.2,1.7
		c-0.4,0.7-1.8-0.8-2.9,0c-0.9,0.7-0.1,1.3,1.4,1.8c-1.5,0.9-3.1,1.5-2.6,3.1c0.5,1.4,1.2,1.7,2.7,1.7c0.8,0,1.4,1.2,2,2.5
		C120.3,50,120.5,52.5,117.9,53.6 M104.5,39.4c-1.9,0.2-1.8-1.6-5.2-2.4c2.3-0.5,5.4-1.6,8-2.7C107.8,36.5,106.9,39.2,104.5,39.4
		 M143.7,102.1c0.5-1.4-2.1-3.1-2.4-5.2c-0.3-2.1-0.1-4-2.4-6.8c-2.3-2.7-10.4-11.4-12.9-14.1c0.6,0,2-0.4,3.6,1
		c0.9,0.8,2.6,2.5,4.2,4.1c2.1-5.5,4.8-9.5,8.6-13.8c0.5-0.5,1-1.1,1.5-1.6c-1.4,0.4-3.5,0.7-4.8,1.6c-0.1-2.4,0.1-4.3-1.5-5.8
		c0.6-3.3,0.1-7.3-7.4-12.3c3.8,0.9,6,4.4,9,1.7c-2.6-0.1-2.7-5.8-12.1-10.5c3.6-0.1,6.4,5.7,10.6,2.4c-3.9-0.5-5.2-7.4-12.3-9.6
		c2.5,0.3,5,1.5,7.1-1.4c-2.5,0.6-3.9-1.7-6.6-1.9c1-3,0.8-4.9-0.3-7.2c-1.8,0.1-3.7,0.7-5.1,1.8c-0.2-1.7-2-1.8-3.5-1.7
		c0.1,0.7,0.4,1.8-0.4,1.9c-1.3,0.2-5.5,1.4-8.7,2.6c-3.3,1.3-7,3.6-8,4.3c-0.7,0.5-1.2-0.6-1.6-1.1c-1.1,1-2.3,2.2-1.4,3.5
		c-1.8,0.2-3.8,0.6-5.5,2c0,2.1,1.7,4.1,4.3,5.3c-4.4,4.4-0.4,8.4-4.3,12.2c5.4,0.2,4.5-7.3,7.2-8.4c-0.3,5.3-3.2,6.2-3.2,12
		c0,3,1.8,6.4,0.2,8.4c4.5-1.3,3.3-11.3,6.2-14.3c0.5,1.7,0.2,3.4-0.4,5.1c-1.6,4.7,0.2,11.1-2.3,13.2c4.6-0.5,5.2-7.9,9-10.6
		c-3.3,6.7-6.6,20.9-11.5,28.1c-7.9,10.6-12.5,23.6-19.8,23.6c-3.2,0-5.6-1.9-5.6-6c0-12.1,20.8-20.4,20.8-33.3
		c0-5.7-4.7-7.9-7.6-7.9c-2,0-4.4,1-6.3,2.6c-0.9-0.3-1.7-0.5-2.5-0.5c-7.3,0-5.4,13.2-11.8,13.1c2.5,1.4,6.9-1.3,9.5-5
		C71.9,82,59.6,79.7,60.6,90c1.7-8,21.3-6.9,21.3-19c0-1.4-0.7-2.5-1.7-3.4c1.5-0.9,2.9-1.3,4.1-1.3c2.3,0,4.5,1.7,4.5,5.2
		c0,10.8-20.6,19.9-20.6,33.2c0,2.2,0.7,4.1,1.7,5.6c-1.5,0.6-2.9,0.3-4.2-1.1c-0.1,3.4,4.8,5.6,7.8,3.8c0.7,0.3,1.4,0.4,2.1,0.4
		c-0.9,2.5-4.1,3.3-5.7,3.2c5.1,4,13.9-1.2,13.4-5.7c4-3.2,6.6-8.8,9.5-12.4c-0.2,0.8-0.3,1.7-0.5,2.5c-2.9,5.4-5.7,10.2-6.5,17.3
		c-0.6,5.9-3.6,11.3-7.8,11.3c-0.9,0-2.4-1.2-3.1-0.6c-1.3,1.1-0.1,2.3-0.1,3.4c0,1.7-3.2,3.4-3.2,8.6c0,2.3,1.4,5.1,0.9,6.7
		c1.3-0.7,3.1-2.9,3.8-5.8c1.4,6.9-2.9,6.6,0.2,12.7c0.4-2,2.4-2.9,3.6-2c1.2,0.9,0.7,1.4-0.2,2.4c-0.9,0.9-1.8,5.5,2.4,5.2
		c-0.8-0.5-0.8-1.7,1.2-2.2c2.9-0.6,3.7,0.7,6.8,0.7c1.9,0,2.4-2.5,3.9-2.5c1.5,0,1.5,1.2,1,2c2.4-0.6,2.9-2,2.9-3.3
		c0-1.4-1.1-2.2-0.2-2.7c0.9-0.5,3.6,0,2.5,2.3c1.4-0.3,2.2-1.3,2.2-3.1c0-1.8-2-2.8-3.9-2.5c-0.3-1.1-2-1.7-3.5-1.7
		c-3.4,0-2.9,2.7-5.2,2.7c-3.7,0-7.3-4.8-7.3-13c0-4.3,4.7-5.4,8-6.9c3.3-1.4,9.1-5,12.6-10.9c2.7-4.6,2.8-9.6,2.5-15.5
		c4.7,2.7,5.2,6.5,5.2,9.3c0,3.6-1.9,5.1-3.4,5.8c-1.3,0.6-1.7,0.3-1.8,1.1c-0.2,0.9,0.5,1.5,1,1.7c1.7,0.9,1.3,2.5,1.8,4.2
		c0.5,1.8,2,4.5,4.6,6.5c0.3-1.1,0.2-2.8,0.1-5.1c3.6,1.8,0.7,9,7.7,9c-1.3-0.7-0.9-2.6-0.2-2.9c0.7-0.3,1.7,0.5,3,2.3
		c1.4,1.9,1,1.7,4.3,1.7c3.3,0,1.8-1.1,3.6-1.1c1.8,0,1.6,2,0.7,3.5c2.9-0.9,3.8-3.1,2.8-5.4c2.6-1.4,4,0.6,4.4,2
		c2.6-2.5,0-5.6-2-5.9c0.1-0.9-0.8-1.9-1.9-2c-1.1-0.1-2.1-0.1-3.3-0.1c-1.2,0.1-1.9,1.8-3.3,1.8c-4.4,0-13-7.9-13-11.4
		c0-3.4,8.3-5.5,8.3-10.8c0-7-6.8-9.3-12.6-13.8c2.1-2.3,8-2.8,11.4-1.2c0.4-1.9,1.6-1.4,2.1-4.8c1.2,2.9-0.1,5.5,1.2,6.7
		c1-1.4,3.4-1.2,3.3-4.8c0.8,2.3-1,5.8,0.8,7.3c0.3-1.9,1.4-2.2,2.1-2.2c0.7,0,1.3,0.5,1.3,1.6c0,2.8-3.4,1.5-3.4,4.6
		c0,1.3,1.7,1.8,1.7,2.6c0,0.9-1.4,2.2-3,1.1c0.6,1.2,1.7,2.3,3.1,2.3c1.5,0,3.1-1.2,3.8-2.8c0.8,2,0.2,4.2-1.3,4.5
		c1.5,0.8,5.1,0,4.7-4.6c2,0.3,3.1,1.7,1.9,4.2c1.7-0.4,3.2-1.2,3.2-3C144.5,104.3,143,103.9,143.7,102.1"/>
	<path fill="#1D1D1B" d="M277.3,135.4c0-2.4,2-4.3,4.4-4.3c2.4,0,4.3,1.9,4.3,4.3s-1.9,4.3-4.3,4.3
		C279.3,139.8,277.3,137.8,277.3,135.4 M275.9,135.4c0,3.2,2.6,5.8,5.8,5.8s5.8-2.6,5.8-5.8c0-3.2-2.6-5.8-5.8-5.8
		S275.9,132.2,275.9,135.4"/>
	<path fill="#1D1D1B" d="M256.7,146c-1.7-0.3-2.8-1.5-2.6-2.8c0.1-0.6,0.5-1,0.8-1.2c0.7-0.5,1.6-0.6,2.6-0.5
		c1.5,0.3,2.6,1.4,2.6,2.5c0,0.1,0,0.2,0,0.3C259.9,145.6,258.4,146.3,256.7,146 M254.1,140.8c-0.8,0.5-1.3,1.3-1.4,2.2
		c-0.2,1,0.1,2.1,0.9,2.9c0.7,0.8,1.7,1.4,2.9,1.6c1.2,0.2,2.3,0,3.3-0.5c1-0.5,1.7-1.4,1.9-2.4c0.4-2-1.3-4-3.8-4.5
		C256.5,139.8,255.1,140.1,254.1,140.8"/>
	<path fill="#1D1D1B" d="M221.7,62.4c0-0.8,0.5-1.6,1.2-2.2c0.7-0.5,1.5-0.8,2.2-0.7c0.3,0,0.8,0.2,1.1,0.6c0.3,0.4,0.3,0.9,0.3,1.2
		c-0.1,0.7-0.5,1.4-1.2,2c-1.1,0.9-2.6,0.9-3.3,0.1C221.8,63.1,221.7,62.8,221.7,62.4 M222,59c-1.8,1.4-2.4,3.8-1.2,5.3
		c1.2,1.5,3.6,1.6,5.4,0.1c1-0.8,1.6-1.8,1.8-3c0.1-0.9-0.1-1.7-0.6-2.3c-0.5-0.6-1.2-1-2.1-1.1C224.2,57.9,223,58.2,222,59"/>
	<path fill="#1D1D1B" d="M249.5,139.2 M249.5,137.7L249.5,137.7c-0.6,0-1-0.3-1.3-0.6c-0.6-0.6-0.9-1.5-0.9-2.5c0-1,0.4-1.9,1-2.4
		c0.3-0.3,0.7-0.6,1.3-0.6c1.2,0,2.2,1.4,2.2,3.1c0,1-0.4,1.9-1,2.5C250.6,137.5,250.1,137.8,249.5,137.7 M247.3,131.1
		c-0.9,0.8-1.4,2.1-1.4,3.5v0.1c0,1.3,0.5,2.6,1.3,3.4c0.6,0.7,1.5,1.1,2.3,1.1c0.9,0,1.7-0.3,2.4-1c0.9-0.9,1.4-2.1,1.4-3.5
		c0-1.2-0.3-2.3-1-3.2c-0.7-0.9-1.6-1.4-2.7-1.4C248.8,130.1,247.9,130.5,247.3,131.1"/>
	<path fill="#1D1D1B" d="M219.9,89.7c-1.5-0.7-2.3-2.2-1.8-3.3c0.2-0.6,0.7-0.8,1.1-0.9c0.8-0.3,1.7-0.2,2.6,0.2
		c0.9,0.4,1.5,1.1,1.8,1.9c0.1,0.4,0.2,0.9,0,1.4c-0.3,0.5-0.8,0.8-1.1,0.9C221.7,90.2,220.8,90.1,219.9,89.7 M218.7,84
		c-0.9,0.3-1.6,0.9-2,1.7c-0.9,1.9,0.2,4.3,2.5,5.4c1.2,0.6,2.6,0.7,3.8,0.3c0.9-0.3,1.6-0.9,2-1.7c0.4-0.8,0.4-1.7,0.1-2.6
		c-0.4-1.1-1.3-2.2-2.6-2.7C221.3,83.7,219.9,83.6,218.7,84"/>
	<path fill="#1D1D1B" d="M261,110.6c-1,1.3-2.6,1.8-3.6,1.1c-1.1-0.8-1.1-2.5-0.2-3.8c1-1.4,2.6-1.8,3.6-1.1
		C261.9,107.5,261.9,109.2,261,110.6 M254.1,121.4c-1,1.3-2.6,1.8-3.6,1.1c-1.1-0.7-1.2-2.4-0.2-3.8c0.9-1.3,2.6-1.8,3.6-1.1
		C255,118.4,255.1,120.1,254.1,121.4 M230.6,62c0.8-2.5,2.3-7.5,2.3-7.5l2.6,1c-0.8,0.3-1.7,1-2.5,1.8c0.6,0.3,1.7,0.3,2.4-0.2
		l-1.1,2.7c-0.2-0.4-1-1.4-1.7-1.5c-0.6,2.1,0.8,2.9,1.8,3.4c1.6,0.8,2.7,1,3.1,0.2c0.5-0.9-0.5-2.2-1.9-1.6
		c-0.1-1.4,0.6-2.1,1.6-2.1c0.7,0,1.3,0.7,1.5,1.6c-0.1-2.3,0.9-4,3-4.7c0.8,2.2,0.1,3.7-1.5,5.3c0.9-0.4,1.9-0.3,2.3,0.3
		c0.5,0.8,0.3,1.8-0.9,2.5c-0.3-1.4-2-1.6-2.4-0.6c-0.5,0.9,0.2,1.8,1.7,2.6c1.7,1,3.1,0.4,4-1.1c-0.6-0.2-1.6-0.1-2.5,0.5l1.8-3.3
		c0.1,0.5,0.4,1.3,1.1,1.9c0.3-0.7,0.6-2,0.1-3.2l3.8,2.2c-1.3,0.1-2.2,1.1-2.7,1.7c0.9,0.3,1.8,0.2,2.2,0l-2,3.2
		c0-1.1-0.3-2-0.8-2.4c-0.8,1.6-0.6,3,1,4.1c1.5,0.9,2.6,1.1,3.2,0.2c0.6-0.9-0.4-2.3-1.8-1.8c-0.1-1.4,0.8-2.1,1.7-2
		c0.7,0.1,1.3,0.9,1.4,1.8c0.5-2.2,1.5-3.5,3.8-3.9c0.5,2.1-0.5,3.9-2.5,4.9c0.9-0.3,1.7-0.1,2.1,0.5c0.4,0.8,0.2,1.8-1.1,2.4
		c-0.2-1.4-1.8-1.7-2.4-0.8c-0.4,0.8,0.2,1.6,1.7,2.6c0.9,0.6,2.3,1.4,3.9-0.2c-0.5-0.6-1.7-0.7-2.2-0.7l1.8-2.2
		c-0.1,0.9,0.5,1.8,1.1,2.2c0.3-1.1,0.4-2.3,0.3-3.1l2.2,1.8c0,0-3.6,3.8-5.4,5.8L230.6,62z M259.1,94.4c0-0.4,0.1-0.9,0.5-1.3
		c0.4-0.4,1-0.5,1.4-0.5c0.8,0,1.7,0.5,2.4,1.2c0.6,0.7,1,1.6,1,2.5c0,0.4-0.1,0.9-0.6,1.3v0c-0.4,0.4-1,0.5-1.4,0.5
		c-0.8,0-1.7-0.5-2.4-1.2C259.4,96.1,259.1,95.2,259.1,94.4 M269.5,142.4c0.2-0.8,0.7-1.6,1.6-2.1c0.8-0.5,1.8-0.8,2.6-0.6
		c0.4,0.1,0.9,0.3,1.2,0.8c0.3,0.5,0.3,1,0.2,1.4c-0.2,0.8-0.8,1.6-1.6,2.1c-1.4,0.9-3.1,0.8-3.8-0.2
		C269.5,143.3,269.5,142.8,269.5,142.4 M219.8,70.1c0,0.8-0.4,1.6-0.9,2.1c-0.2,0.2-0.6,0.5-1.1,0.4c-1-0.1-1.7-1.2-1.7-2.5
		c0-0.1,0-0.1,0-0.2c0-0.8,0.4-1.6,0.9-2.1c0.2-0.2,0.6-0.4,1.1-0.4c0.5,0,0.9,0.3,1.1,0.6C219.7,68.4,219.9,69.3,219.8,70.1
		 M235.2,38.5c0.8-1.6,0-3.9,2.8-3.9c1.4,0,2.7,1.4,4.3,1.9C239.7,36.7,237.2,37.4,235.2,38.5 M280,78c1.9,5.2,5.7,7.1,8.6,5.7
		C282.1,83,287.3,72,279,72c-0.5,0-0.9,0-1.3,0.1c-1.4-1.5-3-2.1-5.4-2.1c-3.5,0-9.5,3.4-9.5,10.4c0,15,17.5,16.4,17.5,29.7
		c0,3.9-2.9,6.3-6.2,6.3c-2.9,0-5.3-3.3-7.8-8.5c-1.2-2.5-3.7-5.8-6.4-9.3c0.8,0.6,1.7,0.9,2.6,0.9c0.9,0,1.8-0.3,2.4-0.9
		c0.6-0.6,1-1.4,1-2.4v-0.2c0-1.2-0.5-2.4-1.4-3.4c-1-1-2.2-1.6-3.4-1.6c-0.9,0-1.8,0.3-2.4,0.9c-0.6,0.6-1,1.4-1,2.4v0.1
		c0,0.5,0.1,1,0.3,1.5c-3.8-4.9-7.3-9.7-7.3-12.4c0-2.3,1.6-4.4,3.6-6.8c0.1,0,0.7,0.4,0.7,0.4l0.5-0.6c0.7-0.8,2.2-2.4,5.2-5.6
		l0.2-0.2h0l0.7-0.8l-1.9-1.5c0.5-1.1,0.9-2.4,1.3-3.7c0.6,2.4,1.8,4,3.5,3.5c-1.1-2.5,1.2-5.8-0.3-11.9c1.4,2.4,3.5,3.6,5,3.2
		c-3.9-3.5,1.2-8.2-3.9-15.7c1.7,0.6,2.8,0.2,3.5-0.6c-4.6-0.6-2.5-6.5-10.6-8.6c2-0.4,3.2-1.5,2.9-2.6c-2.1,1.5-4-2.9-11-2.7
		c-0.4-2.6-2.8-5.4-5.6-6.7c0.5,2,0,3.8-0.5,5.4L221.1,5.7c-0.7-0.6-1-0.8-1.2-0.5c-0.2,0.2-0.2,0.6,0.3,1.1l19.6,24.5
		c-1.5,0.5-2.9,1.1-4.4,1.7c-1,0.4-1.7,1.3-1.7,2.5c-3.6,1.8-6.8,4-8.4,5.5c-1.2,1.1-2.2,1.4-1.1,3.8c0.4,0.9-0.8,3.3,2,1.6
		c1.8-1.1,6.1-3.4,6.7-2c0.3,0.8-1.8,1.8-3.2,2.3c-1.4,0.6-3,1.6-2.8,2.2c0.2,0.5,1.4,0,1.4,0.5c0.1,0.6,0.5,1.2,1.1,1.2
		s1.3-1.2,1.8-0.8c0.5,0.4-0.2,3.1-0.7,3.7c2.2-0.3,3.6-2.4,3.7-4c0-1.6,0.5-2,0.8-2.3c0.3-0.2,0.7,1.8,0.3,2.9
		c1.2-0.2,2.4-1.8,2.2-4.6c0.6-0.5,1.2-0.8,1.6-0.8c0.8,0,2.2,2,4.3,2c3.9,0,6-3.1,6.2-4.6c0.2-1.2,0.1-2.4-0.5-3.2
		c1.4,1.1,1.8,2.9,1.8,4.2c0,5.5-9.7,8.1-13.7,11.9c-0.2,0.1-0.3,0.3-0.4,0.4l-4.6-1.7l-0.3,1c0,0-0.1,0.2-0.3,0.9
		c-0.5,1.6-1.5,4.8-2.1,6.7l-0.2,0.7l0.4,0.2c-2.7,3.6-4.9,7.6-5.4,11.8c-1.1-1.1-2.1-2.1-3.3-3c0.1-0.4,0.2-0.8,0.2-1.3
		c0.1-1.2-0.3-2.4-1-3.2c-0.6-0.6-1.3-1-2.1-1.1c-0.8,0-1.6,0.3-2.2,0.8c-0.1,0.1-0.3,0.3-0.4,0.4c-0.2-0.1-0.3-0.2-0.5-0.4
		c-1.5-1.2-3.4-2.5-4.5-3.8c-0.5-0.5-1-0.8-2-0.8c-0.4,0-1.4,0-2,0c-0.7,0-1.1,0.5-1.8,1.2c-0.4,0.3-1.4,1.1-2.6,2.1
		c0.5,0.6,1.1,1.1,1.7,1.7c0.3,0.3,0.6,0.7,0.9,1c0.3-0.2,0.6-0.5,0.8-0.6c0.5-0.4,1.1-0.5,1.7-0.5c0.6,0,1.4,0.4,2,1.3
		c0.4,0.6,4.1,5.5,7.1,8.8c-0.3,0.1-0.7,0.2-1,0.4c-1.3,0.5-4.3,0.4-5.6,0.3c-1.3-0.1-1.6-0.4-2.5,1c-0.3,0.5-0.8,1.1-1.2,1.7
		c-0.4,0.5-0.8,1.1,0.2,2.7c1.3,2.3,4.7,8.3,5.8,11c1.1,2.7,2.4,3.1,4.5,4c2.1,0.9,5.7,2.9,6.2,3.4l0.1-2.1
		c-0.6-0.6-2.7-1.4-3.4-1.7c-0.8-0.3-1-0.6,0-0.6c0.9,0,3.5,0.9,5.3,1.6c-0.5-2-2.5-4.3-3.6-5.5c-1.5-0.4-3.1-0.4-3.7,0
		c0.1,0.4-0.2,1-0.9,1c-0.6,0-1-0.5-0.8-1.1c0.2-0.6,1.1-0.8,0.9-2c-0.2-1.2-1.6-1.4-2.6-1.4c-1.3-1.9-2.8-4.6-3.5-5.7
		c-0.7-1.1-0.3-1.7,0.2-2.1c1.1-0.9,3.4,0.5,8,0.8c1.6,0.1,3.7,0.2,5.7,0.3c0.6,5.4,2.8,10.5,10.3,12.4c3.7,0.9,7.4,3.6,8.7,7.1
		c-14.9-0.3-17.3,5.6-17.3,11.1c0,6.2,5.3,5.9,5.3,10.6c0,4.1-12.6,5.8-16.4,6.3c-3.2,0.5-5.1,1.2-6.6,2.7c-1.5,1.6-3.1,3-5.9,5.8
		c0,0,1.2,0.3,2.4,0.2l2.1-2.8c0.6-0.9,1.1-1.7,1.5-1.6c0.4,0.1,0.1,0.8-0.4,1.8l-1.8,2.9c7.4,0.5,7.9-2.2,7.9-3.4
		c0-1.1-1.8-1.9-0.8-2.6c1-0.7,2-0.2,2.8,0.8c0.8,1,1.1,1.8,3.1,1.1c0,0,16.1-6.7,18.1-7.6c1.8-0.8,1.3-1.6,0.2-2.5
		c-1.2-1-1.4-2.6-1.4-4.3c0-4.9,2.9-6.4,8.2-6.3c-0.1,0.8-0.2,1.6-0.2,2.3c0,7.6,11.5,15,14.6,15c1.4,0,3.3-1,3.4,3.5
		c0.1,3.4,0.8,5.7,0.2,9.6c-0.6,3.9-1.7,4.5-4.1,6.1c-2.3,1.6-4.6,6.8-5.5,7.9c1,0.7,2.1,0.8,3-1.7c0.7-2.1,1.5-3.5,2.4-4
		c-0.9,2.3-1.6,5.6-2,6.6c2.9,0.5,7.7-2.1,7.7-4.2c0-2.1-1.6-1.9-1.6-3.3c0-0.6,0.7-1.3,1.6-1.3c1.2,0,2.1,0.9,2.2,1.4
		c1.3-0.7,2.1-2,2.1-5c0-1.2-0.1-2.4-0.1-3.7c0.1,0.2,0.2,0.3,0.3,0.5c0.6,0.9,1.5,1.4,2.6,1.5c1.1,0.1,2.2-0.2,3.2-0.9
		c1.1-0.8,2-1.9,2.2-3.1c0.1-0.2,0.1-0.5,0.1-0.7c0-0.6-0.2-1.3-0.5-1.8c-0.5-0.7-1.3-1.2-2.2-1.4c-1.2-0.3-2.5,0-3.7,0.8
		c-1.1,0.7-1.8,1.7-2.1,2.8c-0.2-4.1-0.5-8-0.4-9.6c0.2-2.3,0.2-3.4-0.5-3.7c-0.8-0.4-1.6,0.9-2.8,0.9c-1.1,0-4.5-3.1-4.5-6.4
		c0-3.3,3.6-7.5,3.4-12c-0.1-1.4,0.8-2.1,1.4-0.9c0.7,1.6,1.7,3.6,3.2,5.3c-0.9,5.6,5.3,11.2,10.4,7.1c-2.5,0.4-4.3-1.9-5.4-4.1
		c0.4,0.1,0.9,0.1,1.4,0.1c0.3,0,0.5,0,0.8,0c1.8,2.2,7.5,2,9-3.5c-1,1.2-3.1,2-4.5,1.8c2.1-1.7,3.3-4.4,3.3-7.3
		c0-14.3-17.4-16-17.4-29c0-4.8,4.2-7.9,7.2-7.9c1.1,0,2,0.3,2.7,0.9c-1.1,1.1-1.7,2.9-1.6,5c0.5,10.3,17.3,9.8,17.5,14.8
		C293,85.8,280.5,88.1,280,78"/>
	<path fill="#1D1D1B" d="M785.7,391.7H774v21.4h-12.2v10.4H774v45.5c0,13.2,4.8,15.6,17,15.6h9v-10.4h-5.4c-7.3,0-8.9-1-8.9-6.4
		v-44.4H800v-10.4h-14.3V391.7z M721.8,484.7h11.8v-31.8c0-18.1,6.9-28.9,25.9-28.9v-12.5c-12.7-0.4-20.6,5.3-26.3,16.8h-0.3v-15.1
		h-11.1V484.7z M654.7,449c0-17.4,10-27.1,22.3-27.1c12.3,0,22.3,9.7,22.3,27.1c0,17.3-10,27-22.3,27
		C664.7,476,654.7,466.3,654.7,449 M642.3,449c0,20.9,12,37.4,34.7,37.4c22.7,0,34.8-16.5,34.8-37.4c0-21-12-37.5-34.8-37.5
		C654.3,411.5,642.3,428,642.3,449 M567.8,512.1h11.7v-36.9h0.3c5.3,8.4,15.8,11.2,23.1,11.2c21.9,0,32.7-17,32.7-37.2
		c0-20.2-10.9-37.6-32.9-37.6c-9.8,0-19,3.5-22.8,11.3h-0.3v-9.7h-11.7V512.1z M623.1,448.3c0,14-5.4,27.7-21.5,27.7
		c-16.2,0-22.5-13-22.5-27.1c0-13.4,6.1-27,21.9-27C616.2,421.9,623.1,434.9,623.1,448.3 M497.2,462.2c0.7,17.7,14.3,24.2,30.3,24.2
		c14.5,0,30.5-5.6,30.5-22.6c0-13.8-11.6-17.7-23.4-20.4c-10.9-2.6-23.4-4-23.4-12.4c0-7.2,8.2-9.1,15.2-9.1c7.8,0,15.8,2.9,16.6,12
		h11.8c-1-17.4-13.6-22.4-29.4-22.4c-12.5,0-26.7,5.9-26.7,20.3c0,13.7,11.8,17.6,23.4,20.2c11.8,2.6,23.4,4.1,23.4,13.3
		c0,9-10,10.7-17.3,10.7c-9.7,0-18.8-3.3-19.2-13.8H497.2z M428.3,484.7h11.8v-40.4c0-12.9,6.9-22.4,21.2-22.4
		c9,0,14.5,5.7,14.5,14.4v48.4h11.8v-47.1c0-15.4-5.8-26.2-24.6-26.2c-10.2,0-18.3,4.1-23.3,13h-0.3v-11.4h-11.1V484.7z
		 M420.5,475.3c-1.5,0.5-2.6,0.7-3.6,0.7c-3.7,0-3.7-2.5-3.7-8v-36.8c0-16.8-14-19.7-26.9-19.7c-15.9,0-29.6,6.2-30.3,24h11.8
		c0.6-10.5,7.9-13.6,17.9-13.6c7.5,0,15.9,1.7,15.9,11.9c0,8.9-11.1,8-24.1,10.5c-12.2,2.3-24.2,5.8-24.2,22
		c0,14.3,10.7,20.1,23.7,20.1c10,0,18.7-3.5,25.2-11.1c0,7.7,3.9,11.1,10,11.1c3.7,0,6.4-0.7,8.4-1.9V475.3z M401.4,459.8
		c0,6.5-6.4,16.2-21.9,16.2c-7.2,0-13.8-2.8-13.8-10.5c0-8.7,6.6-11.5,14.4-12.9c7.9-1.4,16.7-1.5,21.3-4.8V459.8z M313.9,484.7
		h11.8v-31.8c0-18.1,6.9-28.9,25.9-28.9v-12.5c-12.7-0.4-20.6,5.3-26.3,16.8H325v-15.1h-11.1V484.7z M273.6,484.7h13.1V397h32.9
		v-11.1h-79V397h32.9V484.7z M169.8,484.7h11.8v-31.8c0-18.1,6.9-28.9,25.9-28.9v-12.5c-12.7-0.4-20.6,5.3-26.3,16.8h-0.3v-15.1
		h-11.1V484.7z M102.8,449c0-17.4,10-27.1,22.3-27.1c12.3,0,22.3,9.7,22.3,27.1c0,17.3-10,27-22.3,27
		C112.7,476,102.8,466.3,102.8,449 M90.3,449c0,20.9,12,37.4,34.7,37.4s34.8-16.5,34.8-37.4c0-21-12-37.5-34.8-37.5
		S90.3,428,90.3,449 M62.9,484.7h11.8v-61.2h13.8v-10.4H74.7v-10c0-6.2,3.3-8,9-8c2.1,0,4.6,0.3,6.6,1v-10.2
		c-2.2-0.7-5.4-1.1-7.6-1.1c-12.9,0-19.8,6.1-19.8,17.7v10.6h-12v10.4h12V484.7z"/>
	<path fill="#1D1D1B" d="M734.4,247.5h-11.8V269h-12.2v10.4h12.2v45.5c0,13.2,4.8,15.6,17,15.6h9v-10.4h-5.4c-7.3,0-8.9-1-8.9-6.4
		v-44.4h14.3V269h-14.3V247.5z M645.3,340.6h11.8v-40.4c0-12.9,6.9-22.4,21.2-22.4c9,0,14.5,5.7,14.5,14.4v48.4h11.8v-47.1
		c0-15.4-5.8-26.2-24.7-26.2c-10.2,0-18.3,4.2-23.2,13h-0.3V269h-11.1V340.6z M582.4,297.9c0.8-10.9,8.2-20.2,20.5-20.2
		c11.6,0,20.1,9,20.6,20.2H582.4z M623.3,317.9c-2.1,9.3-8.9,14-18.6,14c-15.6,0-22.7-11.1-22.3-23.5H636c0.7-17.3-7.1-41-32.4-41
		c-19.5,0-33.6,15.8-33.6,37.2c0.7,21.9,11.5,37.7,34.3,37.7c16.1,0,27.4-8.6,30.6-24.4H623.3z M459.5,340.6h11.8V296
		c0-5.4,5.1-18.3,19.1-18.3c10.5,0,13.4,6.7,13.4,15.9v46.9h11.8V296c0-11.1,7.3-18.3,18.7-18.3c11.5,0,13.8,7.1,13.8,15.9v46.9
		h11.8v-52.5c0-14.8-9.6-20.8-23.8-20.8c-9.1,0-17.6,4.6-22.4,12.2c-2.9-8.7-10.9-12.2-19.7-12.2c-9.8,0-17.9,4.2-23.1,12.2h-0.3
		V269h-11.1V340.6z M436.8,247.5h-11.8V269h-12.2v10.4h12.2v45.5c0,13.2,4.8,15.6,17,15.6h9v-10.4h-5.4c-7.3,0-8.8-1-8.8-6.4v-44.4
		h14.3V269h-14.3V247.5z M372.9,340.6h11.7v-31.8c0-18.1,6.9-28.9,25.9-28.9v-12.5c-12.7-0.4-20.6,5.3-26.3,16.8h-0.3V269h-11.1
		V340.6z M365.3,331.1c-1.5,0.5-2.6,0.7-3.6,0.7c-3.7,0-3.7-2.5-3.7-8V287c0-16.8-14-19.7-26.8-19.7c-15.9,0-29.6,6.2-30.3,24h11.8
		c0.6-10.5,7.9-13.6,17.9-13.6c7.5,0,15.9,1.7,15.9,11.9c0,8.9-11.1,8-24.1,10.5c-12.2,2.4-24.2,5.8-24.2,22
		c0,14.3,10.7,20.1,23.7,20.1c10,0,18.7-3.5,25.2-11.1c0,7.7,3.9,11.1,10,11.1c3.7,0,6.4-0.7,8.4-1.9V331.1z M346.2,315.6
		c0,6.5-6.4,16.2-21.9,16.2c-7.2,0-13.9-2.8-13.9-10.5c0-8.7,6.7-11.5,14.4-12.9c7.9-1.4,16.7-1.5,21.3-4.8V315.6z M224.1,368h11.8
		v-37h0.3c5.2,8.4,15.8,11.2,23.1,11.2c21.9,0,32.7-17,32.7-37.2c0-20.2-10.9-37.7-32.9-37.7c-9.8,0-19,3.5-22.8,11.4h-0.3V269
		h-11.8V368z M279.5,304.1c0,14-5.4,27.7-21.5,27.7c-16.2,0-22.6-13-22.6-27.1c0-13.4,6.1-27,21.9-27
		C272.6,277.7,279.5,290.7,279.5,304.1 M161.1,297.9c0.8-10.9,8.2-20.2,20.5-20.2c11.6,0,20.1,9,20.6,20.2H161.1z M201.9,317.9
		c-2.1,9.3-8.9,14-18.5,14c-15.6,0-22.7-11.1-22.3-23.5h53.6c0.7-17.3-7.1-41-32.4-41c-19.5,0-33.6,15.8-33.6,37.2
		c0.7,21.9,11.5,37.7,34.3,37.7c16.1,0,27.4-8.6,30.6-24.4H201.9z M73.2,252.8h22.1c24.2,0,32.9,14.3,32.9,37.8
		c0,36.4-24.2,38.9-33.2,38.9H73.2V252.8z M60,340.6H94c32.9,0,47.5-18.7,47.5-51.8c0-31.8-17-47.1-47.5-47.1H60V340.6z"/>
	<rect x="0" y="0" fill="#006C56" width="11.6" height="485.9"/>
</g>
</svg>
